<?xml version="1.0" encoding="utf-8"?>
<!-- Generator: Adobe Illustrator 19.0.0, SVG Export Plug-In . SVG Version: 6.00 Build 0)  -->
<svg version="1.1" id="Capa_1" xmlns="http://www.w3.org/2000/svg" xmlns:xlink="http://www.w3.org/1999/xlink" x="0px" y="0px"
	 viewBox="0 0 528 399" enable-background="new 0 0 528 399" xml:space="preserve">
<g id="XMLID_754_">
	<path id="XMLID_756_" fill-rule="evenodd" clip-rule="evenodd" fill="#FFFFFF" d="M385.2,181.8c0.2,0.5,0.3,0.9,0.1,1.4
		C384.9,182.7,385.1,182.3,385.2,181.8z"/>
	<path id="XMLID_755_" fill="#FFFFFF" d="M481.6,217.5c-5.9-5.6-16.1-10.3-29.8-13.8l-22.5-5.6c-12.3-3-16.8-8.3-16.8-15.9
		c0-4.8,2.5-8.7,6.4-11.8c3.9-3.1,9.2-4.6,16.6-4.6c12.8,0,22.7,5.5,26.2,15.6l24.7-5.8c-2.5-9.1-10.8-17.6-19.8-22.6
		c-9-5-22-6.4-33.4-6.4c-13.7,0-25,3.6-33.8,10.7c-3.9,3.2-6.9,6.8-9.1,10.9l5.4-19.1l-23.4,0.1l-25.9,93.9l-27.9-94.1l-25.9,0.1
		L268,244l-26.4-95l-24.3,0.1l-84.2-0.5v132.6l90.2-0.8V261l-66.4-0.4v-37.1l53.6,0.3l0.3-19.5l-52.7,0.3l0.3-35l61.6,0.6
		l32.1,111.6l26.4,0.1l25.2-95.9l27,96l27.3-0.1l28.4-100c-0.1,1.2-0.2,2.4-0.2,3.7c0,6,1.2,11.6,3.7,16.8c2.5,5.2,5.8,9.3,10,12.2
		c4.1,2.9,10.6,5.5,19.2,7.7l25.3,6.6c6.8,1.7,11.2,4.2,13.3,7.2c2.1,3.1,3.1,6.4,3.1,10.1c0,5-2.3,9.2-6.8,12.5
		c-4.6,3.4-11.4,4.1-19.9,4.1c-18.6,0-26.4-6.4-30.3-19.3l-25,4.9c3.2,11.7,10.1,20.8,20,26.3c9.9,5.5,21.4,8.3,34.5,8.3
		c15.6,0,33-2.1,42.8-9.6c4.7-3.6,9.2-8.1,12.2-15.4c0,0,3.9-5.8,3.9-16.5s-3.8-16.5-3.8-16.5S483.7,219.5,481.6,217.5z"/>
</g>
<path id="XMLID_753_" fill="#EB6624" d="M486.3,89.3c0,31.2-56.4,76.2-56.4,76.2s-56.4-45.1-56.4-76.2s25.3-56.4,56.4-56.4
	C461.1,32.9,486.3,58.2,486.3,89.3z"/>
<g id="XMLID_738_">
	<path id="XMLID_751_" fill="#EB6624" d="M269.9,236.3c3.2,0.2,5.5,0.9,6.9,2.1c1.3,1.2,2,2.5,1.9,4c-0.1,1.5-0.8,3.1-2.1,4.7
		c-1.3,1.6-3,2.9-5,3.9c-1.2,0.6-3.8,1.1-7.6,1.5c-3.9,0.4-8.6,0.7-14.1,0.9c-5.5,0.2-11.6,0.3-18.3,0.4c-6.7,0-13.4,0-20-0.2
		c-1,2.8-2.4,6.8-4.1,11.8c-1.8,5-3.7,10.7-6,17c-2.2,6.3-4.6,13-7.1,20.2c-2.5,7.2-5,14.3-7.5,21.4c-2.5,7.1-4.9,14-7.2,20.6
		c-2.3,6.6-4.3,12.6-6.1,17.9c-1.8,5.3-3.2,9.6-4.3,13c-1.1,3.4-1.7,5.5-1.9,6.3c-0.3,1.6-0.8,2.9-1.6,4c-0.8,1.1-1.5,1.8-2.2,1.8
		c-0.7,0.1-1.1-0.6-1.4-1.9c-0.3-1.4,0-3.7,0.8-7.1c0.3-1.5,1.1-4.1,2.4-8c1.2-3.8,2.8-8.4,4.6-13.8c1.8-5.3,3.9-11.2,6.1-17.7
		c2.3-6.5,4.6-13.1,7-19.9c2.4-6.8,4.8-13.6,7.2-20.3c2.4-6.7,4.7-13,6.8-18.9c2.1-5.9,4-11.1,5.7-15.8c1.7-4.7,2.9-8.3,3.9-10.8
		c-4.4-0.1-8.6-0.2-12.7-0.4c-4.1-0.2-8-0.4-11.5-0.6c-3.6-0.2-6.8-0.5-9.7-0.7c-2.9-0.2-5.2-0.5-7-0.9c-4.8-0.8-8.6-2-11.5-3.6
		c-2.9-1.6-5.1-3.2-6.7-4.9c-1.8-1.9-3.1-3.9-3.9-6.1c4,0.9,8.8,1.7,14.2,2.1c5.4,0.5,11.2,0.8,17.4,0.9c6.2,0.1,12.6,0.1,19.2,0
		c6.6-0.1,13.2-0.3,19.7-0.6c6.5-0.2,12.7-0.5,18.8-0.9c6-0.3,11.5-0.6,16.5-0.9c5-0.3,9.3-0.5,12.9-0.6
		C265.7,236.2,268.3,236.2,269.9,236.3z"/>
	<path id="XMLID_749_" fill="#EB6624" d="M290.3,312.8c0.9,0,1.2,0.5,1,1.4c0,0.1-0.5,0.5-1.4,1.4c-0.9,0.9-2.2,2-3.8,3.3
		c-1.6,1.3-3.4,2.7-5.5,4.2c-2.1,1.5-4.2,2.9-6.6,4.2c-2.3,1.3-4.7,2.4-7.1,3.2c-2.4,0.9-4.8,1.3-7.1,1.3c-3.6,0-6.2-0.9-7.9-2.6
		c-1.7-1.7-2.8-3.9-3.3-6.6c-0.5-2.7-0.5-5.6-0.1-8.8c0.4-3.2,0.9-6.3,1.5-9.2c0.6-2.9,1.2-5.5,1.7-7.7c0.5-2.2,0.6-3.7,0.3-4.5
		c-0.2-0.5-0.7-1-1.4-1.3c-0.7-0.3-1.5-0.5-2.3-0.7c-0.8-0.2-1.7-0.3-2.6-0.5c-0.9-0.1-1.7-0.3-2.3-0.5c-0.3,0-0.6-0.1-1-0.3
		c-0.9,1.6-2.2,3.7-4.1,6.1c-1.9,2.5-3.9,5-6.1,7.6c-2.2,2.6-4.5,5.1-6.8,7.5c-2.3,2.4-4.4,4.5-6.3,6.1c-0.5,0.5-1,0.8-1.5,0.9
		c-0.5,0.1-0.8,0.1-1-0.1s-0.2-0.5-0.1-1c0.2-0.5,0.6-1,1.3-1.7c4.2-4,7.7-7.6,10.5-10.6c2.7-3,4.9-5.6,6.6-7.7
		c1.7-2.1,2.9-3.8,3.7-5.1c0.8-1.2,1.3-2.1,1.7-2.7c-0.9-0.3-1.8-0.6-2.6-0.9c-0.8-0.3-1.3-0.6-1.5-0.9c-0.7-0.5-1.1-1.2-1.3-2.1
		c-0.2-0.8-0.1-1.8,0.3-3c0.6-1.6,1.7-3,3.1-4.1c1.5-1.1,3-1.7,4.7-1.7c1.5,0,2.6,0.5,3.4,1.4c0.8,0.9,1,2.1,0.7,3.4
		c-0.1,0.3-0.1,0.6-0.2,0.9c-0.1,0.6-0.3,1.3-0.6,2.1c1.3,0.4,3.1,0.7,5.4,0.9c2.3,0.2,4.6,0.3,6.9,0.5c2.3,0.2,4.4,0.4,6.3,0.8
		c1.9,0.3,2.9,0.9,3.3,1.7c0.3,0.9,0.4,2.4,0.1,4.5c-0.3,2.1-0.7,4.5-1.1,7.1c-0.4,2.6-0.9,5.3-1.3,8.1c-0.4,2.8-0.6,5.4-0.5,7.7
		c0.1,2.3,0.5,4.2,1.2,5.8c0.7,1.5,2,2.3,3.8,2.3c1.3,0,2.8-0.3,4.5-0.9c1.6-0.6,3.1-1.2,4.6-2c1.7-0.8,3.3-1.8,5-2.8l4.5-3.9
		C289.1,313.1,289.6,312.8,290.3,312.8z"/>
	<path id="XMLID_747_" fill="#EB6624" d="M359.9,312.8c0.9,0,1.2,0.5,1,1.4c-0.1,0.1-0.5,0.5-1.4,1.4c-0.8,0.9-2,2-3.5,3.3
		c-1.5,1.3-3.2,2.7-5.2,4.2c-2,1.5-4.1,2.9-6.3,4.2c-2.3,1.3-4.6,2.4-6.9,3.2c-2.4,0.9-4.7,1.3-7,1.3c-2.4,0-4.3-0.8-5.7-2.4
		c-1.4-1.6-2.4-3.4-3.1-5.3c-0.7-2-1.1-3.8-1.3-5.4c-0.2-1.7-0.3-2.6-0.3-2.8c-0.2,0.2-1.1,1.1-2.7,2.8c-1.6,1.7-3.6,3.5-5.9,5.4
		c-2.4,2-5,3.7-7.8,5.3c-2.9,1.6-5.7,2.4-8.4,2.4c-3,0-5.3-0.6-7.1-1.8c-1.8-1.2-2.9-2.8-3.5-4.8c-0.6-2-0.7-4.4-0.2-7
		c0.5-2.7,1.5-5.5,3-8.4c1.5-2.9,3.5-5.9,6.1-8.9c2.5-3,5.5-5.9,9.1-8.6c3.7-3,7.3-5.2,10.8-6.7c3.5-1.5,6.7-2.5,9.8-3
		c2.7-0.5,5.2-0.6,7.4-0.5c2.2,0.2,4,0.5,5.5,1c1.4,0.5,2.4,1,3,1.7c0.6,0.6,0.6,1.2,0.2,1.7c-0.6,0.5-1.1,0.8-1.5,0.7
		c-0.4-0.1-0.9-0.3-1.5-0.6c-0.6-0.3-1.5-0.6-2.5-1c-1.1-0.3-2.6-0.5-4.7-0.5c-1.9,0-3.9,0.4-6.2,1.3c-2.2,0.8-4.4,2-6.6,3.4
		c-2.2,1.5-4.3,3.2-6.3,5.1c-2,2-3.7,4-5.1,6.2c-2.2,3.2-3.5,6.1-4.1,8.5c-0.6,2.5-0.7,4.6-0.3,6.3c0.4,1.7,1.1,3,2.2,3.9
		c1.1,0.9,2.2,1.3,3.4,1.3c2.2,0,4.3-0.7,6.3-2c2-1.3,3.8-3,5.5-5c1.7-2,3.2-4.1,4.7-6.5c1.4-2.3,2.7-4.5,3.9-6.5
		c1.2-2,2.3-3.6,3.3-5c1-1.3,2-2,2.8-2c0.9,0,1.4,0.7,1.7,2.2c0.3,1.5,0.5,3.2,0.6,5.4c0.1,2.1,0.2,4.5,0.3,7c0.1,2.5,0.3,4.9,0.7,7
		c0.4,2.1,1.1,3.9,2,5.4c0.9,1.5,2.3,2.2,4.1,2.2c1.3,0,2.7-0.3,4-0.9c1.3-0.6,2.6-1.2,3.7-2c1.2-0.8,2.4-1.8,3.6-2.8l4.6-3.9
		C358.7,313.1,359.2,312.8,359.9,312.8z"/>
	<path id="XMLID_744_" fill="#EB6624" d="M408.2,284.2c-1.1,1.6-2.3,3.5-3.8,5.6c-1.5,2.1-2.8,4-4.2,5.9l-4.9,6.5
		c-4.1,5.6-8.1,10.6-11.8,15c-1.6,1.9-3.3,3.7-5,5.5c-1.7,1.8-3.4,3.4-5.1,4.8c-1.7,1.4-3.3,2.5-4.8,3.3c-1.5,0.8-2.8,1.3-3.9,1.3
		c-1.9,0-3.4-0.4-4.7-1.3c-1.2-0.9-2.2-2.1-2.8-3.5c-0.7-1.5-1.1-3.2-1.4-5c-0.2-1.9-0.4-3.8-0.4-5.7c0.1-4.6,0.7-9.8,2-15.7
		c0.9-3.7,2.3-7,4.1-10c0.8-1.3,1.7-2.5,2.8-3.7c1-1.2,2.3-2.3,3.6-3.2c1.4-0.9,2.9-1.7,4.7-2.3c1.8-0.6,3.7-0.9,5.9-0.9
		c2.6,0,4.1,0.7,4.6,2c0.5,1.3,0.2,3-0.8,5.2c-1,2.1-2.4,4.5-4.4,7.1c-2,2.6-4.1,5.2-6.4,7.8c0.2,2,0.5,4,1,5.8
		c0.4,1.9,0.9,3.5,1.4,4.9c0.5,1.4,1,2.6,1.6,3.4c0.6,0.9,1.1,1.3,1.7,1.3c0.5,0,1.4-0.6,2.7-1.9c1.2-1.3,2.7-2.9,4.4-5
		c1.7-2.1,3.5-4.4,5.5-7c2-2.6,3.9-5.2,5.8-7.7c1.9-2.6,3.7-5,5.4-7.3c1.7-2.3,3.2-4.2,4.4-5.7c0.9-0.9,1.7-1.2,2.5-1.1
		C408.8,282.5,408.9,283.1,408.2,284.2z M377.4,282.9c-1.4,0-2.6,0.5-3.4,1.5c-0.9,1-1.5,2.3-2,3.8c-0.4,1.6-0.7,3.4-0.8,5.4
		c-0.1,2-0.1,4.1,0.2,6.3c1.8-2.1,3.5-4.2,4.9-6.2c1.4-2.1,2.5-3.9,3.2-5.5c0.7-1.6,0.9-2.9,0.7-3.8
		C380,283.4,379.1,282.9,377.4,282.9z"/>
	<path id="XMLID_741_" fill="#EB6624" d="M443.2,295.7c-1,1.7-2.5,3.5-4.4,5.5c-1.9,2-4,4-6.4,5.9c-2.3,2-4.7,3.8-7.1,5.7
		c-2.4,1.8-4.6,3.4-6.5,4.8c0.7,2.2,1.7,3.9,3.2,5.3c1.4,1.3,3.5,2,6.2,2c2,0,4.2-0.4,6.9-1.2c2.2-0.7,4.9-1.9,8.1-3.5
		c3.2-1.6,6.8-4,10.9-7.2c0.7-0.6,1.2-0.9,1.6-1c0.4-0.1,0.7,0,0.9,0.3c0.2,0.3,0.2,0.6,0.1,1c-0.1,0.4-0.3,0.7-0.6,1
		c-0.2,0.2-1,0.8-2.3,1.8c-1.3,1-3,2.1-5.1,3.4c-2.1,1.3-4.5,2.7-7.1,4.2c-2.6,1.5-5.4,2.8-8.3,4.1c-2.9,1.2-5.8,2.3-8.7,3.1
		c-2.9,0.8-5.7,1.2-8.3,1.2c-4,0-7.1-0.8-9.4-2.4c-2.3-1.6-3.9-3.6-5-6.1c-1-2.4-1.5-5.1-1.4-8c0.1-2.9,0.6-5.6,1.6-8.2
		c0.9-2.6,2.4-5.5,4.5-8.5c2.1-3,4.6-5.8,7.5-8.4c2.9-2.6,6.1-4.8,9.7-6.5c3.6-1.7,7.3-2.6,11.1-2.6c3.1,0,5.4,0.5,7,1.4
		c1.6,0.9,2.6,2.1,3,3.5c0.4,1.4,0.4,3,0,4.7C444.6,292.5,444,294.1,443.2,295.7z M435.1,284.2c-2.3,0-4.5,1-6.7,3.1
		c-2.2,2.1-4,4.6-5.7,7.6c-1.6,3-2.9,6.3-3.7,9.9c-0.9,3.5-1.1,6.8-0.8,9.9c1.9-1.2,3.9-2.6,6.2-4.2c2.2-1.6,4.4-3.2,6.5-5
		c2.1-1.7,4-3.4,5.7-5.2c1.7-1.7,2.9-3.3,3.6-4.8c1.1-2.1,1.7-3.9,1.8-5.3c0.1-1.4-0.1-2.6-0.7-3.5c-0.5-0.9-1.4-1.5-2.5-1.9
		C437.7,284.4,436.5,284.2,435.1,284.2z"/>
	<path id="XMLID_739_" fill="#EB6624" d="M458.9,282.2c4.2-9.4,8.9-17.9,14.1-25.4c2.2-3.2,4.6-6.3,7.2-9.3c2.6-3,5.4-5.7,8.3-8.1
		c2.9-2.4,6-4.3,9.3-5.8c3.3-1.4,6.6-2.2,10.1-2.2c3.4,0,5.3,1.2,5.7,3.5c0.3,2.4-0.4,5.5-2.3,9.3c-1.9,3.8-4.6,8.2-8.1,13.1
		c-3.5,4.9-7.4,9.9-11.6,15c-9.8,12.1-22.2,25.7-37.1,41l-2.5-0.8c13.6-14.3,25-27.1,34.3-38.3c4-4.8,7.7-9.5,11.1-14.1
		c3.4-4.6,6.1-8.7,8.1-12.3c2-3.6,3.1-6.5,3.3-8.7c0.2-2.2-0.9-3.3-3.4-3.3c-2.5,0-5.1,1.2-7.9,3.7c-2.8,2.5-5.5,5.8-8.2,9.9
		c-2.7,4.1-5.3,8.8-7.8,14.1c-2.5,5.3-4.7,10.6-6.7,16.1c-2,5.5-3.6,10.8-4.9,16.1c-1.3,5.3-2.1,9.9-2.4,14.1
		c-0.3,4.1,0,7.4,0.8,9.9c0.8,2.5,2.4,3.7,4.7,3.7c1.1,0.1,2.5-0.1,4.1-0.8c1.4-0.5,3.2-1.5,5.3-2.9c2.1-1.4,4.6-3.5,7.6-6.3
		c0.4-0.3,0.8-0.5,1.1-0.6c0.3,0,0.6,0,0.9,0.2c0.2,0.2,0.4,0.4,0.5,0.8c0.1,0.3,0,0.7-0.3,1c-0.2,0.3-0.8,0.9-1.7,1.8
		c-0.9,0.9-2.2,2-3.7,3.3c-1.5,1.3-3.2,2.6-5.2,4c-1.9,1.4-4,2.7-6.2,3.9c-2.2,1.2-4.5,2.2-6.9,3c-2.4,0.8-4.7,1.2-7,1.2
		c-2.8,0-4.9-0.8-6.4-2.3c-1.5-1.6-2.6-3.6-3.1-6.3c-0.6-2.6-0.7-5.6-0.5-9.1c0.2-3.4,0.7-7,1.4-10.7c0.7-3.7,1.6-7.4,2.7-11.1
		C456.6,288.8,457.8,285.4,458.9,282.2z"/>
</g>
<path id="XMLID_737_" fill="#FFFFFF" d="M370.8,107.7c-2.5,8.5-9.6,15.3-18.7,15.3c-13.6,0-23.1-9.1-23.1-31.3
	c0-21.4,10-32.3,20.6-32.3c8.8,0,18,8.2,20.3,15.5c0.1,0.2,0.1,0.4,0.2,0.6l0.8-1.2c2.6-7.4,6.9-14.1,12.4-19.5
	c-8.5-10.6-13.8-14.2-32.5-15.1C327,38.6,305.2,55.4,305.2,92c0,35.8,23.4,52.1,41.7,50.7c18.2-1.3,23.8-3.6,34.3-17.3l-0.3-0.6
	C376.5,119.9,373.1,114.1,370.8,107.7z"/>
<g id="XMLID_12_">
	<radialGradient id="XMLID_809_" cx="430.4577" cy="58.3538" r="55.2031" gradientUnits="userSpaceOnUse">
		<stop  offset="0" style="stop-color:#85D5F6"/>
		<stop  offset="0.4609" style="stop-color:#2C79BD"/>
		<stop  offset="0.7227" style="stop-color:#04579E"/>
		<stop  offset="0.832" style="stop-color:#104C8A"/>
		<stop  offset="0.9727" style="stop-color:#1E396C"/>
		<stop  offset="1" style="stop-color:#1E396C"/>
	</radialGradient>
	
		<ellipse id="XMLID_736_" fill-rule="evenodd" clip-rule="evenodd" fill="url(#XMLID_809_)" cx="429.6" cy="87.2" rx="41.2" ry="41.2"/>
	<g id="XMLID_733_">
		<defs>
			<path id="XMLID_734_" d="M390.2,82.1c0-18,17.6-35.4,39.4-35.4c21.8,0,39.4,17.4,39.4,35.4c0,18-17.6,20.2-39.4,20.2
				C407.9,102.2,390.2,100,390.2,82.1z"/>
		</defs>
		<clipPath id="XMLID_810_">
			<use xlink:href="#XMLID_734_"  overflow="visible"/>
		</clipPath>
		
			<radialGradient id="XMLID_811_" cx="422.5092" cy="53.4787" r="59.346" gradientTransform="matrix(1.0599 0 0 1.0462 -11.502 -6.3235)" gradientUnits="userSpaceOnUse">
			<stop  offset="0" style="stop-color:#A9D8F4"/>
			<stop  offset="0.1758" style="stop-color:#85D5F6"/>
			<stop  offset="0.5938" style="stop-color:#2C79BD"/>
			<stop  offset="0.8164" style="stop-color:#04579E"/>
			<stop  offset="0.8945" style="stop-color:#104C8A"/>
			<stop  offset="0.9727" style="stop-color:#1E396C"/>
			<stop  offset="1" style="stop-color:#1E396C"/>
		</radialGradient>
		
			<ellipse id="XMLID_735_" clip-path="url(#XMLID_810_)" fill-rule="evenodd" clip-rule="evenodd" fill="url(#XMLID_811_)" cx="435.4" cy="82" rx="46.9" ry="46.3"/>
	</g>
	<radialGradient id="XMLID_812_" cx="430.5288" cy="58.2882" r="55.1058" gradientUnits="userSpaceOnUse">
		<stop  offset="0" style="stop-color:#FFFFFF"/>
		<stop  offset="0.293" style="stop-color:#A9D8F4"/>
		<stop  offset="0.8047" style="stop-color:#2C79BD"/>
		<stop  offset="1" style="stop-color:#104C8A"/>
	</radialGradient>
	<path id="XMLID_534_" display="none" fill="url(#XMLID_812_)" d="M426.1,46c0.9-0.1,1.8,0.3,2.8,1.3l-0.2,0.2
		c-0.9-0.9-1.8-1.3-2.6-1.2L426.1,46z M433.4,46.3c-0.8-0.1-1.7,0.3-2.7,1.2l-0.2-0.2c1-0.9,2-1.4,2.9-1.3L433.4,46.3z M419.2,100.4
		c6.8,0.6,13.9,0.6,20.6,0c0-7-0.5-14.2-1.4-21c-5.8,0.5-11.9,0.5-17.7,0C419.7,86.1,419.2,93.4,419.2,100.4z M418.9,100.6
		c-4.4-0.4-8.7-1.1-12.7-2c-2.1-0.5-4-1.1-5.7-1.7c0,7,1.5,13,4,17.8c1.5,0.5,3.2,1,5,1.5c3.4,0.8,7.1,1.4,10.9,1.7
		C419.4,113.4,418.9,107.5,418.9,100.6z M395.6,70.5c1.5,1.9,4.4,3.7,8.6,5.2c2.5-6.5,6.1-12.4,10.4-17.1c-2-0.8-3.9-1.8-5-3
		C403.9,59.5,399,64.6,395.6,70.5z M404.5,75.9c1.5,0.5,3.1,1,4.9,1.4c3.4,0.8,7.1,1.4,10.9,1.8c0.9-6.8,2.2-13.1,3.8-18.4
		c-2.2-0.2-4.3-0.5-6.3-1c-0.9-0.2-1.9-0.5-2.9-0.9C410.6,63.5,407,69.4,404.5,75.9z M420.6,79.1c5.8,0.5,11.9,0.5,17.7,0
		c-0.9-6.8-2.1-13.1-3.6-18.4c-3.4,0.3-6.9,0.3-10.3,0C422.9,66,421.6,72.3,420.6,79.1z M438.6,79.1c5.7-0.5,11.1-1.5,15.5-2.9
		c-2.5-6.5-5.9-12.4-10.1-17.2c-2.6,0.8-5.7,1.4-9,1.7C436.5,66,437.7,72.3,438.6,79.1z M454.4,76c1.5-0.5,3-1.1,4.2-1.7
		c2.4-1.2,4.1-2.4,5.1-3.7c-3.4-5.9-8.2-11.1-14-14.9c-0.6,0.8-1.6,1.5-3,2.2c-0.7,0.3-1.5,0.7-2.4,1
		C448.5,63.7,451.9,69.6,454.4,76z M444,125.2c4.1-1.8,7.5-5.2,10-9.8c-4.4,1.4-9.8,2.4-15.4,2.9c-0.8,4.2-2,7.2-3.4,8.6
		C438.5,126.6,441.5,126,444,125.2z M434.8,126.9c1.4-1.3,2.7-4.3,3.5-8.7c-5.7,0.5-11.8,0.5-17.6,0c0.9,4.4,2.2,7.4,3.7,8.7
		C427.8,127.2,431.4,127.2,434.8,126.9z M423.9,126.8c-1.5-1.5-2.7-4.5-3.5-8.6c-3.8-0.4-7.6-0.9-11-1.8c-1.7-0.4-3.3-0.9-4.8-1.4
		c2.5,4.7,6.1,8.1,10.3,9.9c0.9,0.3,1.9,0.6,3,0.9C419.8,126.3,421.8,126.6,423.9,126.8z M455.9,111.7l0.1,0l0.1,0.3l-0.3,0.1
		c-0.4,1-0.8,1.9-1.2,2.8c1.5-0.5,2.8-1,4-1.6c2.4-1.2,4.1-2.5,5.2-3.8c0.6-1,1.2-2,1.7-3l-0.2-0.1l0.4-0.5
		c2.2-4.4,3.4-9.5,3.5-14.9c-1.2,1.5-3.2,2.9-5.8,4.2c-1.5,0.7-3.2,1.4-5,2C458.3,102.6,457.5,107.5,455.9,111.7z M439.1,115
		l0.1,0.3l-0.1,0c-0.1,0.9-0.3,1.8-0.4,2.7c5.7-0.5,11.1-1.5,15.6-3c0.5-1,0.9-2,1.3-3l0-0.1c1.7-4.2,2.5-9.1,2.5-14.6
		c-5.2,1.7-11.4,2.8-18,3.4C440,106.1,439.7,110.9,439.1,115z M438.6,115l0.2,0c0.6-4,0.9-8.8,0.9-14.3c-6.7,0.6-13.8,0.6-20.6,0
		c0,7,0.5,12.8,1.4,17.3c5.9,0.5,12,0.5,17.8,0c0.2-0.8,0.3-1.7,0.4-2.7l-0.2,0L438.6,115z M393.3,105.1l0.2,0.3l0.2,0.5l0.5,0.4
		l-0.2,0.1c0.5,1,1,1.9,1.6,2.8c1.4,1.9,4.3,3.7,8.5,5.2c-0.5-0.9-0.9-1.8-1.3-2.8l-0.5-0.2l0.1-0.3l0.3,0.1
		c-1.6-4.2-2.5-9.1-2.5-14.6c-4.8-1.7-8.2-3.7-10-6C390.2,96,391.3,100.8,393.3,105.1z M465.5,74.2c-0.5-1.2-1-2.2-1.6-3.3
		c-1.1,1.3-2.8,2.6-5.1,3.7c-1.3,0.6-2.7,1.2-4.3,1.7c2.4,6.5,3.8,13.5,3.9,20.5c1.8-0.6,3.4-1.2,4.9-1.9c2.8-1.4,4.8-2.8,6-4.4
		c0-5.7-1.3-11.2-3.6-16.3L465.5,74.2z M439.1,83l0.3,0l0,0.3l-0.3,0c0.6,5.6,0.9,11.4,0.9,17.1c6.7-0.6,12.9-1.8,18-3.4
		c0-7-1.4-14-3.8-20.5c-4.5,1.4-9.8,2.4-15.6,3C438.8,80.6,438.9,81.8,439.1,83z M419.4,83l0.5,0c0.1-1.2,0.3-2.5,0.4-3.7
		c-3.8-0.4-7.5-0.9-10.9-1.8c-1.8-0.4-3.5-0.9-5-1.4c-2.5,6.5-3.9,13.5-4,20.5c1.7,0.6,3.7,1.2,5.8,1.7c4,0.9,8.2,1.6,12.6,2
		c0-5.7,0.3-11.5,1-17.1l-0.5,0L419.4,83z M402.5,79.4l0.4,0.1c0.4-1.2,0.8-2.4,1.2-3.5c-4.2-1.5-7.1-3.3-8.7-5.2
		c-3.4,5.9-5.3,12.6-5.3,19.6c1.7,2.2,5.1,4.4,10,6.1c0-5.6,1-11.3,2.7-16.7l-0.4-0.1L402.5,79.4z M425.3,56.9
		c1.1-2.9,2.2-5.3,3.4-7.1l0.2,0.2c-1.1,1.8-2.2,4.2-3.2,7l0.2,0l0,0.3l-0.3,0c-0.4,1-0.7,2.1-1,3.2c3.3,0.3,6.8,0.3,10.1,0
		c-0.3-1.1-0.6-2.2-1-3.2l-0.4,0l0-0.3l0.3,0c-1-2.8-2-5.2-3.1-7l0.2-0.1c1.5,2.5,2.9,6.2,4.2,10.6c3.3-0.3,6.3-0.9,8.9-1.7
		c-4.2-4.7-9-8.3-14.1-10.1c-5.3,1.8-10.3,5.3-14.6,9.9c0.9,0.3,1.8,0.6,2.7,0.8c2,0.5,4.1,0.8,6.3,1c0.3-1.1,0.7-2.2,1-3.2
		L425.3,56.9z M419.9,47.2l0.6-0.2c2.9-0.2,6,0.1,9.3,1.3c3.4-1.1,6.6-1.4,9.6-1.1l0-0.1l0.6,0.2c1.4,0.2,2.8,0.6,4.1,1.1l-0.1,0.3
		c-0.3-0.1-0.7-0.3-1-0.4l0.3,0.1l-0.1,0.3l-0.5-0.2l0.1-0.2c-0.2-0.1-0.4-0.1-0.6-0.2l-0.1,0.2l-0.5-0.2l0-0.1l-0.5-0.1l-0.6-0.1
		c-3.2-0.6-6.6-0.4-10.2,0.8c3.9,1.5,7.6,3.9,11,7l0.5-0.2l0.1,0.3l-0.4,0.1c1,0.9,1.9,1.9,2.8,2.9c0.9-0.3,1.7-0.6,2.5-1
		c1.3-0.7,2.3-1.4,2.9-2.1c-1.3-0.8-2.5-1.6-3.9-2.3l-0.3,0.3l-0.2-0.2l0.3-0.3c-3.8-1.9-7.8-3.3-12.1-4.1l0.1-0.3
		c5.9,1.1,11.5,3.3,16.3,6.5c0.8-1.1,0.8-2.2,0-3.3c-1.2-0.6-2.5-1.1-3.8-1.5l-0.2,0.2l-0.3-0.3c-3.8-1.2-7.8-1.9-12.1-1.9v-0.3
		c4.3,0,8.4,0.7,12.2,1.9c1.3,0.4,2.5,0.9,3.7,1.4c-0.9-0.9-2.2-1.7-4.1-2.4l0.1-0.3c2.2,0.8,3.8,1.9,4.6,2.9
		c5.1,2.4,9.4,6,12.8,10.4l-0.2,0.2c-3.2-4.2-7.4-7.7-12.2-10.1c0.6,1,0.5,2.1-0.2,3.2c5.8,3.8,10.6,9,14,14.9
		c1.3-1.8,1.3-3.6,0.2-5.4l0.2-0.2c1.2,1.9,1.1,3.9-0.3,5.8c0.6,1,1.1,2.1,1.6,3.2l0.1-0.1l0.2,0.2l-0.2,0.3c2.3,5,3.5,10.4,3.6,16
		c0.7-1,1.1-2.1,1.1-3.2h0.3c0,1.2-0.5,2.4-1.4,3.6c0,6.9-1.9,13.1-5.1,18.4c-0.1,0.2-0.2,0.4-0.3,0.5c-0.5,0.8-1.1,1.7-1.7,2.4
		l-0.2-0.2c0.3-0.3,0.5-0.7,0.8-1c-1,0.9-2.4,1.8-4.1,2.6c-1.3,0.6-2.8,1.2-4.3,1.7c-2.2,4.2-5.1,7.4-8.7,9.4l0.1,0.2
		c-0.5,0.2-1.1,0.4-1.7,0.6c-0.5,0.2-1,0.4-1.5,0.6l0-0.1c-1.4,0.4-2.9,0.7-4.6,0.9l0,0.2l-0.6,0.1l-0.1-0.3
		c-0.8,0.1-1.7,0.2-2.6,0.3c-0.1,0.1-0.1,0.1-0.2,0.2l0,0.2l-0.4,0c-0.3,0.2-0.6,0.3-1,0.3l0-0.2l-0.3,0l0-0.3l0.6,0l0,0.2
		c0.2,0,0.4-0.1,0.6-0.2c0.1-0.1,0.2-0.1,0.3-0.2c-3.1,0.2-6.4,0.2-9.5,0c0.1,0,0.1,0.1,0.2,0.1l0.5,0l0,0.2c0.2,0,0.3,0.1,0.5,0.1
		l0,0.3c-0.3,0-0.7-0.1-1-0.3c-0.2-0.1-0.4-0.3-0.7-0.4c-0.8-0.1-1.6-0.2-2.4-0.3l0.2,0l-0.1,0.3l-0.6-0.1l0.1-0.3l-0.6-0.1
		l-0.1,0.2l-0.6-0.1l0-0.2c-0.9-0.2-1.7-0.3-2.6-0.5c-0.8-0.2-1.5-0.4-2.2-0.6c-0.3,0-0.5-0.2-0.8-0.3c-0.3-0.1-0.7-0.2-1-0.4
		c-3.9-2.1-7.2-5.5-9.6-10c-3.4-1.2-5.9-2.6-7.6-4.1l0.4,0.5l-0.2,0.2c-0.5-0.7-0.9-1.3-1.4-2c-0.1-0.1-0.2-0.3-0.3-0.4
		c-3.3-5.3-5.1-11.7-5.1-18.6c-0.9-1.2-1.3-2.3-1.3-3.6h0.3c0,1,0.3,2.1,1,3.1c0.1-6.9,2-13.6,5.4-19.4c-1.4-1.8-1.5-3.8-0.2-5.7
		l0.2,0.2c-1.1,1.7-1,3.5,0.2,5.3c3.4-5.9,8.3-11,14.1-14.9c-0.8-0.9-1-2-0.4-3.1c-4.5,2.3-8.5,5.5-11.6,9.5l-0.2-0.2
		c3.2-4.1,7.3-7.4,12.1-9.8c0.7-0.9,2-1.8,4.2-2.8l0.1,0.3c-1.7,0.7-2.8,1.4-3.6,2.1c1.2-0.6,2.5-1.1,3.8-1.5l0.2-0.2l0.1,0.1
		c3.7-1.2,7.7-1.8,11.9-1.8v0.3c-4.3,0-8.3,0.6-12.1,1.9l-0.1,0.1c-1.5,0.4-2.9,1-4.3,1.7c-0.8,1.1-0.7,2.2,0.1,3.2
		c1.2-0.8,2.5-1.6,3.9-2.2l0.1-0.3l0.1,0.1c3.8-1.9,7.9-3.3,12.2-4.1l0.1,0.3c-4.3,0.7-8.3,2.1-12.1,4l-0.1,0.3l-0.1-0.1
		c-1.3,0.7-2.6,1.4-3.9,2.2c1,1.2,2.9,2.2,4.9,2.9c0.9-1,1.9-1.9,2.8-2.8l-0.3-0.1l0.1-0.3l0.5,0.2c3.5-3.1,7.3-5.5,11.3-6.9
		c-3.5-1.2-6.8-1.4-9.9-0.9l-0.5,0.2c-0.2,0-0.4,0-0.6,0.1l0,0.1l-0.5,0.2l-0.1-0.2c-0.2,0.1-0.4,0.1-0.6,0.2l0.1,0.2l-0.5,0.2
		l-0.1-0.3l0.2-0.1l-0.1-0.3C417.7,47.6,418.8,47.4,419.9,47.2z M437.7,83.1l0.6-0.1l0,0.3l-0.6,0.1L437.7,83.1z M436.6,83.2l0.6,0
		l0,0.3l-0.6,0L436.6,83.2z M435.4,83.3l0.6,0l0,0.3l-0.6,0L435.4,83.3z M434.3,83.3l0.6,0l0,0.3l-0.6,0L434.3,83.3z M433.1,83.4
		l0.6,0l0,0.3l-0.6,0L433.1,83.4z M432,83.4l0.6,0l0,0.3l-0.6,0L432,83.4z M430.8,83.4l0.6,0l0,0.3l-0.6,0L430.8,83.4z M429.7,83.4
		h0.6v0.3h-0.6V83.4z M428.5,83.4l0.6,0l0,0.3l-0.6,0L428.5,83.4z M427.4,83.4l0.6,0l0,0.3l-0.6,0L427.4,83.4z M426.2,83.4l0.6,0
		l0,0.3l-0.6,0L426.2,83.4z M425.1,83.3l0.6,0l0,0.3l-0.6,0L425.1,83.3z M423.9,83.3l0.6,0l0,0.3l-0.6,0L423.9,83.3z M422.8,83.2
		l0.6,0l0,0.3l-0.6,0L422.8,83.2z M421.7,83.2l0.6,0l0,0.3l-0.6,0L421.7,83.2z M420.5,83.1l0.6,0.1l0,0.3l-0.6-0.1L420.5,83.1z
		 M419.1,114.9l0.6,0.1l0,0.3l-0.6-0.1L419.1,114.9z M418,114.8l0.6,0.1l0,0.3L418,115L418,114.8z M416.9,114.6l0.6,0.1l0,0.3
		l-0.6-0.1L416.9,114.6z M415.7,114.5l0.6,0.1l0,0.3l-0.6-0.1L415.7,114.5z M414.6,114.3l0.6,0.1l0,0.3l-0.6-0.1L414.6,114.3z
		 M413.5,114.1l0.6,0.1l0,0.3l-0.6-0.1L413.5,114.1z M412.3,113.9l0.6,0.1l-0.1,0.3l-0.6-0.1L412.3,113.9z M411.2,113.7l0.6,0.1
		l-0.1,0.3l-0.6-0.1L411.2,113.7z M410.1,113.5l0.6,0.1l-0.1,0.3l-0.6-0.1L410.1,113.5z M408.9,113.2l0.6,0.1l-0.1,0.3l-0.6-0.1
		L408.9,113.2z M407.8,113l0.6,0.1l-0.1,0.3l-0.6-0.1L407.8,113z M406.7,112.7l0.6,0.2l-0.1,0.3l-0.6-0.2L406.7,112.7z M405.6,112.4
		l0.6,0.2l-0.1,0.3l-0.6-0.2L405.6,112.4z M404.5,112l0.6,0.2l-0.1,0.3l-0.6-0.2L404.5,112z M403.4,111.7l0.6,0.2l-0.1,0.3l-0.5-0.2
		L403.4,111.7z M464.5,107.1l0.4-0.4l0.2,0.2l-0.4,0.4L464.5,107.1z M463.7,107.9l0.4-0.4l0.2,0.2l-0.5,0.4L463.7,107.9z
		 M462.7,108.5l0.5-0.3l0.2,0.2l-0.5,0.3L462.7,108.5z M461.8,109.1l0.5-0.3l0.1,0.2l-0.5,0.3L461.8,109.1z M460.8,109.7l0.5-0.3
		l0.1,0.2l-0.5,0.3L460.8,109.7z M459.8,110.2l0.5-0.2l0.1,0.3l-0.5,0.2L459.8,110.2z M458.7,110.6l0.5-0.2l0.1,0.3l-0.5,0.2
		L458.7,110.6z M457.7,111.1l0.5-0.2l0.1,0.3l-0.5,0.2L457.7,111.1z M456.6,111.5l0.5-0.2l0.1,0.3l-0.5,0.2L456.6,111.5z
		 M454.4,112.2l0.6-0.2l0.1,0.3l-0.5,0.2L454.4,112.2z M453.3,112.5l0.6-0.2l0.1,0.3l-0.6,0.2L453.3,112.5z M452.2,112.8l0.6-0.1
		l0.1,0.3l-0.6,0.1L452.2,112.8z M451.1,113.1l0.6-0.1l0.1,0.3l-0.6,0.1L451.1,113.1z M450,113.3l0.6-0.1l0.1,0.3l-0.6,0.1
		L450,113.3z M448.8,113.6l0.6-0.1l0.1,0.3l-0.6,0.1L448.8,113.6z M447.7,113.8l0.6-0.1l0.1,0.3l-0.6,0.1L447.7,113.8z M446.6,114
		l0.6-0.1l0,0.3l-0.6,0.1L446.6,114z M445.4,114.2l0.6-0.1l0,0.3l-0.6,0.1L445.4,114.2z M444.3,114.4l0.6-0.1l0,0.3l-0.6,0.1
		L444.3,114.4z M443.2,114.5l0.6-0.1l0,0.3l-0.6,0.1L443.2,114.5z M442,114.7l0.6-0.1l0,0.3l-0.6,0.1L442,114.7z M440.9,114.8
		l0.6-0.1l0,0.3l-0.6,0.1L440.9,114.8z M439.7,114.9l0.6-0.1l0,0.3l-0.6,0.1L439.7,114.9z M437.5,115.1l0.6,0l0,0.3l-0.6,0
		L437.5,115.1z M436.3,115.2l0.6,0l0,0.3l-0.6,0L436.3,115.2z M435.2,115.2l0.6,0l0,0.3l-0.6,0L435.2,115.2z M434,115.3l0.6,0l0,0.3
		l-0.6,0L434,115.3z M432.9,115.3l0.6,0l0,0.3l-0.6,0L432.9,115.3z M431.7,115.4l0.6,0l0,0.3l-0.6,0L431.7,115.4z M430.6,115.4
		l0.6,0l0,0.3l-0.6,0L430.6,115.4z M429.4,115.4h0.6v0.3h-0.6V115.4z M428.3,115.4l0.6,0l0,0.3l-0.6,0L428.3,115.4z M427.1,115.4
		l0.6,0l0,0.3l-0.6,0L427.1,115.4z M426,115.3l0.6,0l0,0.3l-0.6,0L426,115.3z M424.8,115.3l0.6,0l0,0.3l-0.6,0L424.8,115.3z
		 M423.7,115.2l0.6,0l0,0.3l-0.6,0L423.7,115.2z M422.6,115.2l0.6,0l0,0.3l-0.6,0L422.6,115.2z M421.4,115.1l0.6,0l0,0.3l-0.6,0
		L421.4,115.1z M420.3,115l0.6,0.1l0,0.3l-0.6,0L420.3,115z M401.2,110.9l0.5,0.2l-0.1,0.3l-0.5-0.2L401.2,110.9z M400.2,110.4
		l0.5,0.2l-0.1,0.3l-0.5-0.2L400.2,110.4z M399.2,109.9l0.5,0.2l-0.1,0.3l-0.5-0.2L399.2,109.9z M398.2,109.4l0.5,0.3l-0.1,0.2
		l-0.5-0.3L398.2,109.4z M397.2,108.8l0.5,0.3l-0.1,0.2l-0.5-0.3L397.2,108.8z M396.2,108.2l0.5,0.3l-0.2,0.2l-0.5-0.3L396.2,108.2z
		 M395.3,107.5l0.5,0.4l-0.2,0.2l-0.5-0.4L395.3,107.5z M394.5,106.7l0.4,0.4l-0.2,0.2l-0.4-0.4L394.5,106.7z M464.7,75l0.4-0.4
		l0.2,0.2l-0.4,0.4L464.7,75z M463.9,75.8l0.4-0.4l0.2,0.2L464,76L463.9,75.8z M463,76.4l0.5-0.3l0.2,0.2l-0.5,0.3L463,76.4z
		 M462,77.1l0.5-0.3l0.1,0.2l-0.5,0.3L462,77.1z M461,77.6l0.5-0.3l0.1,0.2l-0.5,0.3L461,77.6z M460,78.1l0.5-0.3l0.1,0.3l-0.5,0.3
		L460,78.1z M458.9,78.6l0.5-0.2l0.1,0.3l-0.5,0.2L458.9,78.6z M457.9,79l0.5-0.2l0.1,0.3l-0.5,0.2L457.9,79z M456.8,79.4l0.5-0.2
		l0.1,0.3l-0.5,0.2L456.8,79.4z M455.7,79.8l0.5-0.2l0.1,0.3l-0.5,0.2L455.7,79.8z M454.6,80.2l0.6-0.2l0.1,0.3l-0.6,0.2L454.6,80.2
		z M453.5,80.5l0.6-0.2l0.1,0.3l-0.6,0.2L453.5,80.5z M452.4,80.8l0.6-0.1l0.1,0.3l-0.6,0.1L452.4,80.8z M451.3,81.1l0.6-0.1
		l0.1,0.3l-0.6,0.1L451.3,81.1z M450.2,81.3l0.6-0.1l0.1,0.3l-0.6,0.1L450.2,81.3z M449.1,81.6l0.6-0.1l0.1,0.3l-0.6,0.1L449.1,81.6
		z M447.9,81.8l0.6-0.1l0.1,0.3l-0.6,0.1L447.9,81.8z M446.8,82l0.6-0.1l0,0.3l-0.6,0.1L446.8,82z M445.7,82.2l0.6-0.1l0,0.3
		l-0.6,0.1L445.7,82.2z M444.5,82.4l0.6-0.1l0,0.3l-0.6,0.1L444.5,82.4z M443.4,82.5l0.6-0.1l0,0.3l-0.6,0.1L443.4,82.5z
		 M442.3,82.7l0.6-0.1l0,0.3l-0.6,0.1L442.3,82.7z M441.1,82.8l0.6-0.1l0,0.3l-0.6,0.1L441.1,82.8z M440,82.9l0.6-0.1l0,0.3
		l-0.6,0.1L440,82.9z M418.2,82.8l0.6,0.1l0,0.3l-0.6-0.1L418.2,82.8z M417.1,82.7l0.6,0.1l0,0.3l-0.6-0.1L417.1,82.7z M416,82.6
		l0.6,0.1l0,0.3l-0.6-0.1L416,82.6z M414.8,82.4l0.6,0.1l0,0.3l-0.6-0.1L414.8,82.4z M413.7,82.2l0.6,0.1l0,0.3l-0.6-0.1L413.7,82.2
		z M412.6,82l0.6,0.1l0,0.3l-0.6-0.1L412.6,82z M411.4,81.8l0.6,0.1l0,0.3l-0.6-0.1L411.4,81.8z M410.3,81.6l0.6,0.1l-0.1,0.3
		l-0.6-0.1L410.3,81.6z M409.2,81.3l0.6,0.1l-0.1,0.3l-0.6-0.1L409.2,81.3z M408.1,81.1l0.6,0.1l-0.1,0.3l-0.6-0.1L408.1,81.1z
		 M406.9,80.8l0.6,0.1l-0.1,0.3l-0.6-0.2L406.9,80.8z M405.8,80.5l0.6,0.2l-0.1,0.3l-0.6-0.2L405.8,80.5z M404.7,80.2l0.6,0.2
		l-0.1,0.3l-0.6-0.2L404.7,80.2z M403.6,79.8l0.6,0.2l-0.1,0.3l-0.6-0.2L403.6,79.8z M401.5,79l0.5,0.2l-0.1,0.3l-0.5-0.2L401.5,79z
		 M400.4,78.6l0.5,0.2l-0.1,0.3l-0.5-0.2L400.4,78.6z M399.4,78.1l0.5,0.2l-0.1,0.3l-0.5-0.2L399.4,78.1z M398.4,77.6l0.5,0.3
		l-0.1,0.2l-0.5-0.3L398.4,77.6z M397.4,77l0.5,0.3l-0.1,0.2l-0.5-0.3L397.4,77z M396.4,76.4l0.5,0.3l-0.2,0.2l-0.5-0.3L396.4,76.4z
		 M395.5,75.7l0.5,0.4l-0.2,0.2l-0.5-0.4L395.5,75.7z M394.7,75l0.4,0.4l-0.2,0.2l-0.4-0.4L394.7,75z M393.9,74.1l0.4,0.5l-0.2,0.2
		l-0.4-0.4L393.9,74.1z M440,55.9l0.6-0.2l0.1,0.3l-0.6,0.2L440,55.9z M438.9,56.1l0.6-0.1l0.1,0.3l-0.6,0.1L438.9,56.1z
		 M437.8,56.4l0.6-0.1l0.1,0.3l-0.6,0.1L437.8,56.4z M436.7,56.6l0.6-0.1l0,0.3l-0.6,0.1L436.7,56.6z M435.5,56.7l0.6-0.1l0,0.3
		l-0.6,0.1L435.5,56.7z M434.4,56.9l0.6-0.1l0,0.3l-0.6,0.1L434.4,56.9z M432.1,57l0.6,0l0,0.3l-0.6,0L432.1,57z M431,57.1l0.6,0
		l0,0.3l-0.6,0L431,57.1z M429.8,57.1h0.6v0.3h-0.6V57.1z M428.7,57.1l0.6,0l0,0.3l-0.6,0L428.7,57.1z M427.5,57.1l0.6,0l0,0.3
		l-0.6,0L427.5,57.1z M426.4,57l0.6,0l0,0.3l-0.6,0L426.4,57z M424.1,56.8l0.6,0.1l0,0.3l-0.6-0.1L424.1,56.8z M423,56.6l0.6,0.1
		l0,0.3l-0.6-0.1L423,56.6z M421.9,56.4l0.6,0.1l0,0.3l-0.6-0.1L421.9,56.4z M420.7,56.2l0.6,0.1l-0.1,0.3l-0.6-0.1L420.7,56.2z
		 M419.6,55.9l0.6,0.2l-0.1,0.3l-0.6-0.2L419.6,55.9z M418.5,55.6l0.6,0.2L419,56l-0.6-0.2L418.5,55.6z M436.4,127.1l0.6-0.1l0,0.3
		l-0.6,0.1L436.4,127.1z M435.2,127.2l0.6-0.1l0,0.3l-0.6,0.1L435.2,127.2z M431.8,127.5l0.6,0l0,0.3l-0.6,0L431.8,127.5z
		 M430.7,127.6l0.6,0l0,0.3l-0.6,0L430.7,127.6z M429.5,127.6h0.6v0.3h-0.6V127.6z M428.4,127.6l0.6,0l0,0.3l-0.6,0L428.4,127.6z
		 M427.2,127.5l0.6,0l0,0.3l-0.6,0L427.2,127.5z M426.1,127.4l0.6,0l0,0.3l-0.6,0L426.1,127.4z M423.8,127.2l0.6,0.1l0,0.3l-0.6-0.1
		L423.8,127.2z M422.7,127l0.6,0.1l0,0.3l-0.6-0.1L422.7,127z M466.6,70.1l-0.2-0.6l0.3-0.1l0.2,0.6L466.6,70.1z M466.7,71.1l0-0.6
		l0.3,0l0,0.6L466.7,71.1z M466.6,72.2l0.1-0.6l0.3,0.1l-0.1,0.6L466.6,72.2z M466.1,73.2l0.3-0.5l0.2,0.1l-0.3,0.5L466.1,73.2z
		 M393.3,73.2l0.3,0.5l-0.2,0.1l-0.3-0.5L393.3,73.2z M392.9,72.2l0.2,0.5l-0.3,0.1l-0.2-0.5L392.9,72.2z M392.7,71.1l0,0.6l-0.3,0
		l0-0.6L392.7,71.1z M392.8,70l-0.1,0.6l-0.3,0l0.1-0.6L392.8,70z M393.2,69l-0.2,0.5l-0.3-0.1l0.2-0.5L393.2,69z M444,49.2
		l-0.5-0.3l0.1-0.2l0.5,0.3L444,49.2z M444.9,49.9l-0.5-0.4l0.2-0.2l0.4,0.4L444.9,49.9z M446,51.7l-0.1-0.6l0.3-0.1l0.1,0.6
		L446,51.7z M445.8,52.6l0.2-0.5l0.3,0.1l-0.2,0.5L445.8,52.6z M444.2,54.1l0.5-0.3l0.2,0.2l-0.5,0.3L444.2,54.1z M443.2,54.7
		l0.5-0.3l0.1,0.2l-0.5,0.3L443.2,54.7z M442.2,55.2l0.5-0.2l0.1,0.3l-0.5,0.2L442.2,55.2z M416.4,54.8l0.5,0.2l-0.1,0.3l-0.5-0.2
		L416.4,54.8z M415.4,54.3l0.5,0.3l-0.1,0.2l-0.5-0.3L415.4,54.3z M414.5,53.6l0.5,0.4l-0.2,0.2l-0.5-0.4L414.5,53.6z M413.4,51.8
		l0.1,0.6l-0.3,0.1l-0.1-0.6L413.4,51.8z M413.7,50.8l-0.2,0.5l-0.3-0.1l0.2-0.5L413.7,50.8z M415.2,49.3l-0.5,0.3l-0.2-0.2l0.5-0.3
		L415.2,49.3z M416.2,48.8l-0.5,0.3l-0.1-0.2l0.5-0.3L416.2,48.8z"/>
	<g id="XMLID_333_">
		<defs>
			<path id="XMLID_334_" d="M404.5,67.8c0-9.5,11.2-18.8,25.1-18.8c13.9,0,25.1,9.2,25.1,18.8c0,9.5-11.2,10.7-25.1,10.7
				C415.8,78.5,404.5,77.3,404.5,67.8z"/>
		</defs>
		<linearGradient id="XMLID_813_" gradientUnits="userSpaceOnUse" x1="429.6358" y1="49.9517" x2="429.6358" y2="77.7242">
			<stop  offset="0" style="stop-color:#FFFFFF"/>
			<stop  offset="1" style="stop-color:#6DC1EC"/>
		</linearGradient>
		<use xlink:href="#XMLID_334_"  overflow="visible" fill-rule="evenodd" clip-rule="evenodd" fill="url(#XMLID_813_)"/>
		<clipPath id="XMLID_814_">
			<use xlink:href="#XMLID_334_"  overflow="visible"/>
		</clipPath>
		<path id="XMLID_335_" display="none" clip-path="url(#XMLID_814_)" fill="#FFFFFF" d="M426.1,46c0.9-0.1,1.8,0.3,2.8,1.3l-0.2,0.2
			c-0.9-0.9-1.8-1.3-2.6-1.2L426.1,46z M433.4,46.3c-0.8-0.1-1.7,0.3-2.7,1.2l-0.2-0.2c1-0.9,2-1.4,2.9-1.3L433.4,46.3z
			 M419.2,100.4c6.8,0.6,13.9,0.6,20.6,0c0-7-0.5-14.2-1.4-21c-5.8,0.5-11.9,0.5-17.7,0C419.7,86.2,419.2,93.4,419.2,100.4z
			 M418.9,100.6c-4.4-0.4-8.7-1.1-12.7-2c-2.1-0.5-4-1.1-5.7-1.7c0,7,1.5,13,4,17.8c1.5,0.5,3.2,1,5,1.5c3.4,0.8,7.1,1.4,10.9,1.7
			C419.4,113.4,418.9,107.5,418.9,100.6z M395.6,70.5c1.5,1.9,4.4,3.7,8.6,5.2c2.5-6.5,6.1-12.4,10.4-17.1c-2-0.8-3.9-1.8-5-3
			C403.9,59.5,399,64.6,395.6,70.5z M404.5,75.9c1.5,0.5,3.1,1,4.9,1.4c3.4,0.8,7.1,1.4,10.9,1.7c0.9-6.8,2.2-13.1,3.8-18.4
			c-2.2-0.2-4.3-0.5-6.3-1c-0.9-0.2-1.9-0.5-2.9-0.9C410.6,63.5,407,69.4,404.5,75.9z M420.6,79.1c5.8,0.5,11.9,0.5,17.7,0
			c-0.9-6.8-2.1-13.1-3.6-18.4c-3.4,0.3-6.9,0.3-10.3,0C422.9,66,421.6,72.3,420.6,79.1z M438.6,79.1c5.7-0.5,11.1-1.5,15.5-2.9
			c-2.5-6.5-5.9-12.4-10.1-17.2c-2.6,0.8-5.7,1.4-9,1.7C436.5,66,437.7,72.3,438.6,79.1z M454.4,76c1.5-0.5,3-1.1,4.2-1.7
			c2.4-1.2,4.1-2.4,5.1-3.7c-3.4-5.9-8.2-11.1-14-14.9c-0.6,0.8-1.6,1.5-3,2.2c-0.7,0.3-1.5,0.7-2.4,1
			C448.5,63.7,451.9,69.6,454.4,76z M444,125.2c4.1-1.8,7.5-5.2,10-9.8c-4.4,1.4-9.8,2.4-15.4,2.9c-0.8,4.2-2,7.2-3.4,8.6
			C438.5,126.6,441.5,126,444,125.2z M434.8,126.9c1.4-1.3,2.7-4.3,3.5-8.7c-5.7,0.5-11.8,0.5-17.6,0c0.9,4.4,2.2,7.4,3.7,8.7
			C427.8,127.2,431.4,127.2,434.8,126.9z M423.9,126.8c-1.5-1.5-2.7-4.5-3.5-8.6c-3.8-0.4-7.6-0.9-11-1.8c-1.7-0.4-3.3-0.9-4.8-1.4
			c2.5,4.7,6.1,8.1,10.3,9.9c0.9,0.3,1.9,0.6,3,0.9C419.8,126.3,421.8,126.6,423.9,126.8z M455.9,111.7l0.1,0l0.1,0.3l-0.3,0.1
			c-0.4,1-0.8,1.9-1.2,2.8c1.5-0.5,2.8-1,4-1.6c2.4-1.2,4.1-2.5,5.2-3.8c0.6-1,1.2-2,1.7-3l-0.2-0.1l0.4-0.4
			c2.2-4.4,3.4-9.5,3.5-14.9c-1.2,1.5-3.2,2.9-5.8,4.2c-1.5,0.7-3.2,1.4-5,2C458.3,102.6,457.5,107.5,455.9,111.7z M439.1,115
			l0.1,0.3l-0.1,0c-0.1,0.9-0.3,1.8-0.4,2.7c5.7-0.5,11.1-1.5,15.6-3c0.5-1,0.9-2,1.3-3l0-0.1c1.7-4.2,2.5-9.1,2.5-14.6
			c-5.2,1.7-11.4,2.8-18,3.4C440,106.1,439.7,111,439.1,115z M438.6,115l0.2,0c0.6-4,0.9-8.8,0.9-14.3c-6.7,0.6-13.8,0.6-20.6,0
			c0,7,0.5,12.8,1.4,17.3c5.9,0.5,12,0.5,17.8,0c0.2-0.8,0.3-1.7,0.4-2.7l-0.2,0L438.6,115z M393.3,105.1l0.2,0.3l0.2,0.5l0.5,0.4
			l-0.2,0.1c0.5,1,1,1.9,1.6,2.8c1.4,1.9,4.3,3.7,8.5,5.2c-0.5-0.9-0.9-1.8-1.3-2.8l-0.5-0.2l0.1-0.3l0.3,0.1
			c-1.6-4.2-2.5-9.1-2.5-14.6c-4.8-1.7-8.2-3.7-10-6C390.2,96,391.3,100.8,393.3,105.1z M465.5,74.2c-0.5-1.2-1-2.2-1.6-3.3
			c-1.1,1.3-2.8,2.6-5.1,3.7c-1.3,0.6-2.7,1.2-4.3,1.7c2.4,6.5,3.8,13.5,3.9,20.5c1.8-0.6,3.4-1.2,4.9-2c2.8-1.4,4.8-2.8,6-4.4
			c0-5.7-1.3-11.2-3.6-16.3L465.5,74.2z M439.1,83l0.3,0l0,0.3l-0.3,0c0.6,5.6,0.9,11.4,0.9,17.1c6.7-0.6,12.9-1.8,18-3.4
			c0-7-1.4-14-3.8-20.5c-4.5,1.4-9.8,2.4-15.6,3C438.8,80.6,438.9,81.8,439.1,83z M419.4,83l0.5,0c0.1-1.2,0.3-2.5,0.4-3.7
			c-3.8-0.4-7.5-0.9-10.9-1.8c-1.8-0.4-3.5-0.9-5-1.4c-2.5,6.5-3.9,13.5-4,20.5c1.7,0.6,3.7,1.2,5.8,1.7c4,0.9,8.2,1.6,12.6,2
			c0-5.7,0.3-11.4,1-17.1l-0.5,0L419.4,83z M402.5,79.4l0.4,0.1c0.4-1.2,0.8-2.4,1.2-3.5c-4.2-1.5-7.1-3.3-8.7-5.2
			c-3.4,5.9-5.3,12.6-5.3,19.6c1.7,2.2,5.1,4.4,10,6.1c0-5.6,1-11.3,2.7-16.7l-0.4-0.1L402.5,79.4z M425.3,56.9
			c1.1-2.9,2.2-5.3,3.4-7.1l0.2,0.2c-1.1,1.8-2.2,4.2-3.2,7l0.2,0l0,0.3l-0.3,0c-0.4,1-0.7,2.1-1,3.2c3.3,0.3,6.8,0.3,10.1,0
			c-0.3-1.1-0.6-2.2-1-3.2l-0.4,0l0-0.3l0.3,0c-1-2.8-2-5.2-3.1-7l0.2-0.1c1.5,2.5,2.9,6.2,4.2,10.6c3.3-0.3,6.3-0.9,8.9-1.7
			c-4.2-4.7-9-8.3-14.1-10.1c-5.3,1.8-10.3,5.3-14.6,9.9c0.9,0.3,1.8,0.6,2.7,0.8c2,0.5,4.1,0.8,6.3,1c0.3-1.1,0.7-2.2,1-3.2
			L425.3,56.9z M419.9,47.2l0.6-0.2c2.9-0.2,6,0.1,9.3,1.3c3.4-1.1,6.6-1.4,9.6-1.1l0-0.1l0.6,0.2c1.4,0.2,2.8,0.6,4.1,1.1l-0.1,0.3
			c-0.3-0.1-0.7-0.3-1-0.4l0.3,0.1l-0.1,0.3l-0.5-0.2l0.1-0.2c-0.2-0.1-0.4-0.1-0.6-0.2l-0.1,0.2l-0.5-0.2l0-0.1l-0.5-0.1l-0.6-0.1
			c-3.2-0.6-6.6-0.4-10.2,0.8c3.9,1.4,7.6,3.9,11,7l0.5-0.2l0.1,0.3l-0.4,0.1c1,0.9,1.9,1.9,2.8,2.9c0.9-0.3,1.7-0.6,2.5-1
			c1.3-0.7,2.3-1.4,2.9-2.1c-1.3-0.8-2.5-1.6-3.9-2.3l-0.3,0.3l-0.2-0.2l0.3-0.3c-3.8-1.9-7.8-3.3-12.1-4.1l0.1-0.3
			c5.9,1.1,11.5,3.3,16.3,6.5c0.8-1.1,0.8-2.2,0-3.3c-1.2-0.6-2.5-1.1-3.8-1.5l-0.2,0.2l-0.3-0.3c-3.8-1.2-7.8-1.9-12.1-1.9v-0.3
			c4.3,0,8.4,0.7,12.2,1.9c1.3,0.4,2.5,0.9,3.7,1.4c-0.9-0.9-2.2-1.7-4.1-2.4l0.1-0.3c2.2,0.8,3.8,1.9,4.6,2.9
			c5.1,2.4,9.4,6,12.8,10.4l-0.2,0.2c-3.2-4.2-7.4-7.7-12.2-10.1c0.6,1,0.5,2.1-0.2,3.2c5.8,3.8,10.6,9,14,14.9
			c1.3-1.8,1.3-3.6,0.2-5.4l0.2-0.2c1.2,1.9,1.1,3.9-0.3,5.8c0.6,1,1.1,2.1,1.6,3.2l0.1-0.1l0.2,0.2l-0.2,0.3c2.3,5,3.5,10.4,3.6,16
			c0.7-1,1.1-2.1,1.1-3.2h0.3c0,1.2-0.5,2.4-1.4,3.6c0,6.9-1.9,13.1-5.1,18.4c-0.1,0.2-0.2,0.4-0.3,0.5c-0.5,0.8-1.1,1.7-1.7,2.5
			l-0.2-0.2c0.3-0.3,0.5-0.7,0.8-1c-1,0.9-2.4,1.8-4.1,2.6c-1.3,0.6-2.8,1.2-4.3,1.7c-2.2,4.2-5.1,7.4-8.7,9.4l0.1,0.2
			c-0.5,0.2-1.1,0.4-1.7,0.6c-0.5,0.2-1,0.4-1.5,0.6l0-0.1c-1.4,0.4-2.9,0.7-4.6,0.9l0,0.2l-0.6,0.1l-0.1-0.3
			c-0.8,0.1-1.7,0.2-2.6,0.3c-0.1,0.1-0.1,0.1-0.2,0.2l0,0.2l-0.4,0c-0.3,0.2-0.6,0.3-1,0.3l0-0.2l-0.3,0l0-0.3l0.6,0l0,0.2
			c0.2,0,0.4-0.1,0.6-0.2c0.1-0.1,0.2-0.1,0.3-0.2c-3.1,0.2-6.4,0.2-9.5,0c0.1,0,0.1,0.1,0.2,0.1l0.5,0l0,0.2c0.2,0,0.3,0.1,0.5,0.1
			l0,0.3c-0.3,0-0.7-0.1-1-0.3c-0.2-0.1-0.4-0.3-0.7-0.4c-0.8-0.1-1.6-0.2-2.4-0.3l0.2,0l-0.1,0.3l-0.6-0.1l0.1-0.3l-0.6-0.1
			l-0.1,0.2l-0.6-0.1l0-0.2c-0.9-0.2-1.7-0.3-2.6-0.5c-0.8-0.2-1.5-0.4-2.2-0.6c-0.3,0-0.5-0.2-0.8-0.3c-0.3-0.1-0.7-0.2-1-0.4
			c-3.9-2.1-7.2-5.5-9.6-9.9c-3.4-1.2-5.9-2.6-7.6-4.1l0.4,0.5l-0.2,0.2c-0.5-0.7-0.9-1.3-1.4-2c-0.1-0.1-0.2-0.3-0.3-0.4
			c-3.3-5.3-5.1-11.7-5.1-18.6c-0.9-1.2-1.3-2.3-1.3-3.6h0.3c0,1,0.3,2.1,1,3.1c0.1-6.9,2-13.6,5.4-19.4c-1.4-1.8-1.5-3.8-0.2-5.7
			l0.2,0.2c-1.1,1.7-1,3.5,0.2,5.3c3.4-5.9,8.3-11,14.1-14.9c-0.8-0.9-1-2-0.4-3.1c-4.5,2.3-8.5,5.5-11.6,9.5l-0.2-0.2
			c3.2-4.1,7.3-7.4,12.1-9.8c0.7-0.9,2-1.8,4.2-2.8l0.1,0.3c-1.7,0.7-2.8,1.4-3.6,2.1c1.2-0.6,2.5-1.1,3.8-1.5l0.2-0.2l0.1,0.1
			c3.7-1.2,7.7-1.8,11.9-1.8v0.3c-4.3,0-8.3,0.6-12.1,1.9l-0.1,0.1c-1.5,0.4-2.9,1-4.3,1.7c-0.8,1.1-0.7,2.2,0.1,3.2
			c1.2-0.8,2.5-1.6,3.9-2.2l0.1-0.3l0.1,0.1c3.8-1.9,7.9-3.3,12.2-4.1l0.1,0.3c-4.3,0.7-8.3,2.1-12.1,4l-0.1,0.3l-0.1-0.1
			c-1.3,0.7-2.6,1.4-3.9,2.2c1,1.2,2.9,2.2,4.9,2.9c0.9-1,1.9-1.9,2.8-2.8l-0.3-0.1l0.1-0.3l0.5,0.2c3.5-3.1,7.3-5.5,11.3-6.9
			c-3.5-1.2-6.8-1.4-9.9-0.9l-0.5,0.2c-0.2,0-0.4,0-0.6,0.1l0,0.1l-0.5,0.2l-0.1-0.2c-0.2,0.1-0.4,0.1-0.6,0.2l0.1,0.2l-0.5,0.2
			l-0.1-0.3l0.2-0.1l-0.1-0.2C417.7,47.6,418.8,47.4,419.9,47.2z M437.7,83.1l0.6-0.1l0,0.3l-0.6,0L437.7,83.1z M436.6,83.2l0.6,0
			l0,0.3l-0.6,0L436.6,83.2z M435.4,83.3l0.6,0l0,0.3l-0.6,0L435.4,83.3z M434.3,83.3l0.6,0l0,0.3l-0.6,0L434.3,83.3z M433.1,83.4
			l0.6,0l0,0.3l-0.6,0L433.1,83.4z M432,83.4l0.6,0l0,0.3l-0.6,0L432,83.4z M430.8,83.4l0.6,0l0,0.3l-0.6,0L430.8,83.4z M429.7,83.4
			h0.6v0.3h-0.6V83.4z M428.5,83.4l0.6,0l0,0.3l-0.6,0L428.5,83.4z M427.4,83.4l0.6,0l0,0.3l-0.6,0L427.4,83.4z M426.2,83.4l0.6,0
			l0,0.3l-0.6,0L426.2,83.4z M425.1,83.4l0.6,0l0,0.3l-0.6,0L425.1,83.4z M423.9,83.3l0.6,0l0,0.3l-0.6,0L423.9,83.3z M422.8,83.2
			l0.6,0l0,0.3l-0.6,0L422.8,83.2z M421.7,83.2l0.6,0l0,0.3l-0.6,0L421.7,83.2z M420.5,83.1l0.6,0.1l0,0.3l-0.6-0.1L420.5,83.1z
			 M419.1,114.9l0.6,0.1l0,0.3l-0.6-0.1L419.1,114.9z M418,114.8l0.6,0.1l0,0.3L418,115L418,114.8z M416.9,114.6l0.6,0.1l0,0.3
			l-0.6-0.1L416.9,114.6z M415.7,114.5l0.6,0.1l0,0.3l-0.6-0.1L415.7,114.5z M414.6,114.3l0.6,0.1l0,0.3l-0.6-0.1L414.6,114.3z
			 M413.5,114.1l0.6,0.1l0,0.3l-0.6-0.1L413.5,114.1z M412.3,113.9l0.6,0.1l-0.1,0.3l-0.6-0.1L412.3,113.9z M411.2,113.7l0.6,0.1
			l-0.1,0.3l-0.6-0.1L411.2,113.7z M410.1,113.5l0.6,0.1l-0.1,0.3l-0.6-0.1L410.1,113.5z M408.9,113.2l0.6,0.1l-0.1,0.3l-0.6-0.1
			L408.9,113.2z M407.8,113l0.6,0.1l-0.1,0.3l-0.6-0.1L407.8,113z M406.7,112.7l0.6,0.1l-0.1,0.3l-0.6-0.2L406.7,112.7z
			 M405.6,112.4l0.6,0.2l-0.1,0.3l-0.6-0.2L405.6,112.4z M404.5,112l0.6,0.2l-0.1,0.3l-0.6-0.2L404.5,112z M403.4,111.7l0.6,0.2
			l-0.1,0.3l-0.5-0.2L403.4,111.7z M464.5,107.1l0.4-0.4l0.2,0.2l-0.4,0.4L464.5,107.1z M463.7,107.9l0.4-0.4l0.2,0.2l-0.5,0.4
			L463.7,107.9z M462.7,108.5l0.5-0.3l0.2,0.2l-0.5,0.3L462.7,108.5z M461.8,109.1l0.5-0.3l0.1,0.2l-0.5,0.3L461.8,109.1z
			 M460.8,109.7l0.5-0.3l0.1,0.2l-0.5,0.3L460.8,109.7z M459.8,110.2l0.5-0.2l0.1,0.3l-0.5,0.2L459.8,110.2z M458.7,110.6l0.5-0.2
			l0.1,0.3l-0.5,0.2L458.7,110.6z M457.7,111.1l0.5-0.2l0.1,0.3l-0.5,0.2L457.7,111.1z M456.6,111.5l0.5-0.2l0.1,0.3l-0.5,0.2
			L456.6,111.5z M454.4,112.2l0.6-0.2l0.1,0.3l-0.5,0.2L454.4,112.2z M453.3,112.5l0.6-0.2l0.1,0.3l-0.6,0.2L453.3,112.5z
			 M452.2,112.8l0.6-0.2l0.1,0.3l-0.6,0.1L452.2,112.8z M451.1,113.1l0.6-0.1l0.1,0.3l-0.6,0.1L451.1,113.1z M450,113.3l0.6-0.1
			l0.1,0.3l-0.6,0.1L450,113.3z M448.8,113.6l0.6-0.1l0.1,0.3l-0.6,0.1L448.8,113.6z M447.7,113.8l0.6-0.1l0.1,0.3l-0.6,0.1
			L447.7,113.8z M446.6,114l0.6-0.1l0,0.3l-0.6,0.1L446.6,114z M445.4,114.2l0.6-0.1l0,0.3l-0.6,0.1L445.4,114.2z M444.3,114.4
			l0.6-0.1l0,0.3l-0.6,0.1L444.3,114.4z M443.2,114.5l0.6-0.1l0,0.3l-0.6,0.1L443.2,114.5z M442,114.7l0.6-0.1l0,0.3l-0.6,0.1
			L442,114.7z M440.9,114.8l0.6-0.1l0,0.3l-0.6,0.1L440.9,114.8z M439.7,114.9l0.6-0.1l0,0.3l-0.6,0.1L439.7,114.9z M437.5,115.1
			l0.6,0l0,0.3l-0.6,0L437.5,115.1z M436.3,115.2l0.6,0l0,0.3l-0.6,0L436.3,115.2z M435.2,115.2l0.6,0l0,0.3l-0.6,0L435.2,115.2z
			 M434,115.3l0.6,0l0,0.3l-0.6,0L434,115.3z M432.9,115.3l0.6,0l0,0.3l-0.6,0L432.9,115.3z M431.7,115.4l0.6,0l0,0.3l-0.6,0
			L431.7,115.4z M430.6,115.4l0.6,0l0,0.3l-0.6,0L430.6,115.4z M429.4,115.4h0.6v0.3h-0.6V115.4z M428.3,115.4l0.6,0l0,0.3l-0.6,0
			L428.3,115.4z M427.1,115.4l0.6,0l0,0.3l-0.6,0L427.1,115.4z M426,115.3l0.6,0l0,0.3l-0.6,0L426,115.3z M424.8,115.3l0.6,0l0,0.3
			l-0.6,0L424.8,115.3z M423.7,115.2l0.6,0l0,0.3l-0.6,0L423.7,115.2z M422.6,115.2l0.6,0l0,0.3l-0.6,0L422.6,115.2z M421.4,115.1
			l0.6,0l0,0.3l-0.6,0L421.4,115.1z M420.3,115l0.6,0.1l0,0.3l-0.6-0.1L420.3,115z M401.2,110.9l0.5,0.2l-0.1,0.3l-0.5-0.2
			L401.2,110.9z M400.2,110.4l0.5,0.2l-0.1,0.3l-0.5-0.2L400.2,110.4z M399.2,109.9l0.5,0.2l-0.1,0.2l-0.5-0.2L399.2,109.9z
			 M398.2,109.4l0.5,0.3l-0.1,0.2l-0.5-0.3L398.2,109.4z M397.2,108.8l0.5,0.3l-0.1,0.2l-0.5-0.3L397.2,108.8z M396.2,108.2l0.5,0.3
			l-0.2,0.2l-0.5-0.3L396.2,108.2z M395.3,107.5l0.5,0.4l-0.2,0.2l-0.5-0.4L395.3,107.5z M394.5,106.7l0.4,0.4l-0.2,0.2l-0.4-0.4
			L394.5,106.7z M464.7,75l0.4-0.4l0.2,0.2l-0.4,0.4L464.7,75z M463.9,75.8l0.4-0.4l0.2,0.2L464,76L463.9,75.8z M463,76.4l0.5-0.3
			l0.2,0.2l-0.5,0.3L463,76.4z M462,77.1l0.5-0.3l0.1,0.2l-0.5,0.3L462,77.1z M461,77.6l0.5-0.3l0.1,0.2l-0.5,0.3L461,77.6z
			 M460,78.1l0.5-0.3l0.1,0.2l-0.5,0.3L460,78.1z M458.9,78.6l0.5-0.2l0.1,0.3l-0.5,0.2L458.9,78.6z M457.9,79l0.5-0.2l0.1,0.3
			l-0.5,0.2L457.9,79z M456.8,79.4l0.5-0.2l0.1,0.3l-0.5,0.2L456.8,79.4z M455.7,79.8l0.5-0.2l0.1,0.3l-0.5,0.2L455.7,79.8z
			 M454.6,80.2l0.6-0.2l0.1,0.3l-0.6,0.2L454.6,80.2z M453.5,80.5l0.6-0.2l0.1,0.3l-0.6,0.2L453.5,80.5z M452.4,80.8l0.6-0.1
			l0.1,0.3l-0.6,0.1L452.4,80.8z M451.3,81.1l0.6-0.1l0.1,0.3l-0.6,0.1L451.3,81.1z M450.2,81.3l0.6-0.1l0.1,0.3l-0.6,0.1
			L450.2,81.3z M449.1,81.6l0.6-0.1l0.1,0.3l-0.6,0.1L449.1,81.6z M447.9,81.8l0.6-0.1l0.1,0.3l-0.6,0.1L447.9,81.8z M446.8,82
			l0.6-0.1l0,0.3l-0.6,0.1L446.8,82z M445.7,82.2l0.6-0.1l0,0.3l-0.6,0.1L445.7,82.2z M444.5,82.4l0.6-0.1l0,0.3l-0.6,0.1
			L444.5,82.4z M443.4,82.5l0.6-0.1l0,0.3l-0.6,0.1L443.4,82.5z M442.3,82.7l0.6-0.1l0,0.3l-0.6,0.1L442.3,82.7z M441.1,82.8
			l0.6-0.1l0,0.3l-0.6,0.1L441.1,82.8z M440,82.9l0.6-0.1l0,0.3l-0.6,0.1L440,82.9z M418.2,82.8l0.6,0.1l0,0.3l-0.6-0.1L418.2,82.8z
			 M417.1,82.7l0.6,0.1l0,0.3l-0.6-0.1L417.1,82.7z M416,82.6l0.6,0.1l0,0.3l-0.6-0.1L416,82.6z M414.8,82.4l0.6,0.1l0,0.3l-0.6-0.1
			L414.8,82.4z M413.7,82.2l0.6,0.1l0,0.3l-0.6-0.1L413.7,82.2z M412.6,82l0.6,0.1l0,0.3l-0.6-0.1L412.6,82z M411.4,81.8l0.6,0.1
			l0,0.3l-0.6-0.1L411.4,81.8z M410.3,81.6l0.6,0.1l-0.1,0.3l-0.6-0.1L410.3,81.6z M409.2,81.3l0.6,0.1l-0.1,0.3l-0.6-0.1
			L409.2,81.3z M408.1,81.1l0.6,0.1l-0.1,0.3l-0.6-0.1L408.1,81.1z M406.9,80.8l0.6,0.1l-0.1,0.3l-0.6-0.2L406.9,80.8z M405.8,80.5
			l0.6,0.2l-0.1,0.3l-0.6-0.2L405.8,80.5z M404.7,80.2l0.6,0.2l-0.1,0.3l-0.6-0.2L404.7,80.2z M403.6,79.8l0.6,0.2l-0.1,0.3
			l-0.6-0.2L403.6,79.8z M401.5,79l0.5,0.2l-0.1,0.3l-0.5-0.2L401.5,79z M400.4,78.6l0.5,0.2l-0.1,0.3l-0.5-0.2L400.4,78.6z
			 M399.4,78.1l0.5,0.2l-0.1,0.3l-0.5-0.2L399.4,78.1z M398.4,77.6l0.5,0.3l-0.1,0.2l-0.5-0.3L398.4,77.6z M397.4,77l0.5,0.3
			l-0.1,0.2l-0.5-0.3L397.4,77z M396.4,76.4l0.5,0.3l-0.2,0.2l-0.5-0.3L396.4,76.4z M395.5,75.7l0.5,0.4l-0.2,0.2l-0.5-0.4
			L395.5,75.7z M394.7,75l0.4,0.4l-0.2,0.2l-0.4-0.4L394.7,75z M393.9,74.1l0.4,0.4l-0.2,0.2l-0.4-0.5L393.9,74.1z M440,55.9
			l0.6-0.2l0.1,0.3l-0.6,0.2L440,55.9z M438.9,56.1l0.6-0.1l0.1,0.3l-0.6,0.1L438.9,56.1z M437.8,56.4l0.6-0.1l0.1,0.3l-0.6,0.1
			L437.8,56.4z M436.7,56.6l0.6-0.1l0,0.3l-0.6,0.1L436.7,56.6z M435.5,56.7l0.6-0.1l0,0.3l-0.6,0.1L435.5,56.7z M434.4,56.9
			l0.6-0.1l0,0.3l-0.6,0.1L434.4,56.9z M432.1,57l0.6,0l0,0.3l-0.6,0L432.1,57z M431,57.1l0.6,0l0,0.3l-0.6,0L431,57.1z M429.8,57.1
			h0.6v0.3h-0.6V57.1z M428.7,57.1l0.6,0l0,0.3l-0.6,0L428.7,57.1z M427.5,57.1l0.6,0l0,0.3l-0.6,0L427.5,57.1z M426.4,57l0.6,0
			l0,0.3l-0.6,0L426.4,57z M424.1,56.8l0.6,0.1l0,0.3l-0.6-0.1L424.1,56.8z M423,56.6l0.6,0.1l0,0.3l-0.6-0.1L423,56.6z M421.9,56.4
			l0.6,0.1l0,0.3l-0.6-0.1L421.9,56.4z M420.7,56.2l0.6,0.1l-0.1,0.3l-0.6-0.1L420.7,56.2z M419.6,55.9l0.6,0.2l-0.1,0.3l-0.6-0.1
			L419.6,55.9z M418.5,55.6l0.6,0.2L419,56l-0.6-0.2L418.5,55.6z M436.4,127.1l0.6-0.1l0,0.3l-0.6,0.1L436.4,127.1z M435.2,127.2
			l0.6-0.1l0,0.3l-0.6,0.1L435.2,127.2z M431.8,127.5l0.6,0l0,0.3l-0.6,0L431.8,127.5z M430.7,127.6l0.6,0l0,0.3l-0.6,0L430.7,127.6
			z M429.5,127.6h0.6v0.3h-0.6V127.6z M428.4,127.6l0.6,0l0,0.3l-0.6,0L428.4,127.6z M427.2,127.5l0.6,0l0,0.3l-0.6,0L427.2,127.5z
			 M426.1,127.4l0.6,0l0,0.3l-0.6,0L426.1,127.4z M423.8,127.2l0.6,0.1l0,0.3l-0.6-0.1L423.8,127.2z M422.7,127l0.6,0.1l0,0.3
			l-0.6-0.1L422.7,127z M466.6,70.1l-0.2-0.6l0.3-0.1l0.2,0.6L466.6,70.1z M466.7,71.1l0-0.6l0.3,0l0,0.6L466.7,71.1z M466.6,72.2
			l0.1-0.6l0.3,0.1l-0.1,0.6L466.6,72.2z M466.1,73.2l0.3-0.5l0.2,0.1l-0.3,0.5L466.1,73.2z M393.3,73.2l0.3,0.5l-0.2,0.1l-0.3-0.5
			L393.3,73.2z M392.9,72.2l0.2,0.5l-0.3,0.1l-0.2-0.5L392.9,72.2z M392.7,71.1l0.1,0.6l-0.3,0l-0.1-0.6L392.7,71.1z M392.8,70
			l-0.1,0.6l-0.3,0l0.1-0.6L392.8,70z M393.2,69l-0.2,0.5l-0.3-0.1l0.2-0.5L393.2,69z M444,49.2l-0.5-0.3l0.1-0.2l0.5,0.3L444,49.2z
			 M444.9,49.9l-0.5-0.4l0.2-0.2l0.4,0.4L444.9,49.9z M446,51.7l-0.1-0.6l0.3-0.1l0.1,0.6L446,51.7z M445.8,52.6l0.2-0.5l0.3,0.1
			l-0.2,0.5L445.8,52.6z M444.2,54.1l0.5-0.3l0.2,0.2l-0.5,0.3L444.2,54.1z M443.2,54.7l0.5-0.3l0.1,0.2l-0.5,0.3L443.2,54.7z
			 M442.2,55.2l0.5-0.2l0.1,0.3l-0.5,0.2L442.2,55.2z M416.4,54.8l0.5,0.2l-0.1,0.3l-0.5-0.2L416.4,54.8z M415.4,54.3l0.5,0.3
			l-0.1,0.2l-0.5-0.3L415.4,54.3z M414.5,53.6l0.5,0.4l-0.2,0.2l-0.5-0.4L414.5,53.6z M413.4,51.8l0.1,0.6l-0.3,0.1l-0.1-0.6
			L413.4,51.8z M413.7,50.8l-0.2,0.5l-0.3-0.1l0.2-0.5L413.7,50.8z M415.2,49.3l-0.5,0.3l-0.2-0.2l0.5-0.3L415.2,49.3z M416.2,48.8
			l-0.5,0.3l-0.1-0.2l0.5-0.3L416.2,48.8z"/>
	</g>
	<g id="XMLID_131_">
		<defs>
			<path id="XMLID_132_" d="M388.4,87.2c0-0.8,0-1.6,0.1-2.4c1.2,18.1,23.3,27.8,41.1,27.8c17.9,0,39.9-9.7,41.1-27.8
				c0,0.8,0.1,1.6,0.1,2.4c0,22.7-18.4,41.2-41.2,41.2C406.9,128.4,388.4,109.9,388.4,87.2z"/>
		</defs>
		<clipPath id="XMLID_815_">
			<use xlink:href="#XMLID_132_"  overflow="visible"/>
		</clipPath>
		<radialGradient id="XMLID_816_" cx="429.6343" cy="73.1958" r="60.9759" gradientUnits="userSpaceOnUse">
			<stop  offset="0" style="stop-color:#1C3A6B"/>
			<stop  offset="0.7227" style="stop-color:#1E396C"/>
			<stop  offset="0.9609" style="stop-color:#80BDE7"/>
			<stop  offset="1" style="stop-color:#80BDE7"/>
		</radialGradient>
		<path id="XMLID_332_" clip-path="url(#XMLID_815_)" fill-rule="evenodd" clip-rule="evenodd" fill="url(#XMLID_816_)" d="
			M388.4,87.2c0-22.7,18.4-41.2,41.2-41.2c22.8,0,41.2,18.4,41.2,41.2c0,22.7-18.4,41.2-41.2,41.2
			C406.9,128.4,388.4,109.9,388.4,87.2z"/>
		<radialGradient id="XMLID_817_" cx="429.7067" cy="73.0381" r="60.8637" gradientUnits="userSpaceOnUse">
			<stop  offset="0" style="stop-color:#104C8A"/>
			<stop  offset="0.7227" style="stop-color:#104C8A"/>
			<stop  offset="0.9609" style="stop-color:#80BDE7"/>
			<stop  offset="1" style="stop-color:#80BDE7"/>
		</radialGradient>
		<path id="XMLID_133_" display="none" clip-path="url(#XMLID_815_)" fill="url(#XMLID_817_)" d="M426.1,46c0.9-0.1,1.8,0.3,2.8,1.3
			l-0.2,0.2c-0.9-0.9-1.8-1.3-2.6-1.2L426.1,46z M433.4,46.3c-0.8-0.1-1.7,0.3-2.7,1.2l-0.2-0.2c1-0.9,2-1.4,2.9-1.3L433.4,46.3z
			 M419.2,100.4c6.8,0.6,13.9,0.6,20.6,0c0-7-0.5-14.2-1.4-21c-5.8,0.5-11.9,0.5-17.7,0C419.7,86.2,419.2,93.4,419.2,100.4z
			 M418.9,100.6c-4.4-0.4-8.7-1.1-12.7-2c-2.1-0.5-4-1.1-5.7-1.7c0,7,1.5,13,4,17.8c1.5,0.5,3.2,1,5,1.5c3.4,0.8,7.1,1.4,10.9,1.7
			C419.4,113.4,418.9,107.5,418.9,100.6z M395.6,70.5c1.5,1.9,4.4,3.7,8.6,5.2c2.5-6.5,6.1-12.4,10.4-17.1c-2-0.8-3.9-1.8-5-3
			C403.9,59.5,399,64.6,395.6,70.5z M404.5,75.9c1.5,0.5,3.1,1,4.9,1.4c3.4,0.8,7.1,1.4,10.9,1.7c0.9-6.8,2.2-13.1,3.8-18.4
			c-2.2-0.2-4.3-0.5-6.3-1c-0.9-0.2-1.9-0.5-2.9-0.9C410.6,63.5,407,69.4,404.5,75.9z M420.6,79.1c5.8,0.5,11.9,0.5,17.7,0
			c-0.9-6.8-2.1-13.1-3.6-18.4c-3.4,0.3-6.9,0.3-10.3,0C422.9,66,421.6,72.3,420.6,79.1z M438.6,79.1c5.7-0.5,11.1-1.5,15.5-2.9
			c-2.5-6.5-5.9-12.4-10.1-17.2c-2.6,0.8-5.7,1.4-9,1.7C436.5,66,437.7,72.3,438.6,79.1z M454.4,76c1.5-0.5,3-1.1,4.2-1.7
			c2.4-1.2,4.1-2.4,5.1-3.7c-3.4-5.9-8.2-11.1-14-14.9c-0.6,0.8-1.6,1.5-3,2.2c-0.7,0.3-1.5,0.7-2.4,1
			C448.5,63.7,451.9,69.6,454.4,76z M444,125.2c4.1-1.8,7.5-5.2,10-9.8c-4.4,1.4-9.8,2.4-15.4,2.9c-0.8,4.2-2,7.2-3.4,8.6
			C438.5,126.6,441.5,126,444,125.2z M434.8,126.9c1.4-1.3,2.7-4.3,3.5-8.7c-5.7,0.5-11.8,0.5-17.6,0c0.9,4.4,2.2,7.4,3.7,8.7
			C427.8,127.2,431.4,127.2,434.8,126.9z M423.9,126.8c-1.5-1.5-2.7-4.5-3.5-8.6c-3.8-0.4-7.6-0.9-11-1.8c-1.7-0.4-3.3-0.9-4.8-1.4
			c2.5,4.7,6.1,8.1,10.3,9.9c0.9,0.3,1.9,0.6,3,0.9C419.8,126.3,421.8,126.6,423.9,126.8z M455.9,111.7l0.1,0l0.1,0.3l-0.3,0.1
			c-0.4,1-0.8,1.9-1.2,2.8c1.5-0.5,2.8-1,4-1.6c2.4-1.2,4.1-2.5,5.2-3.8c0.6-1,1.2-2,1.7-3l-0.2-0.1l0.4-0.4
			c2.2-4.4,3.4-9.5,3.5-14.9c-1.2,1.5-3.2,2.9-5.8,4.2c-1.5,0.7-3.2,1.4-5,2C458.3,102.6,457.5,107.5,455.9,111.7z M439.1,115
			l0.1,0.3l-0.1,0c-0.1,0.9-0.3,1.8-0.4,2.7c5.7-0.5,11.1-1.5,15.6-3c0.5-1,0.9-2,1.3-3l0-0.1c1.7-4.2,2.5-9.1,2.5-14.6
			c-5.2,1.7-11.4,2.8-18,3.4C440,106.1,439.7,111,439.1,115z M438.6,115l0.2,0c0.6-4,0.9-8.8,0.9-14.3c-6.7,0.6-13.8,0.6-20.6,0
			c0,7,0.5,12.8,1.4,17.3c5.9,0.5,12,0.5,17.8,0c0.2-0.8,0.3-1.7,0.4-2.7l-0.2,0L438.6,115z M393.3,105.1l0.2,0.3l0.2,0.5l0.5,0.4
			l-0.2,0.1c0.5,1,1,1.9,1.6,2.8c1.4,1.9,4.3,3.7,8.5,5.2c-0.5-0.9-0.9-1.8-1.3-2.8l-0.5-0.2l0.1-0.3l0.3,0.1
			c-1.6-4.2-2.5-9.1-2.5-14.6c-4.8-1.7-8.2-3.7-10-6C390.2,96,391.3,100.8,393.3,105.1z M465.5,74.2c-0.5-1.2-1-2.2-1.6-3.3
			c-1.1,1.3-2.8,2.6-5.1,3.7c-1.3,0.6-2.7,1.2-4.3,1.7c2.4,6.5,3.8,13.5,3.9,20.5c1.8-0.6,3.4-1.2,4.9-2c2.8-1.4,4.8-2.8,6-4.4
			c0-5.7-1.3-11.2-3.6-16.3L465.5,74.2z M439.1,83l0.3,0l0,0.3l-0.3,0c0.6,5.6,0.9,11.4,0.9,17.1c6.7-0.6,12.9-1.8,18-3.4
			c0-7-1.4-14-3.8-20.5c-4.5,1.4-9.8,2.4-15.6,3C438.8,80.6,438.9,81.8,439.1,83z M419.4,83l0.5,0c0.1-1.2,0.3-2.5,0.4-3.7
			c-3.8-0.4-7.5-0.9-10.9-1.8c-1.8-0.4-3.5-0.9-5-1.4c-2.5,6.5-3.9,13.5-4,20.5c1.7,0.6,3.7,1.2,5.8,1.7c4,0.9,8.2,1.6,12.6,2
			c0-5.7,0.3-11.4,1-17.1l-0.5,0L419.4,83z M402.5,79.4l0.4,0.1c0.4-1.2,0.8-2.4,1.2-3.5c-4.2-1.5-7.1-3.3-8.7-5.2
			c-3.4,5.9-5.3,12.6-5.3,19.6c1.7,2.2,5.1,4.4,10,6.1c0-5.6,1-11.3,2.7-16.7l-0.4-0.1L402.5,79.4z M425.3,56.9
			c1.1-2.9,2.2-5.3,3.4-7.1l0.2,0.2c-1.1,1.8-2.2,4.2-3.2,7l0.2,0l0,0.3l-0.3,0c-0.4,1-0.7,2.1-1,3.2c3.3,0.3,6.8,0.3,10.1,0
			c-0.3-1.1-0.6-2.2-1-3.2l-0.4,0l0-0.3l0.3,0c-1-2.8-2-5.2-3.1-7l0.2-0.1c1.5,2.5,2.9,6.2,4.2,10.6c3.3-0.3,6.3-0.9,8.9-1.7
			c-4.2-4.7-9-8.3-14.1-10.1c-5.3,1.8-10.3,5.3-14.6,9.9c0.9,0.3,1.8,0.6,2.7,0.8c2,0.5,4.1,0.8,6.3,1c0.3-1.1,0.7-2.2,1-3.2
			L425.3,56.9z M419.9,47.2l0.6-0.2c2.9-0.2,6,0.1,9.3,1.3c3.4-1.1,6.6-1.4,9.6-1.1l0-0.1l0.6,0.2c1.4,0.2,2.8,0.6,4.1,1.1l-0.1,0.3
			c-0.3-0.1-0.7-0.3-1-0.4l0.3,0.1l-0.1,0.3l-0.5-0.2l0.1-0.2c-0.2-0.1-0.4-0.1-0.6-0.2l-0.1,0.2l-0.5-0.2l0-0.1l-0.5-0.1l-0.6-0.1
			c-3.2-0.6-6.6-0.4-10.2,0.8c3.9,1.4,7.6,3.9,11,7l0.5-0.2l0.1,0.3l-0.4,0.1c1,0.9,1.9,1.9,2.8,2.9c0.9-0.3,1.7-0.6,2.5-1
			c1.3-0.7,2.3-1.4,2.9-2.1c-1.3-0.8-2.5-1.6-3.9-2.3l-0.3,0.3l-0.2-0.2l0.3-0.3c-3.8-1.9-7.8-3.3-12.1-4.1l0.1-0.3
			c5.9,1.1,11.5,3.3,16.3,6.5c0.8-1.1,0.8-2.2,0-3.3c-1.2-0.6-2.5-1.1-3.8-1.5l-0.2,0.2l-0.3-0.3c-3.8-1.2-7.8-1.9-12.1-1.9v-0.3
			c4.3,0,8.4,0.7,12.2,1.9c1.3,0.4,2.5,0.9,3.7,1.4c-0.9-0.9-2.2-1.7-4.1-2.4l0.1-0.3c2.2,0.8,3.8,1.9,4.6,2.9
			c5.1,2.4,9.4,6,12.8,10.4l-0.2,0.2c-3.2-4.2-7.4-7.7-12.2-10.1c0.6,1,0.5,2.1-0.2,3.2c5.8,3.8,10.6,9,14,14.9
			c1.3-1.8,1.3-3.6,0.2-5.4l0.2-0.2c1.2,1.9,1.1,3.9-0.3,5.8c0.6,1,1.1,2.1,1.6,3.2l0.1-0.1l0.2,0.2l-0.2,0.3c2.3,5,3.5,10.4,3.6,16
			c0.7-1,1.1-2.1,1.1-3.2h0.3c0,1.2-0.5,2.4-1.4,3.6c0,6.9-1.9,13.1-5.1,18.4c-0.1,0.2-0.2,0.4-0.3,0.5c-0.5,0.8-1.1,1.7-1.7,2.5
			l-0.2-0.2c0.3-0.3,0.5-0.7,0.8-1c-1,0.9-2.4,1.8-4.1,2.6c-1.3,0.6-2.8,1.2-4.3,1.7c-2.2,4.2-5.1,7.4-8.7,9.4l0.1,0.2
			c-0.5,0.2-1.1,0.4-1.7,0.6c-0.5,0.2-1,0.4-1.5,0.6l0-0.1c-1.4,0.4-2.9,0.7-4.6,0.9l0,0.2l-0.6,0.1l-0.1-0.3
			c-0.8,0.1-1.7,0.2-2.6,0.3c-0.1,0.1-0.1,0.1-0.2,0.2l0,0.2l-0.4,0c-0.3,0.2-0.6,0.3-1,0.3l0-0.2l-0.3,0l0-0.3l0.6,0l0,0.2
			c0.2,0,0.4-0.1,0.6-0.2c0.1-0.1,0.2-0.1,0.3-0.2c-3.1,0.2-6.4,0.2-9.5,0c0.1,0,0.1,0.1,0.2,0.1l0.5,0l0,0.2c0.2,0,0.3,0.1,0.5,0.1
			l0,0.3c-0.3,0-0.7-0.1-1-0.3c-0.2-0.1-0.4-0.3-0.7-0.4c-0.8-0.1-1.6-0.2-2.4-0.3l0.2,0l-0.1,0.3l-0.6-0.1l0.1-0.3l-0.6-0.1
			l-0.1,0.2l-0.6-0.1l0-0.2c-0.9-0.2-1.7-0.3-2.6-0.5c-0.8-0.2-1.5-0.4-2.2-0.6c-0.3,0-0.5-0.2-0.8-0.3c-0.3-0.1-0.7-0.2-1-0.4
			c-3.9-2.1-7.2-5.5-9.6-9.9c-3.4-1.2-5.9-2.6-7.6-4.1l0.4,0.5l-0.2,0.2c-0.5-0.7-0.9-1.3-1.4-2c-0.1-0.1-0.2-0.3-0.3-0.4
			c-3.3-5.3-5.1-11.7-5.1-18.6c-0.9-1.2-1.3-2.3-1.3-3.6h0.3c0,1,0.3,2.1,1,3.1c0.1-6.9,2-13.6,5.4-19.4c-1.4-1.8-1.5-3.8-0.2-5.7
			l0.2,0.2c-1.1,1.7-1,3.5,0.2,5.3c3.4-5.9,8.3-11,14.1-14.9c-0.8-0.9-1-2-0.4-3.1c-4.5,2.3-8.5,5.5-11.6,9.5l-0.2-0.2
			c3.2-4.1,7.3-7.4,12.1-9.8c0.7-0.9,2-1.8,4.2-2.8l0.1,0.3c-1.7,0.7-2.8,1.4-3.6,2.1c1.2-0.6,2.5-1.1,3.8-1.5l0.2-0.2l0.1,0.1
			c3.7-1.2,7.7-1.8,11.9-1.8v0.3c-4.3,0-8.3,0.6-12.1,1.9l-0.1,0.1c-1.5,0.4-2.9,1-4.3,1.7c-0.8,1.1-0.7,2.2,0.1,3.2
			c1.2-0.8,2.5-1.6,3.9-2.2l0.1-0.3l0.1,0.1c3.8-1.9,7.9-3.3,12.2-4.1l0.1,0.3c-4.3,0.7-8.3,2.1-12.1,4l-0.1,0.3l-0.1-0.1
			c-1.3,0.7-2.6,1.4-3.9,2.2c1,1.2,2.9,2.2,4.9,2.9c0.9-1,1.9-1.9,2.8-2.8l-0.3-0.1l0.1-0.3l0.5,0.2c3.5-3.1,7.3-5.5,11.3-6.9
			c-3.5-1.2-6.8-1.4-9.9-0.9l-0.5,0.2c-0.2,0-0.4,0-0.6,0.1l0,0.1l-0.5,0.2l-0.1-0.2c-0.2,0.1-0.4,0.1-0.6,0.2l0.1,0.2l-0.5,0.2
			l-0.1-0.3l0.2-0.1l-0.1-0.2C417.7,47.6,418.8,47.4,419.9,47.2z M437.7,83.1l0.6-0.1l0,0.3l-0.6,0L437.7,83.1z M436.6,83.2l0.6,0
			l0,0.3l-0.6,0L436.6,83.2z M435.4,83.3l0.6,0l0,0.3l-0.6,0L435.4,83.3z M434.3,83.3l0.6,0l0,0.3l-0.6,0L434.3,83.3z M433.1,83.4
			l0.6,0l0,0.3l-0.6,0L433.1,83.4z M432,83.4l0.6,0l0,0.3l-0.6,0L432,83.4z M430.8,83.4l0.6,0l0,0.3l-0.6,0L430.8,83.4z M429.7,83.4
			h0.6v0.3h-0.6V83.4z M428.5,83.4l0.6,0l0,0.3l-0.6,0L428.5,83.4z M427.4,83.4l0.6,0l0,0.3l-0.6,0L427.4,83.4z M426.2,83.4l0.6,0
			l0,0.3l-0.6,0L426.2,83.4z M425.1,83.4l0.6,0l0,0.3l-0.6,0L425.1,83.4z M423.9,83.3l0.6,0l0,0.3l-0.6,0L423.9,83.3z M422.8,83.2
			l0.6,0l0,0.3l-0.6,0L422.8,83.2z M421.7,83.2l0.6,0l0,0.3l-0.6,0L421.7,83.2z M420.5,83.1l0.6,0.1l0,0.3l-0.6-0.1L420.5,83.1z
			 M419.1,114.9l0.6,0.1l0,0.3l-0.6-0.1L419.1,114.9z M418,114.8l0.6,0.1l0,0.3L418,115L418,114.8z M416.9,114.6l0.6,0.1l0,0.3
			l-0.6-0.1L416.9,114.6z M415.7,114.5l0.6,0.1l0,0.3l-0.6-0.1L415.7,114.5z M414.6,114.3l0.6,0.1l0,0.3l-0.6-0.1L414.6,114.3z
			 M413.5,114.1l0.6,0.1l0,0.3l-0.6-0.1L413.5,114.1z M412.3,113.9l0.6,0.1l-0.1,0.3l-0.6-0.1L412.3,113.9z M411.2,113.7l0.6,0.1
			l-0.1,0.3l-0.6-0.1L411.2,113.7z M410.1,113.5l0.6,0.1l-0.1,0.3l-0.6-0.1L410.1,113.5z M408.9,113.2l0.6,0.1l-0.1,0.3l-0.6-0.1
			L408.9,113.2z M407.8,113l0.6,0.1l-0.1,0.3l-0.6-0.1L407.8,113z M406.7,112.7l0.6,0.1l-0.1,0.3l-0.6-0.2L406.7,112.7z
			 M405.6,112.4l0.6,0.2l-0.1,0.3l-0.6-0.2L405.6,112.4z M404.5,112l0.6,0.2l-0.1,0.3l-0.6-0.2L404.5,112z M403.4,111.7l0.6,0.2
			l-0.1,0.3l-0.5-0.2L403.4,111.7z M464.5,107.1l0.4-0.4l0.2,0.2l-0.4,0.4L464.5,107.1z M463.7,107.9l0.4-0.4l0.2,0.2l-0.5,0.4
			L463.7,107.9z M462.7,108.5l0.5-0.3l0.2,0.2l-0.5,0.3L462.7,108.5z M461.8,109.1l0.5-0.3l0.1,0.2l-0.5,0.3L461.8,109.1z
			 M460.8,109.7l0.5-0.3l0.1,0.2l-0.5,0.3L460.8,109.7z M459.8,110.2l0.5-0.2l0.1,0.3l-0.5,0.2L459.8,110.2z M458.7,110.6l0.5-0.2
			l0.1,0.3l-0.5,0.2L458.7,110.6z M457.7,111.1l0.5-0.2l0.1,0.3l-0.5,0.2L457.7,111.1z M456.6,111.5l0.5-0.2l0.1,0.3l-0.5,0.2
			L456.6,111.5z M454.4,112.2l0.6-0.2l0.1,0.3l-0.5,0.2L454.4,112.2z M453.3,112.5l0.6-0.2l0.1,0.3l-0.6,0.2L453.3,112.5z
			 M452.2,112.8l0.6-0.2l0.1,0.3l-0.6,0.1L452.2,112.8z M451.1,113.1l0.6-0.1l0.1,0.3l-0.6,0.1L451.1,113.1z M450,113.3l0.6-0.1
			l0.1,0.3l-0.6,0.1L450,113.3z M448.8,113.6l0.6-0.1l0.1,0.3l-0.6,0.1L448.8,113.6z M447.7,113.8l0.6-0.1l0.1,0.3l-0.6,0.1
			L447.7,113.8z M446.6,114l0.6-0.1l0,0.3l-0.6,0.1L446.6,114z M445.4,114.2l0.6-0.1l0,0.3l-0.6,0.1L445.4,114.2z M444.3,114.4
			l0.6-0.1l0,0.3l-0.6,0.1L444.3,114.4z M443.2,114.5l0.6-0.1l0,0.3l-0.6,0.1L443.2,114.5z M442,114.7l0.6-0.1l0,0.3l-0.6,0.1
			L442,114.7z M440.9,114.8l0.6-0.1l0,0.3l-0.6,0.1L440.9,114.8z M439.7,114.9l0.6-0.1l0,0.3l-0.6,0.1L439.7,114.9z M437.5,115.1
			l0.6,0l0,0.3l-0.6,0L437.5,115.1z M436.3,115.2l0.6,0l0,0.3l-0.6,0L436.3,115.2z M435.2,115.2l0.6,0l0,0.3l-0.6,0L435.2,115.2z
			 M434,115.3l0.6,0l0,0.3l-0.6,0L434,115.3z M432.9,115.3l0.6,0l0,0.3l-0.6,0L432.9,115.3z M431.7,115.4l0.6,0l0,0.3l-0.6,0
			L431.7,115.4z M430.6,115.4l0.6,0l0,0.3l-0.6,0L430.6,115.4z M429.4,115.4h0.6v0.3h-0.6V115.4z M428.3,115.4l0.6,0l0,0.3l-0.6,0
			L428.3,115.4z M427.1,115.4l0.6,0l0,0.3l-0.6,0L427.1,115.4z M426,115.3l0.6,0l0,0.3l-0.6,0L426,115.3z M424.8,115.3l0.6,0l0,0.3
			l-0.6,0L424.8,115.3z M423.7,115.2l0.6,0l0,0.3l-0.6,0L423.7,115.2z M422.6,115.2l0.6,0l0,0.3l-0.6,0L422.6,115.2z M421.4,115.1
			l0.6,0l0,0.3l-0.6,0L421.4,115.1z M420.3,115l0.6,0.1l0,0.3l-0.6-0.1L420.3,115z M401.2,110.9l0.5,0.2l-0.1,0.3l-0.5-0.2
			L401.2,110.9z M400.2,110.4l0.5,0.2l-0.1,0.3l-0.5-0.2L400.2,110.4z M399.2,109.9l0.5,0.2l-0.1,0.2l-0.5-0.2L399.2,109.9z
			 M398.2,109.4l0.5,0.3l-0.1,0.2l-0.5-0.3L398.2,109.4z M397.2,108.8l0.5,0.3l-0.1,0.2l-0.5-0.3L397.2,108.8z M396.2,108.2l0.5,0.3
			l-0.2,0.2l-0.5-0.3L396.2,108.2z M395.3,107.5l0.5,0.4l-0.2,0.2l-0.5-0.4L395.3,107.5z M394.5,106.7l0.4,0.4l-0.2,0.2l-0.4-0.4
			L394.5,106.7z M464.7,75l0.4-0.4l0.2,0.2l-0.4,0.4L464.7,75z M463.9,75.8l0.4-0.4l0.2,0.2L464,76L463.9,75.8z M463,76.4l0.5-0.3
			l0.2,0.2l-0.5,0.3L463,76.4z M462,77.1l0.5-0.3l0.1,0.2l-0.5,0.3L462,77.1z M461,77.6l0.5-0.3l0.1,0.2l-0.5,0.3L461,77.6z
			 M460,78.1l0.5-0.3l0.1,0.2l-0.5,0.3L460,78.1z M458.9,78.6l0.5-0.2l0.1,0.3l-0.5,0.2L458.9,78.6z M457.9,79l0.5-0.2l0.1,0.3
			l-0.5,0.2L457.9,79z M456.8,79.4l0.5-0.2l0.1,0.3l-0.5,0.2L456.8,79.4z M455.7,79.8l0.5-0.2l0.1,0.3l-0.5,0.2L455.7,79.8z
			 M454.6,80.2l0.6-0.2l0.1,0.3l-0.6,0.2L454.6,80.2z M453.5,80.5l0.6-0.2l0.1,0.3l-0.6,0.2L453.5,80.5z M452.4,80.8l0.6-0.1
			l0.1,0.3l-0.6,0.1L452.4,80.8z M451.3,81.1l0.6-0.1l0.1,0.3l-0.6,0.1L451.3,81.1z M450.2,81.3l0.6-0.1l0.1,0.3l-0.6,0.1
			L450.2,81.3z M449.1,81.6l0.6-0.1l0.1,0.3l-0.6,0.1L449.1,81.6z M447.9,81.8l0.6-0.1l0.1,0.3l-0.6,0.1L447.9,81.8z M446.8,82
			l0.6-0.1l0,0.3l-0.6,0.1L446.8,82z M445.7,82.2l0.6-0.1l0,0.3l-0.6,0.1L445.7,82.2z M444.5,82.4l0.6-0.1l0,0.3l-0.6,0.1
			L444.5,82.4z M443.4,82.5l0.6-0.1l0,0.3l-0.6,0.1L443.4,82.5z M442.3,82.7l0.6-0.1l0,0.3l-0.6,0.1L442.3,82.7z M441.1,82.8
			l0.6-0.1l0,0.3l-0.6,0.1L441.1,82.8z M440,82.9l0.6-0.1l0,0.3l-0.6,0.1L440,82.9z M418.2,82.8l0.6,0.1l0,0.3l-0.6-0.1L418.2,82.8z
			 M417.1,82.7l0.6,0.1l0,0.3l-0.6-0.1L417.1,82.7z M416,82.6l0.6,0.1l0,0.3l-0.6-0.1L416,82.6z M414.8,82.4l0.6,0.1l0,0.3l-0.6-0.1
			L414.8,82.4z M413.7,82.2l0.6,0.1l0,0.3l-0.6-0.1L413.7,82.2z M412.6,82l0.6,0.1l0,0.3l-0.6-0.1L412.6,82z M411.4,81.8l0.6,0.1
			l0,0.3l-0.6-0.1L411.4,81.8z M410.3,81.6l0.6,0.1l-0.1,0.3l-0.6-0.1L410.3,81.6z M409.2,81.3l0.6,0.1l-0.1,0.3l-0.6-0.1
			L409.2,81.3z M408.1,81.1l0.6,0.1l-0.1,0.3l-0.6-0.1L408.1,81.1z M406.9,80.8l0.6,0.1l-0.1,0.3l-0.6-0.2L406.9,80.8z M405.8,80.5
			l0.6,0.2l-0.1,0.3l-0.6-0.2L405.8,80.5z M404.7,80.2l0.6,0.2l-0.1,0.3l-0.6-0.2L404.7,80.2z M403.6,79.8l0.6,0.2l-0.1,0.3
			l-0.6-0.2L403.6,79.8z M401.5,79l0.5,0.2l-0.1,0.3l-0.5-0.2L401.5,79z M400.4,78.6l0.5,0.2l-0.1,0.3l-0.5-0.2L400.4,78.6z
			 M399.4,78.1l0.5,0.2l-0.1,0.3l-0.5-0.2L399.4,78.1z M398.4,77.6l0.5,0.3l-0.1,0.2l-0.5-0.3L398.4,77.6z M397.4,77l0.5,0.3
			l-0.1,0.2l-0.5-0.3L397.4,77z M396.4,76.4l0.5,0.3l-0.2,0.2l-0.5-0.3L396.4,76.4z M395.5,75.7l0.5,0.4l-0.2,0.2l-0.5-0.4
			L395.5,75.7z M394.7,75l0.4,0.4l-0.2,0.2l-0.4-0.4L394.7,75z M393.9,74.1l0.4,0.4l-0.2,0.2l-0.4-0.5L393.9,74.1z M440,55.9
			l0.6-0.2l0.1,0.3l-0.6,0.2L440,55.9z M438.9,56.1l0.6-0.1l0.1,0.3l-0.6,0.1L438.9,56.1z M437.8,56.4l0.6-0.1l0.1,0.3l-0.6,0.1
			L437.8,56.4z M436.7,56.6l0.6-0.1l0,0.3l-0.6,0.1L436.7,56.6z M435.5,56.7l0.6-0.1l0,0.3l-0.6,0.1L435.5,56.7z M434.4,56.9
			l0.6-0.1l0,0.3l-0.6,0.1L434.4,56.9z M432.1,57l0.6,0l0,0.3l-0.6,0L432.1,57z M431,57.1l0.6,0l0,0.3l-0.6,0L431,57.1z M429.8,57.1
			h0.6v0.3h-0.6V57.1z M428.7,57.1l0.6,0l0,0.3l-0.6,0L428.7,57.1z M427.5,57.1l0.6,0l0,0.3l-0.6,0L427.5,57.1z M426.4,57l0.6,0
			l0,0.3l-0.6,0L426.4,57z M424.1,56.8l0.6,0.1l0,0.3l-0.6-0.1L424.1,56.8z M423,56.6l0.6,0.1l0,0.3l-0.6-0.1L423,56.6z M421.9,56.4
			l0.6,0.1l0,0.3l-0.6-0.1L421.9,56.4z M420.7,56.2l0.6,0.1l-0.1,0.3l-0.6-0.1L420.7,56.2z M419.6,55.9l0.6,0.2l-0.1,0.3l-0.6-0.1
			L419.6,55.9z M418.5,55.6l0.6,0.2L419,56l-0.6-0.2L418.5,55.6z M436.4,127.1l0.6-0.1l0,0.3l-0.6,0.1L436.4,127.1z M435.2,127.2
			l0.6-0.1l0,0.3l-0.6,0.1L435.2,127.2z M431.8,127.5l0.6,0l0,0.3l-0.6,0L431.8,127.5z M430.7,127.6l0.6,0l0,0.3l-0.6,0L430.7,127.6
			z M429.5,127.6h0.6v0.3h-0.6V127.6z M428.4,127.6l0.6,0l0,0.3l-0.6,0L428.4,127.6z M427.2,127.5l0.6,0l0,0.3l-0.6,0L427.2,127.5z
			 M426.1,127.4l0.6,0l0,0.3l-0.6,0L426.1,127.4z M423.8,127.2l0.6,0.1l0,0.3l-0.6-0.1L423.8,127.2z M422.7,127l0.6,0.1l0,0.3
			l-0.6-0.1L422.7,127z M466.6,70.1l-0.2-0.6l0.3-0.1l0.2,0.6L466.6,70.1z M466.7,71.1l0-0.6l0.3,0l0,0.6L466.7,71.1z M466.6,72.2
			l0.1-0.6l0.3,0.1l-0.1,0.6L466.6,72.2z M466.1,73.2l0.3-0.5l0.2,0.1l-0.3,0.5L466.1,73.2z M393.3,73.2l0.3,0.5l-0.2,0.1l-0.3-0.5
			L393.3,73.2z M392.9,72.2l0.2,0.5l-0.3,0.1l-0.2-0.5L392.9,72.2z M392.7,71.1l0.1,0.6l-0.3,0l-0.1-0.6L392.7,71.1z M392.8,70
			l-0.1,0.6l-0.3,0l0.1-0.6L392.8,70z M393.2,69l-0.2,0.5l-0.3-0.1l0.2-0.5L393.2,69z M444,49.2l-0.5-0.3l0.1-0.2l0.5,0.3L444,49.2z
			 M444.9,49.9l-0.5-0.4l0.2-0.2l0.4,0.4L444.9,49.9z M446,51.7l-0.1-0.6l0.3-0.1l0.1,0.6L446,51.7z M445.8,52.6l0.2-0.5l0.3,0.1
			l-0.2,0.5L445.8,52.6z M444.2,54.1l0.5-0.3l0.2,0.2l-0.5,0.3L444.2,54.1z M443.2,54.7l0.5-0.3l0.1,0.2l-0.5,0.3L443.2,54.7z
			 M442.2,55.2l0.5-0.2l0.1,0.3l-0.5,0.2L442.2,55.2z M416.4,54.8l0.5,0.2l-0.1,0.3l-0.5-0.2L416.4,54.8z M415.4,54.3l0.5,0.3
			l-0.1,0.2l-0.5-0.3L415.4,54.3z M414.5,53.6l0.5,0.4l-0.2,0.2l-0.5-0.4L414.5,53.6z M413.4,51.8l0.1,0.6l-0.3,0.1l-0.1-0.6
			L413.4,51.8z M413.7,50.8l-0.2,0.5l-0.3-0.1l0.2-0.5L413.7,50.8z M415.2,49.3l-0.5,0.3l-0.2-0.2l0.5-0.3L415.2,49.3z M416.2,48.8
			l-0.5,0.3l-0.1-0.2l0.5-0.3L416.2,48.8z"/>
	</g>
	<radialGradient id="XMLID_818_" cx="432.363" cy="58.3357" r="53.5311" gradientUnits="userSpaceOnUse">
		<stop  offset="0" style="stop-color:#2C79BD"/>
		<stop  offset="0.6445" style="stop-color:#04579E"/>
		<stop  offset="0.7812" style="stop-color:#1E396C"/>
		<stop  offset="0.875" style="stop-color:#1E396C"/>
		<stop  offset="1" style="stop-color:#22346A"/>
	</radialGradient>
	<path id="XMLID_73_" fill-rule="evenodd" clip-rule="evenodd" fill="url(#XMLID_818_)" d="M468.9,74.5c-0.5-1.4-1-2.8-1.6-4.2
		c-0.2-0.4-0.5-0.8-0.8-1.2c-0.4-0.5-1.7-2.1-1.7-2.5c-0.1-0.1-0.2-0.2-0.3-0.3c0,0.1,0,0.2-0.1,0.3c-1.1,0.1-0.8,1.7-2.4,1.3
		c-0.4-0.1,0.6,4.2,0.6,4.4c0,1.1-1.8,5.8-0.6,6.6c0-0.3,0.9,4.4,0.9,4.4c0.4,0.3,0.9,1.9,1.4,2.5c0.6,0.7,0.9,1.6,1.5,2.3
		c1.1,1.5,0.6,0.1,1.9,0.1c1,0,0.6-0.9,1.6-1.1c0.5-0.1,0.3,1.4,0.6,1.1c0.4-0.5,0.3,2.3,0.2,2.6c-0.2,1.7-0.1,3.5-0.4,5.2
		c-0.9,5.1-3.3,10.5-6.2,14.8C470.8,100.6,472.7,86.5,468.9,74.5z M462,67.6c0.8-1.3-0.1-1.4-0.3-2.9c-0.1-0.5-0.8-2.1-0.6-2.2
		c0.1,0.1,0.3,0.2,0.4,0.2c0,0-0.3-1-0.2-0.9c1.3,0.8,2.8,2.6,3.5,4c-0.5-0.9-2.8-4.8-3.7-4.9c0.1,0,0.4,0.4,0.5,0.5
		c-0.1-0.1-0.1-0.2-0.2-0.2c0.3,0,0.9,1,1.2,1.3c-2-2.6-4.3-4.9-6.7-7c0.2,0.2,0.3,0.4,0.5,0.6c-0.2-0.2-0.5-0.4-0.7-0.5
		c0,0,0.2,0.4,0.1,0.3c-0.8-0.8-2-1.2-2.7-2c0.8,0.8,1.8,1.4,2.6,2.2c0,0,0,0-0.1,0c0.6,0.5-0.5-0.3,0.3,0.4
		c-0.6-0.1,0.3,0.8,0.6,1.1c0.2,0.2,0.6,1.6,0.6,1.7c-0.1-0.1-0.2-0.2-0.4-0.2c0,0,0.6,0.7,0.5,0.7c-0.1,0-0.8-0.1-0.5,0.3
		c0.9,0.3,1.8,1,2.5,1.7c0.1,0.3,0.9,1.1,0.8,1.3c-0.1,0.2-1.6,0-1.8,0c-0.3,0.1,1.8,3.3,1.9,3.5C460.4,66.7,461.7,68.1,462,67.6z
		 M464.6,65.8c-0.4-0.2,0.4,0.7,0.5,0.8c-0.2-0.2-0.4-0.8-0.6-1C464.6,65.6,464.7,65.8,464.6,65.8z M463.6,65
		c-0.1-0.3-0.8-1-0.8-1.2c0,0.5,0.8,1,0.9,1.4C463.7,65.2,463.6,65.1,463.6,65z M462.7,63.6c0-0.1-0.6-0.9-0.7-1
		C462.1,62.9,462.6,63.4,462.7,63.6z M462.5,64.7C462.6,64.8,462.7,64.8,462.5,64.7C462.5,64.6,462.5,64.6,462.5,64.7z M462.6,65
		c-0.3-0.5-0.3-0.1-0.2,0.1C462.6,65.3,462.8,65.3,462.6,65z M412.3,68.3c0-0.4,0.1-0.9-0.2-1c0,0.1-0.1,0.1-0.2,0.2
		c-0.4-0.8-0.9-1.1-0.1-1.9C412.7,66,412.3,68.3,412.3,68.3z M408.2,60.5c-0.4,0.2-2.7,2.5-3.1,1.8c0.2,0.4,0.9-1.4,0.9-1.4
		C406.7,60.8,408.1,60.5,408.2,60.5z M404.7,59.6c0.1,0,0.6-0.7,0.8-0.8c0.3-0.6-0.9,0.2-0.9,0.1c0-0.3,1.6-1,1.9-1.1
		c0.1,0.2-0.1,0.3-0.3,0.4c0.1,0,0.7-0.2,0.7-0.2c0.2,0.3-1.8,1.4-1.8,1.5c0.2-0.1,0.3-0.3,0.4-0.5
		C405.3,59.1,404.9,59.5,404.7,59.6z M415.4,70c1.5-1.2,1.5-1.6,3-1.2c0.8,0.2,0.8,1,1.7,1c0.3,0,2.5-0.2,2.1,0.8
		c-0.2,0.5-1.2-0.5-1.2-0.1c0,0.3,0.3,2.3-0.2,2.3c0.9,0.1,2.7-3,3.5-2.2c0.1,0.1-2.2,1.9-2.4,2.1c-1.8,1.1-1-0.5-1.9-1
		c-0.4-0.2,0.9-1.5-0.5-1.2c-0.8,0.1-1.1,1.3-1,2c0.4,3.2-1.9-0.7-0.9-1.1c0.5-1,0.7-0.7,1.5-1.2c0-0.2-1.7-0.2-2-0.2
		c0-0.1,0.1-0.2,0.1-0.3C417.4,69.6,414.4,70.9,415.4,70z M455.3,98c-1.1-0.4-3.2-1.6-4.3-0.6c0,0,0-0.1,0-0.1
		c-0.2,0.1-0.2,0.3-0.3,0.5c-0.3-1.2-2.5-1.5-2.3-0.5c-0.2-1-0.3-0.7-1.3-0.5c0.1,0.2,0,0.3-0.1,0.5c-0.4-0.3,0.1-1,0.3-1.2
		c0.2-0.3-0.4-1.3-0.5-1.7c-0.5-1.3-4-1.1-5-0.9c-0.2-0.7-1.5-1.4-1.9-0.8c0.6-0.9-1.1-1-1.1-1c0.1-0.1,0.2-0.2,0.3-0.3
		c0.1,0.1-3,0.6-3.1,0.7c-0.7,0.3-2-0.6-2.4-0.5c-0.7,0.4-0.2,2.1-0.3,2.2c-1.1,0.5-0.4-1.8-0.5-1.9c-0.3-0.9-3.7,3.1-3,3.3
		c-1.5-0.5-1.7,0.3-3.1,0.3c-1.3-0.1-1.4-1.1-2-1.5c-0.8-0.6,0.7-2.1-0.7-2.4c-0.8-0.2-2.6,0.8-3.1,0.5c-0.2-0.1,0.2-3.1,0.3-3.4
		c0.3-0.5-2-0.3-2.2,1.4c-1,2.9-4.9,0.4-5.1-2.2c-0.1-1.9-0.2-2.9,1.3-4.1c0.4-0.3,3.4-0.8,3.4-0.5c-0.1-0.4-0.6-0.7-0.9-0.7
		c0.4-1,2.9-0.2,3.5-0.5c1.6-0.8,1.6,1.2,2.6,1.9c2.4,1.8-0.4-3-0.4-3.5c0-1.1,2-3,2.4-3.4c0.1,0.1,0-3-0.4-2.9
		c0.2,0,0.5,1.2,0.4,1.2c0.4,0,0.5-2.5,0.6-2.6c0.3-0.1,0.8,0,0.9-0.3c-0.2,0.1-0.4,0.1-0.6,0c0.1-0.2,2-1,1.8-1.1
		c-1.9-0.7,1.4-2.3,1.2-2.7c0.1-0.1,1.3-0.9,1.4-0.9c-0.1,0,0.6,0.6,0.6,0.3c0,0.3-1,0.4-1.1,0.9c-0.2,0.8,0.6,0.4,0.8,0
		c0-0.1,2.5-1.9,2.3-1.9c-0.2-0.1-0.7-0.5-0.6-0.5c-0.2,0.1-1.8,2.3-2.4,0.7c0-0.1,0-0.1,0-0.2c0,0.1-0.2-0.6-0.1-0.5
		c0-0.1-0.6,0.1-0.8,0c0.4,0.2,0.7-0.9,0.8-0.9c-1-0.8-3.2,1.4-3.3,2.1c0.1-0.2,0.2-0.4,0.3-0.7c-0.2-0.3,1-1.6,1.6-2
		c0.7-0.5,1.7-0.6,2.5-0.7c1.2-0.1,0.7-0.5,1.5-1.1c0.4-0.3,1.7-1.5,0.3-1.8c-0.8-0.2-1,0.4-1.9,0.5c-0.2-0.3,0.7-0.7,0.8-0.8
		c0.3-0.2-1.1-0.2-1.1-0.2c-0.1-0.4-0.4,0.1-0.5,0c0,0-1-1.3-1.1-1.3c0,0-0.1-0.1-0.1-0.1c-0.1,0-0.1,0-0.2-0.1c0,0,0-0.1,0-0.1
		c-0.2-0.2-0.5-0.3-0.7-0.4c0.1-0.2-1.2-1.1-1.3-1.1c-0.1,0-0.2,1.2-0.4,1.3c-0.7,0.5-0.7,0.2-1.5,0.3c-0.1-0.3-0.1-0.7-0.5-0.6
		c0-0.1,0.3-0.6,0.1-0.8c-0.2-0.2-1.3-0.2-1.7-0.3c0-0.3-2.3,0.2-2.4,0.4c0.1-0.1,0.6,2.8,0.2,2.6c0.5,0.4,1.3,0.4,1.1,1.4
		c-0.1,0.7-1.7,1.4-1,1.8c0.3,0.2,0.5,2,0.5,2c0,0-1.9-0.1-1.6-0.5c-0.4-0.6-0.5-2-1.2-1.8c-1.7,0.4-2.9-0.8-4.6-0.3
		c-0.2-1.4-1-0.9-0.9-2c-0.4-0.7,2-2.5,1.9-2.7c-0.1,0-0.2-0.1-0.3-0.3c0.7,0,1.6-0.8,1.9-1.4c0.1-0.2-1,0.1-1-0.3
		c0,0.3,1.3-0.3,1.3-0.7c0-0.3,0.7,0,0.8-0.1c0,0.1,0.5-0.5-0.1-0.4c1.7-0.2,0.5-0.8,1.1-1.6c0.2-0.3-0.8-0.3-0.9-0.3
		c-0.4,0.1-0.2,1.3-0.7,1.3c0-0.1,0-0.2-0.1-0.2c0.1-0.1-0.3,1-0.4,0.8c-0.1-0.3-0.4-0.4,0-0.7c-0.3-0.8-0.4-0.3-0.8,0.1
		c-0.2,0.2-0.1-0.5,0-0.6c-0.1,0-0.6,0-0.7,0c0-0.1,0.4-0.4,0.4-0.4c0-0.2-0.4-0.8-0.5-0.8c0.1,0,0.3-0.5,0.3-0.6
		c0.1-0.1,1.2-0.4,1.1-0.8c-0.1-1-2.1,1.9-1.9,1.7c0,0.1-0.5,0.5-0.4,0.6c-0.1-0.2,0.6,1.1,0.6,0.6c0-0.2-0.4,0.8-0.1,0.3
		c0,0-0.8,1.3-0.8,1.3c-0.2,0.1-0.1-1.2-0.8-0.5c-0.3,0.3,0.6,0.1,0.3,0.3c-0.2,0-0.3,0-0.5-0.1c-0.3,0.6-1.4,0.3-1.9,0.3
		c-0.3,0-1.1,0.3-0.9,0.3c0-0.2,0.7-0.4,0.7-0.4c0,0.1-1.5,1.2-1.2,1.5c-0.2-0.2,0.3-0.6-0.1-0.7c-0.2,0-1.8,0.4-1.7,0.3
		c0-0.1,0.6-1.3,0.1-0.6c-0.7,0.2-1-0.8-1.7,0c0,0,0.3-0.4,0.3-0.4c0,0-0.6,0.6-0.6,0.5c0-0.1,0.3-0.8,0.3-0.8
		c-0.1,0-0.9,0.7-0.9,0.7c0,0-0.9,0.4-1,0.5c0.2-0.2,0.9-0.8,1.2-0.9c-0.5,0.1-0.9,0.7-1.4,0.8c0.5-0.5-0.5,0.2-0.6,0.3
		c0,0,0,0.2-0.1,0.2c-0.2-0.1-0.3-0.2-0.1-0.4c0-0.1-0.1,0-0.2,0c0,0-0.5-0.3-0.5-0.2c0,0,0-0.1,0.1-0.2c0-0.1-0.2,0-0.3,0.1
		c-0.1,0,0.3-0.3,0.3-0.3c-0.3,0.4-0.1-0.2,0-0.1c0,0.1,0,0.1-0.1,0.1c0,0,0-0.1,0.2-0.3c-0.1,0.2-0.5,0.5-0.7,0.5
		c-0.6,0.1-3.6,3.1-3.4,3.4c0,0-0.2,0.2-0.2,0.2c0-0.1,0-0.1,0.1-0.1c-0.6,0.3-1.2,1.2-1.5,1.7c0,0,0.1,0,0,0.1c0,0,0.1-0.1,0.1-0.1
		c-0.1,0.1-0.1,0.1-0.1,0.1c0,0,0.2-0.3,0.3-0.3c-0.6,0.1-2.6,3.1-2.7,3.6c0,0,0.1-0.2,0.1-0.2c-0.1,0.3-0.4,0.6-0.5,0.9
		c0.1-0.2,0.4-0.5,0.5-0.7c-0.4,0.5-0.7,1.1-1,1.7c0,0.1,0.2-0.3,0.2-0.2c0,0,0,0,0,0c0,0-0.2,0.4-0.1,0.3c0.2-0.3,0.1-0.3,0.3-0.3
		c-0.7,1.3-1.6,2.6-2.4,3.8c0.2-0.3,0.4-0.6,0.6-0.9c0.1-0.1,0,0,0,0.1c1.2-1.4,2.4-4.5,4.1-5.4c-0.1,0.1-0.2,0.3-0.3,0.4
		c-0.1,0-0.1,0-0.2,0c-0.3,0.2-0.7,0.8-0.7,1.1c-0.1,0.1-0.2,0.2-0.3,0.3c0,0.3,1.4-1.7,1.4-1.7c0.2,0,0,0.5,0.2,0.7
		c0,0,0.9,0.1,0.9,0c0,0.1-0.3,1.3,0,1.2c0.1-0.2,0.2-0.3,0.3-0.4c0,0.1,0,0.2,0,0.3c0.1-0.1,0.2-0.3,0.3-0.5c-0.1,0-0.1,3.9,0,4.2
		c-0.1-0.6,0.5,0.4,0.3,0.6c-0.1,1,1.7,1.9,1.2,2.6c0.1-0.2-1.2-1.6-1.6-1.5c-0.2,0.1-0.1,0.6,0.1,0.6c0.1,0,0.3,0,0.3,0.2
		c0,0-0.1,0.1-0.1,0c-0.1,0.3,0.5,0.3,0.6,0.4c-0.4,0.5-0.2,3-0.3,3.8c0,0,0,0,0-0.1c-0.2,1.9-0.6,3.3,0.6,4.4
		c-0.1,0.4,0,2.3,0.8,2.5c1.1,0.3,3.2,4.3,3.5,4.2c-0.2,0-0.3,0-0.4,0.1c0.4-0.5,3,3,3.3,2.7c0.2-0.2-4.3-5.3-3.6-5.6
		c1.2-0.4,1.7,2.9,2.5,2.3c0.6,0.4,0.8,1.4,1.4,1.6c0.9,0.3,1.9,1.5,2.3,2.3c0.4,0.9-0.1,1.3,1.4,1.6c1.4,0.3,3.4,1.4,4.8,1
		c0.9-0.3,1.2-0.9,2.2-0.3c1,0.7,2.4,0.8,3.5,0.6c1-0.1,2.1,2,2.4,1.9c0.8-0.2,1.2,0.4,2,0.4c0.4,0,1.4,0.6,1.7,0.4
		c0.4-0.2-0.3-0.5,0.1-0.9c0.9-0.8,1.4,0.1,1.8,1c1,2.2-0.6,2.9-0.9,4.8c-0.1,0.9,0.8,0.8,0.8,1.3c0.1,0.8-0.6,1.1-0.3,2
		c0,0,1.9,1.2,2.1,1.4c0.7,0.7,1.5,2.1,2.1,2.7c1.3,1.1,3.6,0.6,4,2.6c0.3,1.4,0.4,3.1,0.2,4.6c-0.2,1.4,0.6,2.7-0.2,4.1
		c-0.2,0.3,0.7,2.3,0.5,2.5c0.1-0.1,0-0.9,0.2-0.7c0.8,0.4-0.4,1.9-0.5,2c-0.1,0.2,0.3-0.1,0.4,0.1c0,0,0.8,3.8,2.1,2
		c0.2-0.2-1.2-0.4-0.5-0.6c0-0.5,0.7-2.7,0.9-2.7c0,0,0.4-0.9,0.3-0.9c-0.1-0.4,0.6,0.2,0.4-0.3c0.1,0.1-1-0.3-0.4-0.5
		c0.5-0.2,1.2,0,0.9-1c0.4-0.6,1.5-0.4,1.9-1.1c0.2-0.4,0-1.8-0.3-1.5c0.5-0.5,1.4,0.2,2.1-0.7c0.1-0.2,1-2.2,1.3-2
		c0.2-0.6-0.5,0.8-0.3,0.7c0.6-0.3,1.4-1.9,1.5-2.6c0.2-1.3,1.2-2.3,2.4-2.9c2.7-1.3,2.2-4,3.2-6.5C454.3,103.2,456.6,98.5,455.3,98
		z M414.4,54.7c0-0.6-0.5-0.2-0.6-0.1c0,0,0,0-0.1,0c0-0.1-0.4,0.4-0.4,0.4c0.3,0.2,1.5,0,1.1-0.2C414.5,54.8,414.5,54.5,414.4,54.7
		z M420.3,64.7c0.2,0.1,0.4,0.1,0.6,0C420.9,64.2,420.1,64.6,420.3,64.7z M430.3,64.7c0.2,0.4,1.4,0.4,1.7,0.2
		C431.7,64.4,430.7,64.6,430.3,64.7z M436.9,64.6c-0.4,0.6,0-0.4,0-0.4c0-0.3-2.4-0.6-2.4-0.5c0,0,0.1-1.1,0-1.1
		c0,0,0.1-0.2,0.1-0.2c-0.4,0-1.2,1.4-0.7,1.6c-0.7,2,0.4,0.9,1.9,1c0.3,0-0.3,0.5-0.1,0.5c0.4,0.1,0.4-0.6,0.8-0.5
		c0.2,0,0.4,0.2,0.8,0.3C438,65.6,437.1,64.3,436.9,64.6z M435.2,86.8c0,0-1.1,0.2-0.6,0.4C435.1,87.5,436,86.7,435.2,86.8z
		 M427.3,88.7c-0.1,0.4,1.3,0.2,1.2,0C428.4,88.4,427.3,88.3,427.3,88.7z M430.8,87.8c-0.4-0.1-0.7,0-1,0.1c0.3-0.2,2.9-0.2,3.8-0.6
		c0,0-2.7-1.3-3.3-0.3C430.3,87.1,431.6,87.6,430.8,87.8z M429.1,86.7c-0.9,0-2.2-0.6-3.1-0.7c-1-0.2-1.4-0.1-2.3,0.2
		c0,0-1.6,1-0.9,0.9c0.6-0.1,1-1.1,1.6-0.7c0,0-0.1,0.1-0.1,0.1c0.7,0.3,2.9-0.3,3.4,0.5c-0.7,0.8,1.8,0,2,0
		C429.7,86.7,429.3,86.7,429.1,86.7z M439.7,91.1c-0.2-0.2-0.4,0.4-0.3,0.4C439.4,91.8,440,91.3,439.7,91.1z M398.1,69.1
		c-0.1,0.1-0.2,0.3-0.3,0.3c0,0,0.1-0.2,0.1-0.2c-0.1-0.3-0.2,1.1-0.2,1.3C397.8,70.5,397.8,69.2,398.1,69.1z M398.4,67.1
		c0,0-0.5,1-0.2,1.3C398.2,68.5,398.4,67.4,398.4,67.1z M398.6,65.9c-0.1,0.1-0.4,0.7-0.4,0.7c0.2-0.2,0.2-0.5,0.1-0.7
		c-0.2-0.1-0.5,1.4-0.4,1.5C398,67.3,398.9,66,398.6,65.9z M395,66.5c-0.5,0.6-0.4,0.7-0.8,1.3c0.1-0.1,0.5-0.9,0.6-0.9
		c0.1-0.1,0.3-0.3,0.3-0.4C395.1,66.4,395.1,66.4,395,66.5z M420.5,58.2c0.1-0.3-0.2-0.6-0.4-0.2C420.1,58.2,420.4,58.5,420.5,58.2z
		 M419.2,57.7c-0.1,0.1-0.8,0.3-0.6,0.6C418.9,58.8,419.5,57.4,419.2,57.7z M420,56.9c-0.1-0.1-2-0.9-2.2-0.8
		c-0.1,0-0.6,1.5-0.6,1.6c0,0.2,0.6-0.4,0.6,0.2C418,57.8,419.8,56.5,420,56.9z M417.3,48.8C418.2,48.9,417,48.4,417.3,48.8
		C417.4,48.7,417.3,48.7,417.3,48.8z M414.2,51.4c0.2-0.1,0.3-0.4,0-0.2C414,51.5,414.1,51.5,414.2,51.4z M415.3,51.7
		c-0.1,0,0.1-0.1,0-0.2c0,0-0.3,0.1-0.4,0.2c-0.1,0.1-0.2,0-0.3,0.1c0,0.1-0.4,0.3-0.4,0.3c0-0.1,0,0.4-0.1,0.4
		c-0.1,0.3-0.3,0-0.4,0c-0.2,0,0,1.4,0.6,0.6c0.2,0.6,1.2-1.7,0.6-0.8c-0.1-0.1-0.1-0.1-0.3,0C414.8,52.4,415.4,51.7,415.3,51.7z
		 M415.1,50.7C415.2,50.7,415.2,50.7,415.1,50.7c0,0,0,0.1,0,0.2c-0.1,0,0-0.5,0-0.4c0-0.4-0.3,0.3-0.2,0.2c-0.2,0.1-0.2,0.2,0,0.2
		c0,0-0.1,0.1-0.1,0.1c0,0,0.1,0,0.1-0.1c-0.3,0.3,0.5-0.1,0.5-0.1c0,0-0.4,0.3-0.3,0.2c-0.1,0.2-0.1,0.2,0.1,0.1
		c0.1,0,0.2,0,0.3-0.1c0,0,0.1-0.1,0.1-0.1c0.1-0.2,0.5-0.4,0.4-0.7c0,0,0,0-0.1,0c-0.2,0.1-0.4,0.2-0.5,0.3c0,0,0.1,0,0,0.1
		C415.4,50.5,415.4,50.5,415.1,50.7z M416.5,50.6c-0.3,0.1-0.7,0.3-0.5,0.5C416.3,51.6,416.7,50.5,416.5,50.6z M417.3,49.6
		c0,0,0.1-0.1,0.1-0.1c-0.2,0-0.4,0.1-0.5,0.2C416.8,49.7,417.3,49.5,417.3,49.6z M416.9,49.5c0.1,0,0.2-0.1,0.3-0.2
		C417.4,49.2,417,49.1,416.9,49.5c-0.1,0-0.1-0.1-0.1,0C416.7,49.6,416.9,49.5,416.9,49.5z M417.9,49.4c-0.1-0.2,0,0.1,0,0.1
		S417.9,49.5,417.9,49.4z M417.4,49.9c-0.1,0-1.1,0-0.9,0.3c0.4,0.7,0.7,0.8,1.8,0.6c0.3,0,2.1-0.7,1.3-0.9c0,0-0.1,0-0.1,0
		c-0.6,0.1-1.2,0.4-1.8,0.5c0,0,0-0.1,0-0.1c-0.1,0-0.2,0.1-0.4-0.1C417.4,50.2,418,49.8,417.4,49.9z M415.1,50.2
		c0.1,0.1-0.1-0.1-0.1-0.1C415,50.1,415,50.1,415.1,50.2z M415.9,49.6c0,0,0.3-0.1,0.4,0c0.1,0.2,0.4-0.3,0.4-0.3c0,0,0,0,0,0
		s0-0.4-0.1-0.1c0,0-0.2-0.1,0-0.2c-0.2,0-0.3,0.1-0.4,0.2c0,0,0.1,0,0,0c-0.1,0-0.1,0.1-0.1,0.1s0.2-0.2,0.1,0
		C416.1,49.4,415.7,49.6,415.9,49.6z M414.7,49.8c0.2,0,0.5,0,0.6-0.3C415.3,49.5,414.5,49.9,414.7,49.8z M414.4,50.3
		c0.2,0,0.2-0.1,0.2-0.2C415.6,49.4,413.3,50.7,414.4,50.3z M413.7,51c0,0.1-0.4,0.4-0.5,0.4c-0.1,0-0.1-0.1-0.1-0.1s0,0,0,0
		c0.1-0.2,0-0.3,0-0.3c-0.1,0-0.2,0.1-0.3,0.2c0,0-0.6,0.2-0.3,0.2c-0.3,0.2-0.2,0.3-0.7,0.5c0.1-0.1,0.2-0.1,0.1,0
		c-0.1-0.1,0.8-0.3,0.8-0.3c0.2-0.1-0.7,0.3-0.7,0.5c0,0.1,1.5-0.6,1.6-0.6c0.2,0.1,1-0.6,0.9-0.7c-0.1-0.1-0.4,0.3-0.5,0.2
		c0.2-0.1,0.2-0.1,0-0.1c0,0,0.4-0.4,0.4-0.4C414.1,50.5,413.7,50.9,413.7,51z M412.2,51.4c-0.2,0.1-0.4,0.2-0.6,0.4
		C411.7,51.7,412.1,51.4,412.2,51.4z M411.6,51.6C411.6,51.5,411.6,51.5,411.6,51.6c0.1,0,0.7-0.4,1.2-0.6c-0.1,0.1-0.3,0.3-0.3,0.3
		c0.1,0.1,1.2-0.9,1.2-0.9C413.5,50.2,411.3,51.6,411.6,51.6z M410.2,53.5c-0.4,0.3-0.8,0.9-0.8,0.9l-0.2,0.1c0,0,0.6-0.2,0.3,0
		c-0.3,0.1-0.5,0.2-0.6,0.4c-0.1,0.2,1.4-0.4,1.2,0c-0.1,0.1-2,0.7-1.6,0.9c0.1,0.1,0.6-0.1,0.6,0c-0.1,0.1-0.1,0.3,0,0.5
		c0.8,0.3,2.9-1.6,3.5-1.3c-0.1,0-0.3,0-0.4,0.1c-0.1,0,1-0.5,0.9-0.7c-0.1-0.2-1.1-2.2,0.2-2.2c-0.2,0-1.7,1.3-1.6,1.5
		c-0.1-0.2,0.7-0.9,0-0.7c-0.2,0.2-0.1,0.4-0.5,0.4c0.2-0.1,0.3-0.2,0.2-0.4c-0.3,0-0.5,0.4-0.8,0.4c0,0,0.5-0.6,0.4-0.5
		C410.8,53.2,410.5,53.3,410.2,53.5z M408.1,54.5c-0.1,0.2-0.1,0.3-0.2,0.5c-0.1-0.4,3.3-1.6,3.1-2.4c0,0.1-0.9,0-1.1,0.2
		c-0.3,0-1.8,1.5-2,1.8C407.9,54.6,408.1,54.4,408.1,54.5z M421.5,53.6c-0.6-0.2-0.8,0.8-0.2,0.7C421.6,54.2,421.9,53.7,421.5,53.6z
		 M419.7,51.2c0.1,0.2,1.1-0.1,1-0.3c-0.5-0.5-1.3,0.1-1.1,0.1C419.7,51.1,419.7,51.2,419.7,51.2z M426.8,54.1
		c1.3,0.1-0.7-0.9-0.7-1c-0.8-0.4-1.5,0-2.1-0.7c-0.3,0.1,0.9-0.1,0.3-0.2c-0.2,0-1.5-1.1-2.1-0.8c-0.4,0.1-0.4,0.3-0.8,0.1
		c0.2-0.2,0.2-0.2-0.2-0.2c0-0.4-0.9-0.3-1.1,0c0,0.1-0.6,0.2-0.6,0.3c0-0.2,0-0.3,0-0.5c-1.1-1.2-1.6,1.4-1.2,1.2
		c-0.7,0.3-0.4-1.4,0-1.3c-0.6,0-1.6,0.9-1.5,1.6c0,0.2,0.5,0,0.6,0.1c0.2,0.2-0.8,0.2-0.5,0.4c0.3,0.3,1.9,0.1,2.3-0.1
		c-0.1-0.5,1.6-0.3,1.8,0.2c0.1,0.3,2.9-0.3,1.4,1.1c0,0-1,1.9-1.3,1.3c-0.5,0.3,2.7,0.6,2.6,0.6c0.4,0.4,2.9,0.6,2.9,0.3
		c0-0.2-1.5-0.9-1.5-0.9c0.5,0.1,1.6,0.7,2.1,0.4c-0.1-0.1-0.2-0.1-0.4-0.2c0.1-0.1,0.1-0.2,0-0.3c0.5,0-2-1.4-2-1.4
		c0.7-0.1,0-0.3,0.2-0.4c0.3,0.1,0.6,0.1,0.9,0.1c0.1,0.5,1,0.4,1,0.4C426.6,54.2,426.4,54.1,426.8,54.1z M418.9,48
		C418.9,48,418.9,48,418.9,48c-0.1,0.1,0.5,0,0.6,0c0.1-0.1,0.5-0.1,0.5-0.2c-0.1,0.2-0.4,0.2-0.5,0.3c0,0-0.6,0.2-0.5,0.3
		c0,0,0.1,0.2,0.1,0.2c-0.1,0.1-1.1,0.5-0.4,0.4c0,0.1,0,0.2-0.1,0.2c-0.1-0.1-0.8,0.4-0.8,0.6c-0.1,0.3,2.9-0.5,2.1-0.6
		c0-0.1,0-0.1,0-0.2c0.2,0,0.2-0.1,0.2-0.3c0.3,0,0.6-0.2,0.4-0.5c0.1,0,0.2,0,0.1-0.1c0.2,0,0.2-0.1,0.1-0.2c0,0,0.4-0.3,0.4-0.2
		c0,0,0.1,0,0.1,0c0.1-0.1,0.2-0.2,0.3-0.4c-0.1,0-0.2,0-0.2,0c0,0,0,0,0,0c0.1,0,0.2,0,0.2-0.1c0-0.2-0.5,0-0.6,0c0,0,0,0,0,0
		c0,0-0.3,0-0.2,0.1c0,0-0.1,0-0.1,0c0,0-0.2,0.1-0.3,0.1c0,0-0.1,0-0.1,0c0,0,0,0,0,0c-0.1,0.1-0.2,0-0.2,0.2c-0.1,0,0,0-0.1,0
		c-0.1,0-0.2,0-0.3,0.1c0,0,0,0,0,0c0,0-0.8,0.2-0.5,0.2C419,47.9,419,47.9,418.9,48c0-0.1,0.1-0.1,0.1-0.1
		C419,47.9,419,47.9,418.9,48z M418,48.8c-0.1,0-0.2,0.1-0.3,0.3c0,0.1,0.5,0.2,0.5,0c0.2-0.1,1-0.4,0.7-0.6c0,0-0.1-0.4,0-0.5
		c-0.2,0.2-0.9,0.4-1,0.7C417.4,48.9,418.3,48.6,418,48.8z M456.1,57.6c0.2-0.3-1.5-1.2-1.7-1.3c0,0,0.1,0,0.1,0
		c-0.6-0.6-1.5-0.9-2.3-1.2c0-0.1,0-0.1,0-0.1c-0.3-0.2-1.2-0.7-1.4-0.8c0,0,0,0,0,0c-0.1,0-0.1-0.1-0.2-0.1c0-0.1-0.3-0.6-0.4-0.4
		c-0.1,0-0.2,0-0.2,0.1c0.3,0.3,0.4,0.5,0.3,0.6c0,0,1.8,1.3,1.7,1.2c-0.1-0.1-0.2-0.2-0.3-0.3c-0.1-0.1,1.1,0.8,1.1,0.6
		c0-0.1,1.2,0.7,1.1,0.9c0,0.1-0.1,0.1,0,0.3c0.7,0.3,0.5,0.7,1.3,0.7c0.3,0.3-0.2,0.6,0.3,1.1c-0.1,0,0.6-0.7,0.7-0.8
		C456.5,57.9,456.1,57.6,456.1,57.6z M449.9,54c0,0,0.3,0.2,0.4,0.2c-0.1-0.1-0.1-0.3-0.4-0.4C449.8,53.8,449.9,53.9,449.9,54z
		 M453,56.3c0-0.4-0.8-0.6-1.2-0.6c-0.2,0,0.1,0.4,0.1,0.5c0,0,0.1,0,0.1,0c0.1,0.1,0.1,0.2,0,0.2c-0.2,0.6,1.1,0.6,1,1.3
		c0,0-0.1,0,0,0.1c0.3,0.2,1.2,0.1,0.9-0.3C453.8,57.3,453,56.5,453,56.3z M439.8,50.6c0.5,0.1,0,0,0.2,0.3c0.2,0.4,0.4,0,0.8,0.1
		c0,0,0,0.1,0,0.1c0.1,0,0.2,0,0.3,0.1c-0.2,0-0.3,0.1-0.3,0.3c0.3,0.3,2.6,0.7,2.7,0c0.1-0.9-1.5-1.4-2.2-1.3
		c0.1,0.1,0.2,0.1,0.3,0.2c0,0-0.1,0.1-0.3,0.1c0,0,0.3,0.3,0.3,0.2c-0.4-0.2-0.5,0.2-0.7,0c-0.2-0.2,0.5,0.4,0.2,0.4
		C440.6,50.8,440.2,50.6,439.8,50.6C439.8,50.6,439.5,50.5,439.8,50.6z M428,51c0.1,0.2,0.2,0.2,0.4,0.2c0.3,0.1,0.5,0.1,0.7-0.1
		C429.1,50.9,427.7,50.6,428,51z M421.5,47.6c0.1,0,0.2,0,0.3,0c0.5,0.4-0.7,0.4-0.8,0.8c0.1,0.1,0.3,0.2,0.5,0.1c0,0,0,0,0,0.1
		c-0.3,0,0.9-0.2,0.8-0.1c0,0.1-1,0.3-0.8,0.4c0,0,0.6,0,0.6,0c-0.1,0.2-0.3,0.2,0.3,0.2c1,0,1.7-0.4,2.9,0c0.8,0.2,1.3,1.1,1.8,1.3
		c0.6,0.2,1-0.5,1.7,0.1c-0.1,0.1-0.8-0.2-1,0c0.1-0.1,1.8,0.4,1.9,0.8c-0.1-0.2-0.9,1.5,0.2,1.1c2,0.9,4.1,4,7,3.3
		c0.3-0.1-2.3-3.6-1.3-4c0.9-0.5,1.1-0.3,0-1.5c0.6,0.7,1.6-0.5,1.3-1.2c0.1,0.2-1.9-0.4-1.9-0.4c0.1,0,1.4,0.2,1.3,0.1
		c-0.2-0.4-3.1-1-3.2-0.9c0.1-0.1,0.7,0,0.7-0.2c-0.2-0.1-0.4-0.2-0.6-0.2c0.1-0.3-2.8-0.5-2.6-0.7c0,0-0.9-0.1-1-0.1
		c0,0-0.4-0.2-0.5,0c-0.2,0.2-1.9-0.5-2-0.2c0.1-0.1-0.4,0-0.4,0c0.1,0,0.1,0,0.2,0c-0.1,0-0.3,0-0.4,0c0.1,0,0.1,0,0.2-0.1
		c-0.2,0-0.5,0-0.7,0c0,0-0.1,0-0.1,0c0,0,0.2,0,0.1-0.1c-0.3-0.1-1.2,0-1.4,0.1c0.2,0,0.7,0.1,0.3,0c0.1,0,0.6,0,0.7,0
		c-0.5,0-1-0.1-1.5,0c0.1,0,0.8,0,0.4,0c-0.2,0-0.4,0-0.6,0c0,0,0,0,0,0c0,0,0,0-0.1,0c-0.1,0-0.2,0-0.3,0c0-0.1-1.5,0.2-1.6,0.2
		c0.2,0,0,0,0,0c-0.1,0-0.1,0-0.1,0c0,0,0,0,0,0c0,0,0,0,0,0c0.1-0.1,0.2,0,0.2,0c-0.1,0,1,0,0.7,0c-0.2,0-0.6,0.1-0.8,0.1
		c0.1,0,0.2,0,0.4,0c0.1,0,0,0-0.1,0c0,0,0.1,0,0.2,0c-0.1,0-0.4,0-0.5,0c0,0,0.5,0,0.3,0.1c-0.2,0-0.3,0-0.5,0c0,0,0.1,0,0.1,0
		c-0.1,0-0.2,0-0.2,0.1c0.1,0,0.2,0,0.3,0c-0.1,0-0.2,0-0.4,0c0,0,0,0,0,0c0,0,0.1,0,0.2,0c0,0,0,0,0,0c0,0,0.1,0,0.1,0
		c-0.1,0-0.2,0-0.2,0.1c0,0,0.1,0,0.2,0.1c-0.2,0-0.4,0-0.4,0.2C421.5,47.7,421.5,47.7,421.5,47.6z"/>
	<g id="XMLID_13_">
		<defs>
			<path id="XMLID_14_" d="M468.9,74.2c-0.5-1.4-1-2.8-1.6-4.2c-0.2-0.4-0.5-0.8-0.8-1.2c-0.4-0.5-1.7-2.1-1.7-2.5
				c-0.1-0.1-0.2-0.2-0.3-0.3c0,0.1,0,0.2-0.1,0.3c-1.1,0.1-0.8,1.7-2.4,1.3c-0.4-0.1,0.6,4.2,0.6,4.4c0,1.1-1.8,5.8-0.6,6.6
				c0-0.3,0.9,4.4,0.9,4.4c0.4,0.3,0.9,1.9,1.4,2.5c0.6,0.7,0.9,1.6,1.5,2.3c1.1,1.5,0.6,0.1,1.9,0.1c1,0,0.6-0.9,1.6-1.2
				c0.5-0.1,0.3,1.4,0.6,1.1c0.4-0.5,0.3,2.3,0.2,2.6c-0.2,1.7-0.1,3.5-0.4,5.2c-0.9,5.1-3.3,10.5-6.2,14.8
				C470.8,100.2,472.7,86.2,468.9,74.2z M462,67.2c0.8-1.3-0.1-1.4-0.3-2.9c-0.1-0.5-0.8-2.1-0.6-2.2c0.1,0.1,0.3,0.2,0.4,0.2
				c0,0-0.3-1-0.2-0.9c1.3,0.8,2.8,2.6,3.5,4c-0.5-0.9-2.8-4.8-3.7-4.9c0.1,0,0.4,0.4,0.5,0.5c-0.1-0.1-0.1-0.2-0.2-0.2
				c0.3,0,0.9,1,1.2,1.3c-2-2.6-4.3-4.9-6.7-7c0.2,0.2,0.3,0.4,0.5,0.6c-0.2-0.2-0.5-0.4-0.7-0.5c0,0,0.2,0.4,0.1,0.3
				c-0.8-0.8-2-1.2-2.7-2c0.8,0.8,1.8,1.4,2.6,2.2c0,0,0,0-0.1,0c0.6,0.5-0.5-0.3,0.3,0.4c-0.6-0.1,0.3,0.8,0.6,1.1
				c0.2,0.2,0.6,1.6,0.6,1.7c-0.1-0.1-0.2-0.2-0.4-0.2c0,0,0.6,0.7,0.5,0.7c-0.1,0-0.8-0.1-0.5,0.3c0.9,0.3,1.8,1,2.5,1.7
				c0.1,0.3,0.9,1.1,0.8,1.3c-0.1,0.2-1.6,0-1.8,0c-0.3,0.1,1.8,3.3,1.9,3.5C460.4,66.3,461.7,67.7,462,67.2z M464.6,65.4
				c-0.4-0.2,0.4,0.7,0.5,0.8c-0.2-0.2-0.4-0.8-0.6-1C464.6,65.3,464.7,65.4,464.6,65.4z M463.6,64.7c-0.1-0.3-0.8-1-0.8-1.2
				c0,0.5,0.8,1,0.9,1.4C463.7,64.8,463.6,64.7,463.6,64.7z M462.7,63.2c0-0.1-0.6-0.9-0.7-1C462.1,62.5,462.6,63.1,462.7,63.2z
				 M462.5,64.4C462.6,64.5,462.7,64.4,462.5,64.4C462.5,64.3,462.5,64.3,462.5,64.4z M462.6,64.6c-0.3-0.5-0.3-0.1-0.2,0.1
				C462.6,64.9,462.8,64.9,462.6,64.6z M412.3,68c0-0.4,0.1-0.9-0.2-1c0,0.1-0.1,0.1-0.2,0.2c-0.4-0.8-0.9-1.1-0.1-1.9
				C412.7,65.6,412.3,68,412.3,68z M408.2,60.1c-0.4,0.2-2.7,2.5-3.1,1.8c0.2,0.4,0.9-1.4,0.9-1.4C406.7,60.4,408.1,60.2,408.2,60.1
				z M404.7,59.2c0.1,0,0.6-0.7,0.8-0.7c0.3-0.6-0.9,0.2-0.9,0.1c0-0.3,1.6-1,1.9-1.1c0.1,0.2-0.1,0.3-0.3,0.4
				c0.1,0,0.7-0.2,0.7-0.2c0.2,0.3-1.8,1.4-1.8,1.5c0.2-0.1,0.3-0.3,0.4-0.5C405.3,58.7,404.9,59.2,404.7,59.2z M415.4,69.6
				c1.5-1.2,1.5-1.6,3-1.2c0.8,0.2,0.8,1,1.7,1c0.3,0,2.5-0.2,2.1,0.8c-0.2,0.5-1.2-0.5-1.2-0.1c0,0.3,0.3,2.3-0.2,2.3
				c0.9,0.1,2.7-3,3.5-2.2c0.1,0.1-2.2,1.9-2.4,2.1c-1.8,1.1-1-0.5-1.9-1c-0.4-0.2,0.9-1.5-0.5-1.2c-0.8,0.1-1.1,1.3-1,2
				c0.4,3.2-1.9-0.7-0.9-1.1c0.5-1,0.7-0.7,1.5-1.2c0-0.2-1.7-0.2-2-0.2c0-0.1,0.1-0.2,0.1-0.3C417.4,69.3,414.4,70.5,415.4,69.6z
				 M455.3,97.6c-1.1-0.4-3.2-1.6-4.3-0.6c0,0,0-0.1,0-0.1c-0.2,0.1-0.2,0.3-0.3,0.5c-0.3-1.2-2.5-1.5-2.3-0.5
				c-0.2-1-0.3-0.7-1.3-0.5c0.1,0.2,0,0.3-0.1,0.5c-0.4-0.3,0.1-1,0.3-1.2c0.2-0.3-0.4-1.3-0.5-1.7c-0.5-1.3-4-1.1-5-0.9
				c-0.2-0.7-1.5-1.4-1.9-0.8c0.6-0.9-1.1-1-1.1-1c0.1-0.1,0.2-0.2,0.3-0.3c0.1,0.1-3,0.6-3.1,0.7c-0.7,0.4-2-0.6-2.4-0.4
				c-0.7,0.4-0.2,2.1-0.3,2.2c-1.1,0.5-0.4-1.8-0.5-1.9c-0.3-0.9-3.7,3.1-3,3.3c-1.5-0.5-1.7,0.3-3.1,0.3c-1.3-0.1-1.4-1.1-2-1.5
				c-0.8-0.6,0.7-2.1-0.7-2.4c-0.8-0.2-2.6,0.8-3.1,0.5c-0.2-0.1,0.2-3.1,0.3-3.4c0.3-0.5-2-0.3-2.2,1.4c-1,2.9-4.9,0.4-5.1-2.2
				c-0.1-1.8-0.2-2.9,1.3-4.1c0.4-0.3,3.4-0.8,3.4-0.5c-0.1-0.4-0.6-0.7-0.9-0.7c0.4-1,2.9-0.2,3.5-0.5c1.6-0.8,1.6,1.2,2.6,1.9
				c2.4,1.8-0.4-3-0.4-3.5c0-1.1,2-3,2.4-3.4c0.1,0.1,0-3-0.4-2.9c0.2,0,0.5,1.2,0.4,1.2c0.4,0,0.5-2.5,0.6-2.6
				c0.3-0.1,0.8,0,0.9-0.3c-0.2,0.1-0.4,0.1-0.6,0c0.1-0.2,2-1,1.8-1.1c-1.9-0.7,1.4-2.3,1.2-2.7c0.1-0.1,1.3-0.9,1.4-0.9
				c-0.1,0,0.6,0.6,0.6,0.3c0,0.3-1,0.4-1.1,0.9c-0.2,0.8,0.6,0.4,0.8,0c0-0.1,2.5-1.9,2.3-2c-0.2-0.1-0.7-0.5-0.6-0.5
				c-0.2,0.1-1.8,2.3-2.4,0.7c0-0.1,0-0.1,0-0.2c0,0.1-0.2-0.6-0.1-0.5c0-0.1-0.6,0.1-0.8,0c0.4,0.2,0.7-0.9,0.8-0.9
				c-1-0.8-3.2,1.4-3.3,2.1c0.1-0.2,0.2-0.4,0.3-0.7c-0.2-0.3,1-1.6,1.6-2c0.7-0.5,1.7-0.6,2.5-0.7c1.2-0.1,0.7-0.5,1.5-1.1
				c0.4-0.3,1.7-1.5,0.3-1.8c-0.8-0.2-1,0.4-1.9,0.5c-0.2-0.3,0.7-0.7,0.8-0.8c0.3-0.2-1.1-0.2-1.1-0.2c-0.1-0.4-0.4,0.1-0.5,0
				c0,0-1-1.3-1.1-1.3c0,0-0.1-0.1-0.1-0.1c-0.1,0-0.1,0-0.2-0.1c0,0,0-0.1,0-0.1c-0.2-0.2-0.5-0.3-0.7-0.4c0.1-0.2-1.2-1.1-1.3-1.1
				c-0.1,0-0.2,1.2-0.4,1.3c-0.7,0.5-0.7,0.2-1.5,0.3c-0.1-0.3-0.1-0.7-0.5-0.6c0-0.1,0.3-0.6,0.1-0.8c-0.2-0.2-1.3-0.2-1.7-0.3
				c0-0.3-2.3,0.2-2.4,0.4c0.1-0.1,0.6,2.8,0.2,2.5c0.5,0.4,1.3,0.4,1.1,1.4c-0.1,0.7-1.7,1.4-1,1.8c0.3,0.2,0.5,2,0.5,2
				c0,0-1.9-0.1-1.6-0.5c-0.4-0.6-0.5-2-1.2-1.8c-1.7,0.4-2.9-0.8-4.6-0.3c-0.2-1.4-1-0.9-0.9-2c-0.4-0.7,2-2.5,1.9-2.7
				c-0.1,0-0.2-0.1-0.3-0.3c0.7,0,1.6-0.8,1.9-1.4c0.1-0.2-1,0.1-1-0.3c0,0.3,1.3-0.3,1.3-0.7c0-0.3,0.7,0,0.8-0.1
				c0,0.1,0.5-0.5-0.1-0.4c1.7-0.2,0.5-0.8,1.1-1.6c0.2-0.3-0.8-0.3-0.9-0.3c-0.4,0.1-0.2,1.3-0.7,1.3c0-0.1,0-0.2-0.1-0.2
				c0.1-0.1-0.3,1-0.4,0.8c-0.1-0.3-0.4-0.4,0-0.7c-0.3-0.8-0.4-0.3-0.8,0.1c-0.2,0.2-0.1-0.5,0-0.6c-0.1,0-0.6,0-0.7,0
				c0-0.1,0.4-0.4,0.4-0.4c0-0.2-0.4-0.8-0.5-0.8c0.1,0,0.3-0.5,0.3-0.6c0.1-0.1,1.2-0.4,1.1-0.8c-0.1-1-2.1,1.9-1.9,1.7
				c0,0.1-0.5,0.5-0.4,0.6c-0.1-0.2,0.6,1.1,0.6,0.6c0-0.2-0.4,0.8-0.1,0.3c0,0-0.8,1.3-0.8,1.3c-0.2,0.1-0.1-1.2-0.8-0.5
				c-0.3,0.3,0.6,0.1,0.3,0.3c-0.2,0-0.3,0-0.5-0.1c-0.3,0.6-1.4,0.3-1.9,0.3c-0.3,0-1.1,0.3-0.9,0.3c0-0.2,0.7-0.4,0.7-0.4
				c0,0.1-1.5,1.2-1.2,1.5c-0.2-0.2,0.3-0.6-0.1-0.7c-0.2-0.1-1.8,0.4-1.7,0.3c0-0.1,0.6-1.3,0.1-0.6c-0.7,0.2-1-0.8-1.7,0
				c0,0,0.3-0.4,0.3-0.4c0,0-0.6,0.6-0.6,0.5c0-0.1,0.3-0.8,0.3-0.8c-0.1,0-0.9,0.7-0.9,0.7c0,0-0.9,0.4-1,0.5
				c0.2-0.2,0.9-0.8,1.2-0.9c-0.5,0.1-0.9,0.7-1.4,0.8c0.5-0.5-0.5,0.2-0.6,0.3c0,0,0,0.2-0.1,0.2c-0.2-0.1-0.3-0.2-0.1-0.4
				c0-0.1-0.1,0-0.2,0c0,0-0.5-0.3-0.5-0.2c0,0,0-0.1,0.1-0.2c0-0.1-0.2,0-0.3,0.1c-0.1,0,0.3-0.3,0.3-0.3c-0.3,0.4-0.1-0.2,0-0.1
				c0,0.1,0,0.1-0.1,0.1c0,0,0-0.1,0.2-0.3c-0.1,0.2-0.5,0.5-0.7,0.5c-0.6,0.1-3.6,3.1-3.4,3.4c0,0-0.2,0.2-0.2,0.2
				c0-0.1,0-0.1,0.1-0.1c-0.6,0.3-1.2,1.2-1.5,1.7c0,0,0.1,0,0,0.1c0,0,0.1-0.1,0.1-0.1c-0.1,0.1-0.1,0.1-0.1,0.1
				c0,0,0.2-0.3,0.3-0.3c-0.6,0.1-2.6,3.1-2.7,3.6c0,0,0.1-0.2,0.1-0.2c-0.1,0.3-0.4,0.6-0.5,0.9c0.1-0.2,0.4-0.5,0.5-0.7
				c-0.4,0.5-0.7,1.1-1,1.7c0,0.1,0.2-0.3,0.2-0.2c0,0,0,0,0,0c0,0-0.2,0.4-0.1,0.3c0.2-0.3,0.1-0.3,0.3-0.3
				c-0.7,1.3-1.6,2.6-2.4,3.8c0.2-0.3,0.4-0.6,0.6-0.9c0.1-0.1,0,0,0,0.1c1.2-1.4,2.4-4.5,4.1-5.4c-0.1,0.1-0.2,0.3-0.3,0.4
				c-0.1,0-0.1,0-0.2,0c-0.3,0.2-0.7,0.8-0.7,1.1c-0.1,0.1-0.2,0.2-0.3,0.3c0,0.3,1.4-1.7,1.4-1.7c0.2,0,0,0.5,0.2,0.7
				c0,0,0.9,0.1,0.9,0c0,0.1-0.3,1.3,0,1.2c0.1-0.2,0.2-0.3,0.3-0.4c0,0.1,0,0.2,0,0.3c0.1-0.1,0.2-0.3,0.3-0.5
				c-0.1,0-0.1,3.9,0,4.2c-0.1-0.6,0.5,0.4,0.3,0.6c-0.1,1,1.7,1.9,1.2,2.6c0.1-0.2-1.2-1.6-1.6-1.5c-0.2,0.1-0.1,0.6,0.1,0.6
				c0.1,0,0.3,0,0.3,0.2c0,0-0.1,0.1-0.1,0c-0.1,0.3,0.5,0.3,0.6,0.4c-0.4,0.5-0.2,3-0.3,3.8c0,0,0,0,0-0.1
				c-0.2,1.9-0.6,3.3,0.6,4.4c-0.1,0.4,0,2.3,0.8,2.5c1.1,0.3,3.2,4.3,3.5,4.2c-0.2,0-0.3,0-0.4,0.1c0.4-0.5,3,3,3.3,2.7
				c0.2-0.2-4.3-5.3-3.6-5.6c1.2-0.4,1.7,2.9,2.5,2.3c0.6,0.4,0.8,1.4,1.4,1.6c0.9,0.3,1.9,1.5,2.3,2.3c0.4,0.9-0.1,1.3,1.4,1.6
				c1.4,0.3,3.4,1.4,4.8,1c0.9-0.3,1.2-0.9,2.2-0.3c1,0.7,2.4,0.8,3.5,0.6c1-0.1,2.1,2,2.4,1.9c0.8-0.2,1.2,0.4,2,0.4
				c0.4,0,1.4,0.6,1.7,0.4c0.4-0.2-0.3-0.5,0.1-0.9c0.9-0.8,1.4,0.1,1.8,1c1,2.2-0.6,2.9-0.9,4.8c-0.1,0.9,0.8,0.8,0.8,1.3
				c0.1,0.8-0.6,1.1-0.3,2c0,0,1.9,1.2,2.1,1.4c0.7,0.7,1.5,2.1,2.1,2.7c1.3,1.1,3.6,0.6,4,2.6c0.3,1.4,0.4,3.1,0.2,4.6
				c-0.2,1.4,0.6,2.7-0.2,4.1c-0.2,0.3,0.7,2.3,0.5,2.5c0.1-0.1,0-0.9,0.2-0.7c0.8,0.4-0.4,1.9-0.5,2c-0.1,0.2,0.3-0.1,0.4,0.1
				c0,0,0.8,3.8,2.1,2c0.2-0.2-1.2-0.4-0.5-0.6c0-0.5,0.7-2.7,0.9-2.7c0,0,0.4-0.9,0.3-0.9c-0.1-0.4,0.6,0.2,0.4-0.3
				c0.1,0.1-1-0.3-0.4-0.5c0.5-0.2,1.2,0,0.9-1c0.4-0.6,1.5-0.4,1.9-1.1c0.2-0.4,0-1.8-0.3-1.5c0.5-0.5,1.4,0.2,2.1-0.7
				c0.1-0.2,1-2.1,1.3-2c0.2-0.6-0.5,0.8-0.3,0.7c0.6-0.3,1.4-1.9,1.5-2.5c0.2-1.3,1.2-2.3,2.4-2.9c2.7-1.3,2.2-4,3.2-6.5
				C454.3,102.9,456.6,98.1,455.3,97.6z M414.4,54.3c0-0.6-0.5-0.2-0.6-0.1c0,0,0,0-0.1,0c0-0.1-0.4,0.4-0.4,0.4
				c0.3,0.2,1.5,0,1.1-0.2C414.5,54.4,414.5,54.1,414.4,54.3z M420.3,64.3c0.2,0.1,0.4,0.1,0.6,0C420.9,63.8,420.1,64.3,420.3,64.3z
				 M430.3,64.4c0.2,0.4,1.4,0.4,1.7,0.2C431.7,64.1,430.7,64.2,430.3,64.4z M436.9,64.3c-0.4,0.6,0-0.4,0-0.4
				c0-0.3-2.4-0.6-2.4-0.5c0,0,0.1-1.1,0-1.1c0,0,0.1-0.2,0.1-0.2c-0.4,0-1.2,1.4-0.7,1.6c-0.7,2,0.4,0.9,1.9,1
				c0.3,0-0.3,0.5-0.1,0.5c0.4,0.1,0.4-0.6,0.8-0.5c0.2,0,0.4,0.2,0.8,0.3C438,65.3,437.1,63.9,436.9,64.3z M435.2,86.4
				c0,0-1.1,0.2-0.6,0.4C435.1,87.1,436,86.4,435.2,86.4z M427.3,88.3c-0.1,0.4,1.3,0.2,1.2,0C428.4,88.1,427.3,88,427.3,88.3z
				 M430.8,87.4c-0.4-0.1-0.7,0-1,0.1c0.3-0.2,2.9-0.2,3.8-0.6c0,0-2.7-1.3-3.3-0.3C430.3,86.7,431.6,87.2,430.8,87.4z M429.1,86.4
				c-0.9,0-2.2-0.6-3.1-0.7c-1-0.2-1.4-0.1-2.3,0.2c0,0-1.6,1-0.9,0.9c0.6-0.1,1-1.1,1.6-0.7c0,0-0.1,0.1-0.1,0.1
				c0.7,0.3,2.9-0.3,3.4,0.5c-0.7,0.8,1.8,0,2,0C429.7,86.4,429.3,86.4,429.1,86.4z M439.7,90.7c-0.2-0.2-0.4,0.4-0.3,0.4
				C439.4,91.5,440,91,439.7,90.7z M398.1,68.7c-0.1,0.1-0.2,0.3-0.3,0.3c0,0,0.1-0.2,0.1-0.2c-0.1-0.3-0.2,1.1-0.2,1.3
				C397.8,70.2,397.8,68.9,398.1,68.7z M398.4,66.8c0,0-0.5,1-0.2,1.3C398.2,68.1,398.4,67,398.4,66.8z M398.6,65.5
				c-0.1,0.1-0.4,0.7-0.4,0.7c0.2-0.2,0.2-0.5,0.1-0.7c-0.2-0.1-0.5,1.4-0.4,1.5C398,66.9,398.9,65.7,398.6,65.5z M395,66.2
				c-0.5,0.7-0.4,0.7-0.8,1.3c0.1-0.1,0.5-0.9,0.6-0.9c0.1-0.1,0.3-0.3,0.3-0.4C395.1,66.1,395.1,66.1,395,66.2z M420.5,57.8
				c0.1-0.3-0.2-0.6-0.4-0.2C420.1,57.9,420.4,58.1,420.5,57.8z M419.2,57.3c-0.1,0.1-0.8,0.3-0.6,0.6
				C418.9,58.5,419.5,57.1,419.2,57.3z M420,56.5c-0.1-0.1-2-0.9-2.2-0.8c-0.1,0-0.6,1.5-0.6,1.6c0,0.2,0.6-0.4,0.6,0.2
				C418,57.5,419.8,56.2,420,56.5z M417.3,48.4C418.2,48.6,417,48,417.3,48.4C417.4,48.3,417.3,48.4,417.3,48.4z M414.2,51.1
				c0.2-0.1,0.3-0.4,0-0.2C414,51.1,414.1,51.1,414.2,51.1z M415.3,51.4c-0.1,0,0.1-0.1,0-0.2c0,0-0.3,0.1-0.4,0.2
				c-0.1,0.1-0.2,0-0.3,0.1c0,0.1-0.4,0.3-0.4,0.3c0-0.1,0,0.4-0.1,0.4c-0.1,0.3-0.3,0-0.4,0c-0.2,0,0,1.4,0.6,0.6
				c0.2,0.6,1.2-1.7,0.6-0.8c-0.1-0.1-0.1-0.1-0.3,0C414.8,52,415.4,51.4,415.3,51.4z M415.1,50.4C415.2,50.4,415.2,50.4,415.1,50.4
				c0,0,0,0.1,0,0.2c-0.1,0,0-0.5,0-0.4c0-0.4-0.3,0.3-0.2,0.2c-0.2,0.1-0.2,0.2,0,0.2c0,0-0.1,0.1-0.1,0.1c0,0,0.1,0,0.1-0.1
				c-0.3,0.3,0.5-0.1,0.5-0.1c0,0-0.4,0.3-0.3,0.2c-0.1,0.2-0.1,0.2,0.1,0.1c0.1,0,0.2,0,0.3-0.1c0,0,0.1-0.1,0.1-0.1
				c0.1-0.2,0.5-0.4,0.4-0.7c0,0,0,0-0.1,0c-0.2,0.1-0.4,0.2-0.5,0.3c0,0,0.1,0,0,0.1C415.4,50.2,415.4,50.1,415.1,50.4z
				 M416.5,50.2c-0.3,0.1-0.7,0.3-0.5,0.5C416.3,51.3,416.7,50.2,416.5,50.2z M417.3,49.2c0,0,0.1-0.1,0.1-0.1
				c-0.2,0-0.4,0.1-0.5,0.2C416.8,49.4,417.3,49.2,417.3,49.2z M416.9,49.1c0.1,0,0.2-0.1,0.3-0.2C417.4,48.8,417,48.7,416.9,49.1
				c-0.1,0-0.1,0-0.1,0C416.7,49.3,416.9,49.2,416.9,49.1z M417.9,49.1c-0.1-0.2,0,0.1,0,0.1S417.9,49.2,417.9,49.1z M417.4,49.5
				c-0.1,0-1.1,0-0.9,0.3c0.4,0.7,0.7,0.8,1.8,0.6c0.3,0,2.1-0.7,1.3-0.9c0,0-0.1,0-0.1,0c-0.6,0.1-1.2,0.4-1.8,0.5c0,0,0-0.1,0-0.1
				c-0.1,0-0.2,0.1-0.4-0.1C417.4,49.8,418,49.5,417.4,49.5z M415.1,49.9c0.1,0.1-0.1-0.1-0.1-0.1C415,49.7,415,49.8,415.1,49.9z
				 M415.9,49.2c0,0,0.3-0.1,0.4,0c0.1,0.2,0.4-0.3,0.4-0.3c0,0,0,0,0,0s0-0.4-0.1-0.1c0,0-0.2-0.1,0-0.2c-0.2,0-0.3,0.1-0.4,0.2
				c0,0,0.1,0,0,0c-0.1,0-0.1,0.1-0.1,0.1s0.2-0.2,0.1,0C416.1,49,415.7,49.3,415.9,49.2z M414.7,49.5c0.2-0.1,0.5,0,0.6-0.3
				C415.3,49.2,414.5,49.6,414.7,49.5z M414.4,49.9c0.2,0,0.2-0.1,0.2-0.2C415.6,49,413.3,50.4,414.4,49.9z M413.7,50.7
				c0,0.1-0.4,0.4-0.5,0.4c-0.1,0-0.1-0.1-0.1-0.1s0,0,0,0c0.1-0.2,0-0.3,0-0.3c-0.1,0-0.2,0.1-0.3,0.2c0,0-0.6,0.2-0.3,0.2
				c-0.3,0.2-0.2,0.3-0.7,0.5c0.1-0.1,0.2-0.1,0.1,0c-0.1-0.1,0.8-0.3,0.8-0.3c0.2-0.1-0.7,0.3-0.7,0.5c0,0.1,1.5-0.6,1.6-0.6
				c0.2,0.1,1-0.6,0.9-0.7c-0.1-0.1-0.4,0.3-0.5,0.2c0.2-0.1,0.2-0.1,0-0.1c0,0,0.4-0.4,0.4-0.4C414.1,50.2,413.7,50.5,413.7,50.7z
				 M412.2,51c-0.2,0.1-0.4,0.2-0.6,0.4C411.7,51.3,412.1,51.1,412.2,51z M411.6,51.2C411.6,51.2,411.6,51.2,411.6,51.2
				c0.1,0,0.7-0.4,1.2-0.6c-0.1,0.1-0.3,0.3-0.3,0.3c0.1,0.1,1.2-0.9,1.2-0.9C413.5,49.8,411.3,51.3,411.6,51.2z M410.2,53.1
				c-0.4,0.3-0.8,0.9-0.8,0.9l-0.2,0.1c0,0,0.6-0.2,0.3,0c-0.3,0.1-0.5,0.2-0.6,0.4c-0.1,0.2,1.4-0.4,1.2,0c-0.1,0.1-2,0.7-1.6,0.9
				c0.1,0.1,0.6-0.1,0.6,0c-0.1,0.2-0.1,0.3,0,0.5c0.8,0.3,2.9-1.6,3.5-1.3c-0.1,0-0.3,0-0.4,0.1c-0.1,0,1-0.5,0.9-0.7
				c-0.1-0.2-1.1-2.2,0.2-2.2c-0.2,0-1.7,1.3-1.6,1.5c-0.1-0.2,0.7-0.9,0-0.7c-0.2,0.2-0.1,0.4-0.5,0.4c0.2-0.1,0.3-0.2,0.2-0.4
				c-0.3,0-0.5,0.4-0.8,0.4c0,0,0.5-0.6,0.4-0.5C410.8,52.8,410.5,53,410.2,53.1z M408.1,54.1c-0.1,0.1-0.1,0.3-0.2,0.5
				c-0.1-0.4,3.3-1.6,3.1-2.4c0,0.1-0.9,0-1.1,0.2c-0.3,0-1.8,1.5-2,1.8C407.9,54.2,408.1,54.1,408.1,54.1z M421.5,53.3
				c-0.6-0.2-0.8,0.8-0.2,0.7C421.6,53.9,421.9,53.3,421.5,53.3z M419.7,50.9c0.1,0.2,1.1-0.1,1-0.3c-0.5-0.5-1.3,0.1-1.1,0.1
				C419.7,50.8,419.7,50.8,419.7,50.9z M426.8,53.8c1.3,0.1-0.7-0.9-0.7-1c-0.8-0.4-1.5,0-2.1-0.7c-0.3,0.1,0.9-0.1,0.3-0.2
				c-0.2,0-1.5-1.1-2.1-0.8c-0.4,0.1-0.4,0.3-0.8,0.1c0.2-0.2,0.2-0.2-0.2-0.1c0-0.4-0.9-0.3-1.1,0c0,0.1-0.6,0.2-0.6,0.3
				c0-0.2,0-0.3,0-0.5c-1.1-1.2-1.6,1.4-1.2,1.2c-0.7,0.3-0.4-1.4,0-1.3c-0.6,0-1.6,0.9-1.5,1.6c0,0.2,0.5,0,0.6,0.1
				c0.2,0.2-0.8,0.2-0.5,0.4c0.3,0.3,1.9,0.1,2.3-0.1c-0.1-0.5,1.6-0.3,1.8,0.2c0.1,0.3,2.9-0.3,1.4,1.1c0,0-1,1.9-1.3,1.3
				c-0.5,0.3,2.7,0.6,2.6,0.6c0.4,0.4,2.9,0.6,2.9,0.3c0-0.2-1.5-0.9-1.5-0.9c0.5,0.1,1.6,0.7,2.1,0.4c-0.1-0.1-0.2-0.1-0.4-0.2
				c0.1-0.1,0.1-0.2,0-0.3c0.5,0-2-1.4-2-1.4c0.7-0.1,0-0.3,0.2-0.4c0.3,0.1,0.6,0.1,0.9,0.1c0.1,0.5,1,0.4,1,0.4
				C426.6,53.8,426.4,53.7,426.8,53.8z M418.9,47.6C418.9,47.7,418.9,47.7,418.9,47.6c-0.1,0.1,0.5,0,0.6,0c0.1-0.1,0.5-0.1,0.5-0.2
				c-0.1,0.2-0.4,0.2-0.5,0.3c0,0-0.6,0.2-0.5,0.3c0,0,0.1,0.2,0.1,0.2c-0.1,0.1-1.1,0.5-0.4,0.4c0,0.1,0,0.2-0.1,0.2
				c-0.1-0.1-0.8,0.4-0.8,0.6c-0.1,0.3,2.9-0.5,2.1-0.6c0-0.1,0-0.1,0-0.2c0.2,0,0.2-0.1,0.2-0.3c0.3,0,0.6-0.2,0.4-0.5
				c0.1,0,0.2,0,0.1-0.1c0.2,0,0.2-0.1,0.1-0.2c0,0,0.4-0.3,0.4-0.2c0,0,0.1,0,0.1,0c0.1-0.1,0.2-0.2,0.3-0.4c-0.1,0-0.2,0-0.2,0
				c0,0,0,0,0,0c0.1,0,0.2,0,0.2-0.1c0-0.2-0.5,0-0.6,0c0,0,0,0,0,0c0,0-0.3,0-0.2,0.1c0,0-0.1,0-0.1,0c0,0-0.2,0.1-0.3,0.1
				c0,0-0.1,0-0.1,0c0,0,0,0,0,0c-0.1,0.1-0.2,0-0.2,0.2c-0.1,0,0,0-0.1,0c-0.1,0-0.2,0-0.3,0.1c0,0,0,0,0,0c0,0-0.8,0.2-0.5,0.2
				C419,47.5,419,47.5,418.9,47.6c0-0.1,0.1-0.1,0.1-0.1C419,47.6,419,47.6,418.9,47.6z M418,48.4c-0.1,0-0.2,0.1-0.3,0.3
				c0,0.1,0.5,0.2,0.5,0c0.2-0.1,1-0.4,0.7-0.6c0,0-0.1-0.4,0-0.5c-0.2,0.2-0.9,0.4-1,0.7C417.4,48.5,418.3,48.2,418,48.4z
				 M456.1,57.3c0.2-0.3-1.5-1.2-1.7-1.3c0,0,0.1,0,0.1,0c-0.6-0.6-1.5-0.9-2.3-1.2c0-0.1,0-0.1,0-0.1c-0.3-0.2-1.2-0.7-1.4-0.8
				c0,0,0,0,0,0c-0.1,0-0.1-0.1-0.2-0.1c0-0.1-0.3-0.6-0.4-0.4c-0.1,0-0.2,0-0.2,0.1c0.3,0.3,0.4,0.5,0.3,0.6c0,0,1.8,1.3,1.7,1.2
				c-0.1-0.1-0.2-0.2-0.3-0.3c-0.1-0.1,1.1,0.8,1.1,0.6c0-0.1,1.2,0.7,1.1,0.9c0,0.1-0.1,0.1,0,0.3c0.7,0.3,0.5,0.7,1.3,0.7
				c0.3,0.3-0.2,0.6,0.3,1.1c-0.1,0,0.6-0.7,0.7-0.8C456.5,57.5,456.1,57.2,456.1,57.3z M449.9,53.7c0,0,0.3,0.2,0.4,0.2
				c-0.1-0.1-0.1-0.3-0.4-0.4C449.8,53.5,449.9,53.6,449.9,53.7z M453,56c0-0.4-0.8-0.6-1.2-0.6c-0.2,0,0.1,0.4,0.1,0.5
				c0,0,0.1,0,0.1,0c0.1,0.1,0.1,0.2,0,0.2c-0.2,0.6,1.1,0.6,1,1.3c0,0-0.1,0,0,0.1c0.3,0.2,1.2,0.1,0.9-0.3
				C453.8,57,453,56.2,453,56z M439.8,50.3c0.5,0.1,0,0,0.2,0.3c0.2,0.4,0.4,0,0.8,0.1c0,0,0,0.1,0,0.1c0.1,0,0.2,0,0.3,0.1
				c-0.2,0-0.3,0.1-0.3,0.3c0.3,0.3,2.6,0.7,2.7,0c0.1-0.9-1.5-1.4-2.2-1.3c0.1,0.1,0.2,0.1,0.3,0.2c0,0-0.1,0.1-0.3,0.1
				c0,0,0.3,0.3,0.3,0.2c-0.4-0.2-0.5,0.2-0.7,0c-0.2-0.2,0.5,0.4,0.2,0.4C440.6,50.5,440.2,50.3,439.8,50.3
				C439.8,50.2,439.5,50.2,439.8,50.3z M428,50.7c0.1,0.2,0.2,0.2,0.4,0.2c0.3,0.1,0.5,0.1,0.7-0.1C429.1,50.5,427.7,50.2,428,50.7z
				 M421.5,47.3c0.1,0,0.2,0,0.3,0c0.5,0.4-0.7,0.4-0.8,0.8c0.1,0.1,0.3,0.2,0.5,0.1c0,0,0,0,0,0.1c-0.3,0,0.9-0.2,0.8-0.1
				c0,0.1-1,0.3-0.8,0.4c0,0,0.6,0,0.6,0c-0.1,0.2-0.3,0.2,0.3,0.2c1,0,1.7-0.4,2.9,0c0.8,0.2,1.3,1.1,1.8,1.3
				c0.6,0.2,1-0.5,1.7,0.1c-0.1,0.1-0.8-0.2-1,0c0.1-0.1,1.8,0.4,1.9,0.8c-0.1-0.2-0.9,1.5,0.2,1.1c2,0.9,4.1,4,7,3.3
				c0.3-0.1-2.3-3.6-1.3-4c0.9-0.5,1.1-0.3,0-1.5c0.6,0.7,1.6-0.5,1.3-1.2c0.1,0.2-1.9-0.4-1.9-0.4c0.1,0,1.4,0.2,1.3,0.2
				c-0.2-0.4-3.1-1-3.2-0.9c0.1-0.1,0.7,0,0.7-0.1c-0.2-0.1-0.4-0.2-0.6-0.2c0.1-0.3-2.8-0.5-2.6-0.7c0,0-0.9-0.1-1-0.1
				c0,0-0.4-0.2-0.5,0c-0.2,0.2-1.9-0.5-2-0.2c0.1-0.1-0.4,0-0.4,0c0.1,0,0.1,0,0.2,0c-0.1,0-0.3,0-0.4,0c0.1,0,0.1,0,0.2,0
				c-0.2,0-0.5,0-0.7,0c0,0-0.1,0-0.1,0c0,0,0.2,0,0.1-0.1c-0.3-0.1-1.2,0-1.4,0.1c0.2,0,0.7,0.1,0.3,0c0.1,0,0.6,0,0.7,0
				c-0.5,0-1-0.1-1.5,0c0.1,0,0.8,0,0.4,0c-0.2,0-0.4,0-0.6,0c0,0,0,0,0,0c0,0,0,0-0.1,0c-0.1,0-0.2,0-0.3,0c0-0.1-1.5,0.1-1.6,0.2
				c0.2,0,0,0,0,0c-0.1,0-0.1,0-0.1,0c0,0,0,0,0,0c0,0,0,0,0,0c0.1-0.1,0.2,0,0.2,0c-0.1,0,1,0,0.7,0c-0.2,0-0.6,0.1-0.8,0.1
				c0.1,0,0.2,0,0.4,0c0.1,0,0,0-0.1,0c0,0,0.1,0,0.2,0c-0.1,0-0.4,0-0.5,0c0,0,0.5,0,0.3,0.1c-0.2,0-0.3,0-0.5,0c0,0,0.1,0,0.1,0
				c-0.1,0-0.2,0-0.2,0.1c0.1,0,0.2,0,0.3,0c-0.1,0-0.2,0-0.4,0c0,0,0,0,0,0c0,0,0.1,0,0.2,0c0,0,0,0,0,0c0,0,0.1,0,0.1,0
				c-0.1,0-0.2,0-0.2,0.1c0,0,0.1,0,0.2,0.1c-0.2,0-0.4,0-0.4,0.2C421.5,47.3,421.5,47.3,421.5,47.3z"/>
		</defs>
		<clipPath id="XMLID_819_">
			<use xlink:href="#XMLID_14_"  overflow="visible"/>
		</clipPath>
		<radialGradient id="XMLID_820_" cx="430.5689" cy="57.2928" r="63.6473" gradientUnits="userSpaceOnUse">
			<stop  offset="0" style="stop-color:#FFFFFF"/>
			<stop  offset="0.5938" style="stop-color:#BEBCC1"/>
			<stop  offset="0.8633" style="stop-color:#6E7686"/>
			<stop  offset="1" style="stop-color:#9799A6"/>
		</radialGradient>
		<path id="XMLID_72_" clip-path="url(#XMLID_819_)" fill-rule="evenodd" clip-rule="evenodd" fill="url(#XMLID_820_)" d="M387.3,87
			c0-23.4,19-42.4,42.4-42.4c23.4,0,42.4,19,42.4,42.4c0,23.4-19,42.4-42.4,42.4C406.3,129.4,387.3,110.4,387.3,87z"/>
	</g>
</g>
<polyline id="XMLID_11_" fill-rule="evenodd" clip-rule="evenodd" fill="#FFFFFF" points="12.9,143 13.3,41.8 43.6,41.8 66.6,106.3 
	87.9,41.8 119.5,41.8 119.3,142.9 99,142.8 99.1,59.5 68.8,143 59,143 30.7,58.8 30.9,142.9 "/>
<path id="XMLID_9_" fill="#FFFFFF" d="M119.3,281.6l-24.8-0.3l-53.8-84c-0.8-1.3-2-3.4-3.8-6.3c-0.8-1.3-2-3.3-3.6-6.1v96.7H14.2
	v-132h26.3l49.9,76.8c0.4,0.6,3.1,4.3,8.3,13.1l-0.3-90.4l20.6,0.3L119.3,281.6z"/>
<g id="XMLID_2_">
	<polygon id="XMLID_8_" fill="#FFFFFF" points="283.7,142.8 283.7,142.8 283.7,142.8 	"/>
	<path id="XMLID_5_" fill="#FFFFFF" d="M283.4,41.8h-20l-21.6,34.8l-19-34.8l-89.4,0.1l0.2,101.1H223l18.9-36.8l21.3,36.6h20.5
		l-27-50.6L283.4,41.8z M202.3,137v-8.7l-49.5-0.2v-28h39.4V84.7h-39L153,57.9h48.9l0.2-8.9l26,42.9L202.3,137z"/>
	<polygon id="XMLID_4_" fill="#FFFFFF" points="303.7,41.8 283.5,41.8 283.7,142.8 303.7,142.8 	"/>
	<polygon id="XMLID_3_" fill="#FFFFFF" points="189.3,20.7 184.6,11.4 155.3,28.4 158.4,34.2 	"/>
</g>
</svg>
