<?xml version="1.0" encoding="utf-8"?>
<!-- Generator: Adobe Illustrator 19.0.0, SVG Export Plug-In . SVG Version: 6.00 Build 0)  -->
<svg version="1.0" id="Capa_1" xmlns="http://www.w3.org/2000/svg" xmlns:xlink="http://www.w3.org/1999/xlink" x="0px" y="0px"
	 viewBox="0 0 640 520" enable-background="new 0 0 640 520" xml:space="preserve">
<g>
	<path fill-rule="evenodd" clip-rule="evenodd" fill="#1A325E" d="M470.9,218.4c0.3,0.6,0.3,1.2,0.1,1.8
		C470.5,219.6,470.8,219,470.9,218.4z"/>
	<path fill="#1A325E" d="M590.1,262.5c-7.3-7-20-12.8-36.9-17l-27.9-7c-15.2-3.8-20.8-10.3-20.8-19.7c0-5.9,3.1-10.8,8-14.6
		c4.8-3.8,11.4-5.7,20.6-5.7c15.9,0,28.1,6.9,32.4,19.3l30.6-7.2c-3-11.3-13.4-21.8-24.4-28c-11.1-6.2-27.3-7.9-41.4-7.9
		c-17,0-30.9,4.4-41.8,13.3c-4.8,3.9-8.6,8.4-11.2,13.4l6.7-23.6l-28.9,0.2L423,294l-34.5-116.3l-32,0.2l-30.6,117.4l-32.6-117.4
		l-30,0.2l-104.2-0.6v164l111.6-1v-23.9l-82.1-0.6V270l66.3,0.3l0.4-24.1l-65.2,0.4l0.4-43.3l76.2,0.7l39.8,138l32.6,0.2l31.1-118.5
		l33.3,118.7l33.7-0.2l35.1-123.6c-0.1,1.5-0.2,3-0.2,4.6c0,7.4,1.5,14.3,4.6,20.8c3.1,6.5,7.2,11.5,12.3,15.1
		c5.1,3.6,13.1,6.7,23.8,9.5l31.3,8.2c8.4,2.2,13.9,5.1,16.5,8.9c2.6,3.8,3.8,7.9,3.8,12.4c0,6.2-2.8,11.3-8.5,15.5
		c-5.6,4.2-14.1,5.1-24.6,5.1c-23,0-32.6-8-37.4-23.9l-30.9,6.1c4,14.4,12.5,25.7,24.7,32.5c12.2,6.8,26.4,10.2,42.7,10.2
		c19.3,0,40.8-2.6,52.9-11.8c5.8-4.5,11.4-10,15.1-19c0,0,4.8-7.2,4.8-20.4c0-13.2-4.7-20.4-4.7-20.4S592.7,265,590.1,262.5z"/>
</g>
<path fill="#EB6726" d="M596,104.1c0,38.5-69.8,94.3-69.8,94.3s-69.8-55.7-69.8-94.3s31.2-69.8,69.8-69.8
	C564.7,34.3,596,65.5,596,104.1z"/>
<path fill="#1A325E" d="M453.1,126.7c-3.1,10.5-11.8,18.9-23.1,18.9c-16.8,0-28.6-11.3-28.6-38.7c0-26.5,12.4-39.9,25.5-39.9
	c10.9,0,22.3,10.1,25.1,19.1c0.1,0.3,0.2,0.5,0.2,0.8l1-1.5c3.2-9.2,8.5-17.4,15.3-24.1c-10.5-13.2-17.1-17.6-40.2-18.6
	c-29.4-1.3-56.4,19.5-56.4,64.7c0,44.2,29,64.4,51.6,62.8c22.5-1.6,29.5-4.4,42.4-21.4l-0.4-0.7
	C460.1,141.8,455.9,134.6,453.1,126.7z"/>
<g>
	<radialGradient id="SVGID_1_" cx="526.8644" cy="65.728" r="68.2717" gradientUnits="userSpaceOnUse">
		<stop  offset="0" style="stop-color:#86D5F6"/>
		<stop  offset="0.4609" style="stop-color:#2E7ABD"/>
		<stop  offset="0.7227" style="stop-color:#03589F"/>
		<stop  offset="0.832" style="stop-color:#114D8A"/>
		<stop  offset="0.9727" style="stop-color:#1E3A6C"/>
		<stop  offset="1" style="stop-color:#1E3A6C"/>
	</radialGradient>
	<ellipse fill-rule="evenodd" clip-rule="evenodd" fill="url(#SVGID_1_)" cx="525.8" cy="101.4" rx="50.9" ry="50.9"/>
	<g>
		<defs>
			<path id="SVGID_2_" d="M477.1,95.1c0-22.2,21.8-43.8,48.7-43.8c26.9,0,48.7,21.6,48.7,43.8c0,22.2-21.8,24.9-48.7,24.9
				C498.9,120,477.1,117.3,477.1,95.1z"/>
		</defs>
		<clipPath id="SVGID_3_">
			<use xlink:href="#SVGID_2_"  overflow="visible"/>
		</clipPath>
		
			<radialGradient id="SVGID_4_" cx="511.9561" cy="64.8716" r="73.3954" gradientTransform="matrix(1.0599 0 0 1.0462 -8.5133 -12.9347)" gradientUnits="userSpaceOnUse">
			<stop  offset="0" style="stop-color:#ABD8F4"/>
			<stop  offset="0.1758" style="stop-color:#86D5F6"/>
			<stop  offset="0.5938" style="stop-color:#2E7ABD"/>
			<stop  offset="0.8164" style="stop-color:#03589F"/>
			<stop  offset="0.8945" style="stop-color:#114D8A"/>
			<stop  offset="0.9727" style="stop-color:#1E3A6C"/>
			<stop  offset="1" style="stop-color:#1E3A6C"/>
		</radialGradient>
		
			<ellipse clip-path="url(#SVGID_3_)" fill-rule="evenodd" clip-rule="evenodd" fill="url(#SVGID_4_)" cx="532.9" cy="95" rx="58.1" ry="57.3"/>
	</g>
	<radialGradient id="SVGID_5_" cx="526.9523" cy="65.6469" r="68.1513" gradientUnits="userSpaceOnUse">
		<stop  offset="0" style="stop-color:#FFFFFF"/>
		<stop  offset="0.293" style="stop-color:#ABD8F4"/>
		<stop  offset="0.8047" style="stop-color:#2E7ABD"/>
		<stop  offset="1" style="stop-color:#114D8A"/>
	</radialGradient>
	<path display="none" fill="url(#SVGID_5_)" d="M521.4,50.5c1.1-0.1,2.3,0.4,3.5,1.6l-0.2,0.3c-1.1-1.1-2.2-1.6-3.2-1.5L521.4,50.5z
		 M530.5,50.8c-1-0.1-2.1,0.4-3.3,1.5l-0.2-0.3c1.2-1.2,2.4-1.7,3.6-1.6L530.5,50.8z M512.9,117.7c8.4,0.8,17.1,0.7,25.4,0
		c0-8.7-0.6-17.6-1.7-26c-7.1,0.6-14.7,0.6-21.9,0C513.6,100.1,512.9,109,512.9,117.7z M512.6,118c-5.5-0.5-10.8-1.3-15.7-2.5
		c-2.6-0.6-4.9-1.3-7.1-2c0,8.6,1.8,16.1,4.9,22c1.9,0.7,3.9,1.3,6.2,1.8c4.2,1,8.7,1.7,13.4,2.2C513.2,133.8,512.6,126.5,512.6,118
		z M483.8,80.8c1.8,2.4,5.4,4.6,10.7,6.5c3.1-8,7.6-15.3,12.9-21.2c-2.5-1-4.8-2.3-6.1-3.7C494,67.1,488,73.5,483.8,80.8z
		 M494.8,87.4c1.8,0.6,3.9,1.2,6.1,1.8c4.2,1,8.8,1.7,13.5,2.2c1.1-8.4,2.7-16.2,4.7-22.7c-2.7-0.3-5.4-0.7-7.8-1.3
		c-1.1-0.3-2.4-0.6-3.5-1.1C502.4,72.1,497.9,79.4,494.8,87.4z M514.7,91.4c7.2,0.6,14.7,0.6,21.8,0c-1.1-8.4-2.6-16.2-4.4-22.7
		c-4.1,0.4-8.5,0.4-12.7,0C517.5,75.2,515.9,83,514.7,91.4z M536.9,91.4c7.1-0.6,13.7-1.9,19.2-3.6c-3-8-7.3-15.3-12.5-21.2
		c-3.2,1-7.1,1.8-11.2,2.1C534.3,75.2,535.9,83,536.9,91.4z M556.5,87.6c1.9-0.6,3.7-1.3,5.3-2.1c3-1.4,5.1-3,6.3-4.6
		c-4.2-7.3-10.2-13.7-17.3-18.4c-0.8,0.9-2,1.8-3.7,2.7c-0.9,0.4-1.9,0.8-2.9,1.2C549.1,72.3,553.4,79.6,556.5,87.6z M543.7,148.3
		c5.1-2.2,9.3-6.4,12.4-12.2c-5.5,1.8-12.1,3-19.1,3.6c-1,5.2-2.5,8.9-4.2,10.7C536.8,150.1,540.5,149.4,543.7,148.3z M532.2,150.5
		c1.8-1.6,3.3-5.3,4.4-10.7c-7.1,0.6-14.6,0.6-21.8,0c1.1,5.4,2.7,9.1,4.6,10.7C523.6,150.9,528,150.9,532.2,150.5z M518.8,150.4
		c-1.8-1.8-3.3-5.5-4.4-10.7c-4.7-0.4-9.3-1.2-13.6-2.2c-2.1-0.5-4.1-1.1-5.9-1.7c3.1,5.8,7.5,10,12.7,12.3c1.1,0.4,2.3,0.7,3.7,1.1
		C513.7,149.8,516.2,150.2,518.8,150.4z M558.4,131.7l0.1,0l0.1,0.3l-0.4,0.1c-0.5,1.2-1,2.4-1.5,3.5c1.8-0.6,3.5-1.3,5-2
		c3-1.5,5.1-3.1,6.4-4.7c0.8-1.2,1.5-2.4,2.1-3.7L570,125l0.5-0.6c2.7-5.5,4.2-11.7,4.3-18.4c-1.5,1.8-3.9,3.5-7.2,5.1
		c-1.9,0.9-3.9,1.7-6.2,2.5C561.3,120.4,560.3,126.5,558.4,131.7z M537.6,135.7l0.1,0.3l-0.1,0c-0.2,1.2-0.3,2.3-0.5,3.3
		c7.1-0.6,13.7-1.9,19.2-3.7c0.6-1.2,1.1-2.4,1.6-3.7l0-0.1c2-5.2,3.1-11.3,3.2-18.1c-6.4,2.1-14.1,3.5-22.3,4.2
		C538.7,124.8,538.3,130.8,537.6,135.7z M536.9,135.8l0.3,0c0.7-4.9,1.1-10.9,1.1-17.7c-8.3,0.7-17,0.7-25.4,0
		c0,8.6,0.7,15.9,1.8,21.4c7.2,0.7,14.8,0.6,22,0c0.2-1,0.4-2.2,0.6-3.3l-0.2,0L536.9,135.8z M480.9,123.6l0.2,0.4l0.3,0.6l0.6,0.5
		l-0.2,0.2c0.6,1.2,1.3,2.4,2,3.5c1.8,2.4,5.3,4.6,10.5,6.5c-0.6-1.1-1.1-2.3-1.6-3.5l-0.7-0.2l0.1-0.3l0.4,0.1
		c-2-5.2-3.1-11.3-3.1-18c-5.9-2.1-10.1-4.6-12.4-7.4C477.1,112.3,478.5,118.3,480.9,123.6z M570.2,85.3c-0.6-1.4-1.2-2.8-2-4.1
		c-1.3,1.6-3.4,3.2-6.3,4.6c-1.6,0.8-3.4,1.5-5.3,2.1c3,8,4.7,16.7,4.8,25.4c2.2-0.7,4.2-1.5,6-2.4c3.5-1.7,5.9-3.5,7.4-5.4
		c0-7-1.6-13.9-4.4-20.1L570.2,85.3z M537.5,96.2l0.4,0l0,0.3l-0.4,0c0.7,6.9,1.1,14.1,1.1,21.1c8.2-0.7,15.9-2.2,22.3-4.2
		c0-8.6-1.7-17.4-4.7-25.4c-5.5,1.8-12.2,3-19.3,3.7C537.2,93.2,537.4,94.7,537.5,96.2z M513.1,96.2l0.6,0.1c0.2-1.5,0.4-3,0.6-4.5
		c-4.7-0.4-9.3-1.2-13.5-2.2c-2.2-0.5-4.3-1.1-6.2-1.8c-3.1,8-4.9,16.7-4.9,25.3c2.2,0.8,4.5,1.4,7.2,2.1c4.9,1.2,10.2,2,15.6,2.5
		c0-7,0.4-14.2,1.2-21.1l-0.6-0.1L513.1,96.2z M492.3,91.8l0.4,0.2c0.5-1.5,1-2.9,1.5-4.3c-5.2-1.8-8.8-4.1-10.7-6.5
		c-4.1,7.3-6.5,15.6-6.5,24.2c2.1,2.8,6.3,5.4,12.4,7.6c0-7,1.2-14,3.3-20.7l-0.5-0.2L492.3,91.8z M520.4,63.9
		c1.4-3.5,2.7-6.5,4.2-8.8l0.3,0.2c-1.4,2.2-2.7,5.2-4,8.7l0.2,0l0,0.3l-0.3,0c-0.4,1.3-0.9,2.6-1.3,4c4.1,0.4,8.5,0.4,12.5,0
		c-0.4-1.4-0.8-2.7-1.2-4l-0.5,0l0-0.3l0.4,0c-1.2-3.5-2.5-6.4-3.8-8.7l0.3-0.2c1.9,3.1,3.6,7.7,5.2,13.1c4-0.4,7.8-1.1,11-2.1
		c-5.1-5.8-11.1-10.2-17.5-12.5c-6.5,2.2-12.7,6.5-18,12.3c1.1,0.4,2.3,0.8,3.4,1c2.5,0.6,5.1,1,7.8,1.3c0.4-1.4,0.8-2.7,1.3-4
		L520.4,63.9z M513.8,52l0.7-0.2c3.6-0.3,7.5,0.2,11.5,1.6c4.2-1.4,8.1-1.8,11.9-1.3l0-0.1l0.7,0.2c1.8,0.3,3.5,0.8,5.1,1.4
		l-0.1,0.3c-0.4-0.2-0.8-0.3-1.3-0.5l0.3,0.1l-0.1,0.3l-0.7-0.3l0.1-0.3c-0.2-0.1-0.5-0.1-0.7-0.2l-0.1,0.2l-0.7-0.2l0.1-0.2
		l-0.7-0.2l-0.7-0.1c-3.9-0.7-8.2-0.4-12.6,1c4.8,1.8,9.4,4.8,13.6,8.7l0.6-0.2l0.1,0.3l-0.5,0.2c1.2,1.1,2.3,2.3,3.4,3.6
		c1.1-0.4,2.1-0.8,3-1.2c1.7-0.8,2.8-1.7,3.6-2.6c-1.6-1-3.2-2-4.8-2.8l-0.4,0.4l-0.3-0.2l0.3-0.4c-4.7-2.4-9.7-4.1-15-5l0.1-0.3
		c7.3,1.3,14.2,4.1,20.2,8.1c1-1.3,0.9-2.7,0-4.1c-1.5-0.7-3.1-1.4-4.7-1.9l-0.3,0.2l-0.3-0.4c-4.7-1.5-9.7-2.4-15-2.4v-0.4
		c5.3,0,10.4,0.8,15.1,2.4c1.6,0.5,3.1,1.1,4.5,1.8c-1.1-1.1-2.8-2.1-5.1-3l0.1-0.3c2.7,1,4.7,2.3,5.7,3.6c6.3,3,11.7,7.4,15.8,12.9
		l-0.3,0.2c-3.9-5.2-9.1-9.5-15.1-12.5c0.7,1.3,0.7,2.7-0.3,4c7.1,4.7,13.1,11.1,17.3,18.4c1.6-2.2,1.6-4.5,0.3-6.6l0.3-0.2
		c1.5,2.4,1.4,4.8-0.4,7.2c0.7,1.3,1.4,2.6,2,3.9l0.1-0.2l0.3,0.2l-0.2,0.3c2.8,6.2,4.4,12.9,4.5,19.8c0.9-1.3,1.3-2.6,1.3-3.9h0.4
		c0,1.5-0.6,3-1.7,4.5c0,8.5-2.3,16.3-6.3,22.8c-0.1,0.2-0.3,0.5-0.4,0.7c-0.7,1-1.4,2.1-2.1,3l-0.3-0.2c0.3-0.4,0.6-0.8,0.9-1.3
		c-1.3,1.1-2.9,2.2-5,3.2c-1.6,0.8-3.4,1.5-5.4,2.1c-2.7,5.2-6.3,9.2-10.7,11.6l0.1,0.2c-0.7,0.3-1.4,0.5-2.1,0.8
		c-0.6,0.3-1.2,0.5-1.8,0.7l0-0.1c-1.7,0.5-3.6,0.9-5.6,1.2l0.1,0.3l-0.7,0.1l-0.1-0.3c-1,0.1-2.1,0.3-3.2,0.4
		c-0.1,0.1-0.2,0.2-0.3,0.2l0,0.3l-0.5,0.1c-0.4,0.2-0.8,0.3-1.2,0.4l0-0.3l-0.4,0l0-0.3l0.7-0.1l0,0.2c0.2-0.1,0.5-0.1,0.7-0.2
		c0.2-0.1,0.3-0.1,0.3-0.2c-3.9,0.3-7.9,0.3-11.8,0c0.1,0.1,0.2,0.1,0.3,0.1l0.6,0.1l0,0.2c0.2,0.1,0.4,0.1,0.6,0.1l0,0.4
		c-0.4,0-0.8-0.2-1.2-0.4c-0.3-0.1-0.6-0.3-0.8-0.5c-1-0.1-2-0.2-3-0.3l0.3,0.1l-0.1,0.3l-0.7-0.1l0.1-0.3l-0.7-0.1l-0.1,0.3
		l-0.7-0.2l0.1-0.2c-1.1-0.2-2.2-0.4-3.2-0.7c-1-0.2-1.9-0.5-2.7-0.7c-0.4-0.1-0.7-0.2-1-0.3c-0.4-0.1-0.8-0.3-1.2-0.5
		c-4.9-2.6-9-6.7-11.9-12.3c-4.2-1.5-7.3-3.2-9.4-5.1l0.4,0.6l-0.3,0.2c-0.6-0.8-1.2-1.6-1.7-2.5c-0.1-0.2-0.3-0.4-0.4-0.5
		c-4-6.6-6.4-14.4-6.4-22.9c-1.1-1.4-1.6-2.9-1.6-4.4h0.4c0,1.3,0.4,2.5,1.2,3.8c0.1-8.6,2.5-16.8,6.7-24.1
		c-1.7-2.3-1.8-4.7-0.3-7.1l0.3,0.2c-1.4,2.1-1.3,4.4,0.2,6.5c4.2-7.3,10.2-13.6,17.4-18.4c-0.9-1.2-1.3-2.5-0.5-3.8
		c-5.6,2.8-10.5,6.8-14.3,11.7l-0.3-0.2c4-5.1,9.1-9.2,15-12.1c0.9-1.1,2.5-2.3,5.2-3.4l0.1,0.3c-2.1,0.9-3.5,1.8-4.4,2.7
		c1.5-0.7,3.1-1.3,4.7-1.8l0.3-0.3l0.2,0.2c4.6-1.5,9.5-2.2,14.7-2.2v0.4c-5.3,0-10.3,0.8-14.9,2.3l-0.1,0.2
		c-1.9,0.5-3.6,1.2-5.3,2.1c-1,1.4-0.8,2.7,0.1,3.9c1.5-1,3.1-1.9,4.8-2.8l0.2-0.3l0.1,0.2c4.7-2.4,9.8-4.1,15.1-5.1l0.1,0.3
		c-5.3,0.9-10.3,2.6-15,5l-0.2,0.3l-0.1-0.2c-1.6,0.8-3.2,1.8-4.8,2.8c1.3,1.4,3.6,2.7,6.1,3.6c1.1-1.2,2.3-2.4,3.5-3.5l-0.4-0.2
		l0.1-0.3l0.6,0.2c4.3-3.9,9-6.8,14-8.6c-4.3-1.4-8.4-1.8-12.2-1.1l-0.7,0.2c-0.3,0-0.5,0-0.7,0.1l0.1,0.1l-0.7,0.2l-0.1-0.2
		c-0.2,0.1-0.5,0.1-0.7,0.2l0.1,0.3l-0.7,0.3l-0.1-0.3l0.2-0.1l-0.1-0.3C511.1,52.5,512.4,52.1,513.8,52z M535.8,96.4l0.7-0.1l0,0.3
		l-0.7,0.1L535.8,96.4z M534.4,96.5l0.7-0.1l0,0.3l-0.7,0L534.4,96.5z M533,96.6l0.7,0l0,0.3l-0.7,0L533,96.6z M531.6,96.6l0.7,0
		l0,0.3l-0.7,0L531.6,96.6z M530.2,96.7l0.7,0l0,0.3l-0.7,0L530.2,96.7z M528.7,96.7l0.7,0l0,0.3l-0.7,0L528.7,96.7z M527.3,96.7
		l0.7,0l0,0.3l-0.7,0L527.3,96.7z M525.9,96.8h0.7v0.3h-0.7V96.8z M524.5,96.8l0.7,0l0,0.3l-0.7,0L524.5,96.8z M523.1,96.7l0.7,0
		l0,0.3l-0.7,0L523.1,96.7z M521.6,96.7l0.7,0l0,0.3l-0.7,0L521.6,96.7z M520.2,96.6l0.7,0l0,0.3l-0.7,0L520.2,96.6z M518.8,96.6
		l0.7,0l0,0.3l-0.7,0L518.8,96.6z M517.4,96.5l0.7,0l0,0.3l-0.7,0L517.4,96.5z M516,96.4l0.7,0l0,0.3l-0.7,0L516,96.4z M514.6,96.3
		l0.7,0.1l0,0.3l-0.7-0.1L514.6,96.3z M512.9,135.6l0.7,0.1l0,0.3l-0.7-0.1L512.9,135.6z M511.4,135.5l0.7,0.1l0,0.3l-0.7-0.1
		L511.4,135.5z M510,135.3l0.7,0.1l0,0.3l-0.7-0.1L510,135.3z M508.6,135.1l0.7,0.1l0,0.3l-0.7-0.1L508.6,135.1z M507.2,134.9
		l0.7,0.1l-0.1,0.3l-0.7-0.1L507.2,134.9z M505.8,134.7l0.7,0.1l-0.1,0.3l-0.7-0.1L505.8,134.7z M504.4,134.5l0.7,0.1l-0.1,0.3
		l-0.7-0.1L504.4,134.5z M503,134.2l0.7,0.1l-0.1,0.3l-0.7-0.1L503,134.2z M501.6,133.9l0.7,0.1l-0.1,0.3l-0.7-0.1L501.6,133.9z
		 M500.2,133.6l0.7,0.1l-0.1,0.3l-0.7-0.1L500.2,133.6z M498.9,133.3l0.7,0.2l-0.1,0.3l-0.7-0.2L498.9,133.3z M497.5,132.9l0.7,0.2
		l-0.1,0.3l-0.7-0.2L497.5,132.9z M496.1,132.5l0.7,0.2l-0.1,0.3l-0.7-0.2L496.1,132.5z M494.8,132.1l0.7,0.2l-0.1,0.3l-0.7-0.2
		L494.8,132.1z M493.4,131.7l0.7,0.2l-0.1,0.3l-0.7-0.2L493.4,131.7z M569,126l0.5-0.5l0.2,0.2l-0.5,0.5L569,126z M567.9,127
		l0.6-0.4l0.2,0.3l-0.6,0.5L567.9,127z M566.8,127.8l0.6-0.4l0.2,0.3L567,128L566.8,127.8z M565.6,128.5l0.6-0.4l0.2,0.3l-0.6,0.4
		L565.6,128.5z M564.4,129.2l0.6-0.3l0.2,0.3l-0.6,0.3L564.4,129.2z M563.1,129.8l0.6-0.3l0.1,0.3l-0.6,0.3L563.1,129.8z
		 M561.8,130.4l0.7-0.3l0.1,0.3l-0.7,0.3L561.8,130.4z M560.5,130.9l0.7-0.3l0.1,0.3l-0.7,0.3L560.5,130.9z M559.2,131.4l0.7-0.2
		l0.1,0.3l-0.7,0.2L559.2,131.4z M556.5,132.3l0.7-0.2l0.1,0.3l-0.7,0.2L556.5,132.3z M555.1,132.7l0.7-0.2l0.1,0.3l-0.7,0.2
		L555.1,132.7z M553.7,133.1l0.7-0.2l0.1,0.3l-0.7,0.2L553.7,133.1z M552.4,133.4l0.7-0.2l0.1,0.3l-0.7,0.2L552.4,133.4z M551,133.7
		l0.7-0.2l0.1,0.3l-0.7,0.2L551,133.7z M549.6,134l0.7-0.1l0.1,0.3l-0.7,0.2L549.6,134z M548.2,134.3l0.7-0.1l0.1,0.3l-0.7,0.1
		L548.2,134.3z M546.8,134.5l0.7-0.1l0.1,0.3l-0.7,0.1L546.8,134.5z M545.4,134.8l0.7-0.1l0.1,0.3l-0.7,0.1L545.4,134.8z M544,135
		l0.7-0.1l0,0.3l-0.7,0.1L544,135z M542.6,135.2l0.7-0.1l0,0.3l-0.7,0.1L542.6,135.2z M541.2,135.4l0.7-0.1l0,0.3l-0.7,0.1
		L541.2,135.4z M539.8,135.5l0.7-0.1l0,0.3l-0.7,0.1L539.8,135.5z M538.4,135.7l0.7-0.1l0,0.3l-0.7,0.1L538.4,135.7z M535.5,135.9
		l0.7,0l0,0.3l-0.7,0L535.5,135.9z M534.1,136l0.7-0.1l0,0.3l-0.7,0L534.1,136z M532.7,136.1l0.7,0l0,0.3l-0.7,0L532.7,136.1z
		 M531.3,136.2l0.7,0l0,0.3l-0.7,0L531.3,136.2z M529.9,136.2l0.7,0l0,0.3l-0.7,0L529.9,136.2z M528.4,136.2l0.7,0l0,0.3l-0.7,0
		L528.4,136.2z M527,136.3l0.7,0l0,0.3l-0.7,0L527,136.3z M525.6,136.3h0.7v0.3h-0.7V136.3z M524.2,136.3l0.7,0l0,0.3l-0.7,0
		L524.2,136.3z M522.8,136.2l0.7,0l0,0.3l-0.7,0L522.8,136.2z M521.3,136.2l0.7,0l0,0.3l-0.7,0L521.3,136.2z M519.9,136.1l0.7,0
		l0,0.3l-0.7,0L519.9,136.1z M518.5,136.1l0.7,0l0,0.3l-0.7,0L518.5,136.1z M517.1,136l0.7,0l0,0.3l-0.7,0L517.1,136z M515.7,135.9
		l0.7,0.1l0,0.3l-0.7-0.1L515.7,135.9z M514.3,135.8l0.7,0.1l0,0.3l-0.7-0.1L514.3,135.8z M490.7,130.7l0.7,0.3l-0.1,0.3l-0.7-0.3
		L490.7,130.7z M489.4,130.1l0.7,0.3l-0.1,0.3l-0.7-0.3L489.4,130.1z M488.2,129.5l0.6,0.3l-0.1,0.3l-0.7-0.3L488.2,129.5z
		 M486.9,128.9l0.6,0.3l-0.2,0.3l-0.6-0.3L486.9,128.9z M485.7,128.2l0.6,0.4l-0.2,0.3l-0.6-0.4L485.7,128.2z M484.5,127.4l0.6,0.4
		l-0.2,0.3l-0.6-0.4L484.5,127.4z M483.4,126.5l0.6,0.5l-0.2,0.3l-0.6-0.4L483.4,126.5z M482.4,125.6l0.5,0.5l-0.2,0.2l-0.5-0.5
		L482.4,125.6z M569.2,86.3l0.5-0.5l0.2,0.2l-0.5,0.5L569.2,86.3z M568.2,87.3l0.5-0.5l0.2,0.3l-0.5,0.5L568.2,87.3z M567.1,88.1
		l0.6-0.4l0.2,0.3l-0.6,0.4L567.1,88.1z M565.9,88.9l0.6-0.4l0.2,0.3l-0.6,0.4L565.9,88.9z M564.6,89.5l0.6-0.3l0.2,0.3l-0.6,0.3
		L564.6,89.5z M563.4,90.2l0.6-0.3l0.1,0.3l-0.6,0.3L563.4,90.2z M562.1,90.8l0.7-0.3l0.1,0.3l-0.7,0.3L562.1,90.8z M560.8,91.3
		l0.7-0.3l0.1,0.3l-0.7,0.3L560.8,91.3z M559.4,91.8l0.7-0.2l0.1,0.3l-0.7,0.2L559.4,91.8z M558.1,92.3l0.7-0.2l0.1,0.3l-0.7,0.2
		L558.1,92.3z M556.8,92.7l0.7-0.2l0.1,0.3l-0.7,0.2L556.8,92.7z M555.4,93.1l0.7-0.2l0.1,0.3l-0.7,0.2L555.4,93.1z M554,93.5
		l0.7-0.2l0.1,0.3l-0.7,0.2L554,93.5z M552.6,93.8l0.7-0.2l0.1,0.3l-0.7,0.2L552.6,93.8z M551.3,94.2L552,94l0.1,0.3l-0.7,0.2
		L551.3,94.2z M549.9,94.5l0.7-0.1l0.1,0.3l-0.7,0.1L549.9,94.5z M548.5,94.7l0.7-0.1l0.1,0.3l-0.7,0.1L548.5,94.7z M547.1,95
		l0.7-0.1l0.1,0.3l-0.7,0.1L547.1,95z M545.7,95.2l0.7-0.1l0.1,0.3l-0.7,0.1L545.7,95.2z M544.3,95.4l0.7-0.1l0.1,0.3l-0.7,0.1
		L544.3,95.4z M542.9,95.6l0.7-0.1l0,0.3l-0.7,0.1L542.9,95.6z M541.5,95.8l0.7-0.1l0,0.3l-0.7,0.1L541.5,95.8z M540.1,96l0.7-0.1
		l0,0.3l-0.7,0.1L540.1,96z M538.6,96.1l0.7-0.1l0,0.3l-0.7,0.1L538.6,96.1z M511.7,96l0.7,0.1l0,0.3l-0.7-0.1L511.7,96z
		 M510.3,95.8l0.7,0.1l0,0.3l-0.7-0.1L510.3,95.8z M508.9,95.7l0.7,0.1l0,0.3l-0.7-0.1L508.9,95.7z M507.5,95.5l0.7,0.1l0,0.3
		l-0.7-0.1L507.5,95.5z M506.1,95.2l0.7,0.1l-0.1,0.3l-0.7-0.1L506.1,95.2z M504.7,95l0.7,0.1l-0.1,0.3l-0.7-0.1L504.7,95z
		 M503.3,94.8l0.7,0.1l-0.1,0.3l-0.7-0.1L503.3,94.8z M501.9,94.5l0.7,0.2l-0.1,0.3l-0.7-0.2L501.9,94.5z M500.5,94.2l0.7,0.1
		l-0.1,0.3l-0.7-0.2L500.5,94.2z M499.2,93.8l0.7,0.2l-0.1,0.3l-0.7-0.2L499.2,93.8z M497.8,93.5l0.7,0.2l-0.1,0.3l-0.7-0.2
		L497.8,93.5z M496.4,93.1l0.7,0.2l-0.1,0.3l-0.7-0.2L496.4,93.1z M495,92.7l0.7,0.2l-0.1,0.3l-0.7-0.2L495,92.7z M493.7,92.3
		l0.7,0.2l-0.1,0.3l-0.7-0.2L493.7,92.3z M491,91.3l0.7,0.3l-0.1,0.3l-0.7-0.3L491,91.3z M489.7,90.7l0.7,0.3l-0.1,0.3l-0.7-0.3
		L489.7,90.7z M488.4,90.2l0.7,0.3l-0.1,0.3l-0.6-0.3L488.4,90.2z M487.2,89.5l0.6,0.3l-0.2,0.3l-0.6-0.3L487.2,89.5z M485.9,88.8
		l0.6,0.4l-0.2,0.3l-0.6-0.4L485.9,88.8z M484.8,88.1l0.6,0.4l-0.2,0.3l-0.6-0.4L484.8,88.1z M483.6,87.2l0.6,0.4l-0.2,0.3l-0.6-0.4
		L483.6,87.2z M482.6,86.3l0.5,0.5l-0.2,0.2l-0.5-0.5L482.6,86.3z M481.7,85.2l0.5,0.6l-0.3,0.2l-0.5-0.6L481.7,85.2z M538.7,62.6
		l0.7-0.2l0.1,0.3l-0.7,0.2L538.7,62.6z M537.3,63l0.7-0.2l0.1,0.3l-0.7,0.2L537.3,63z M535.9,63.3l0.7-0.1l0.1,0.3l-0.7,0.1
		L535.9,63.3z M534.5,63.5l0.7-0.1l0.1,0.3l-0.7,0.1L534.5,63.5z M533.1,63.7l0.7-0.1l0,0.3l-0.7,0.1L533.1,63.7z M531.7,63.9
		l0.7-0.1l0,0.3l-0.7,0.1L531.7,63.9z M528.9,64.1l0.7,0l0,0.3l-0.7,0L528.9,64.1z M527.5,64.2l0.7,0l0,0.3l-0.7,0L527.5,64.2z
		 M526.1,64.2h0.7v0.3h-0.7V64.2z M524.7,64.2l0.7,0l0,0.3l-0.7,0L524.7,64.2z M523.3,64.1l0.7,0l0,0.3l-0.7,0L523.3,64.1z
		 M521.8,64l0.7,0l0,0.3l-0.7,0L521.8,64z M519,63.8l0.7,0.1l0,0.3l-0.7-0.1L519,63.8z M517.6,63.6l0.7,0.1l0,0.3l-0.7-0.1
		L517.6,63.6z M516.2,63.4l0.7,0.1l-0.1,0.3l-0.7-0.1L516.2,63.4z M514.8,63.1l0.7,0.1l-0.1,0.3l-0.7-0.2L514.8,63.1z M513.5,62.7
		l0.7,0.2l-0.1,0.3l-0.7-0.2L513.5,62.7z M512.1,62.3l0.7,0.2l-0.1,0.3l-0.7-0.2L512.1,62.3z M534.2,150.7l0.7-0.1l0.1,0.3l-0.7,0.1
		L534.2,150.7z M532.8,150.9l0.7-0.1l0,0.3l-0.7,0.1L532.8,150.9z M528.5,151.3l0.7,0l0,0.3l-0.7,0L528.5,151.3z M527.1,151.3l0.7,0
		l0,0.3l-0.7,0L527.1,151.3z M525.7,151.3h0.7v0.3h-0.7V151.3z M524.3,151.3l0.7,0l0,0.3l-0.7,0L524.3,151.3z M522.9,151.3l0.7,0
		l0,0.3l-0.7,0L522.9,151.3z M521.4,151.2l0.7,0l0,0.3l-0.7-0.1L521.4,151.2z M518.6,150.9l0.7,0.1l0,0.3l-0.7-0.1L518.6,150.9z
		 M517.2,150.7l0.7,0.1l-0.1,0.3l-0.7-0.1L517.2,150.7z M571.6,80.2l-0.2-0.7l0.3-0.1l0.2,0.7L571.6,80.2z M571.7,81.5l0-0.7l0.3,0
		l0,0.7L571.7,81.5z M571.5,82.9l0.1-0.7l0.3,0.1l-0.1,0.7L571.5,82.9z M571,84.1l0.3-0.6l0.3,0.2l-0.3,0.6L571,84.1z M480.9,84.1
		l0.4,0.6l-0.3,0.2l-0.4-0.6L480.9,84.1z M480.4,82.8l0.2,0.7l-0.3,0.1l-0.2-0.7L480.4,82.8z M480.1,81.5l0.1,0.7l-0.3,0l-0.1-0.7
		L480.1,81.5z M480.3,80.1l-0.1,0.7l-0.3-0.1l0.1-0.7L480.3,80.1z M480.8,78.8l-0.3,0.7l-0.3-0.1l0.3-0.7L480.8,78.8z M543.7,54.4
		l-0.6-0.3l0.2-0.3l0.6,0.3L543.7,54.4z M544.8,55.2l-0.6-0.5l0.2-0.3L545,55L544.8,55.2z M546.1,57.5l-0.1-0.7l0.3-0.1l0.1,0.7
		L546.1,57.5z M545.8,58.7L546,58l0.3,0.1l-0.2,0.7L545.8,58.7z M543.9,60.5l0.6-0.4l0.2,0.3l-0.6,0.4L543.9,60.5z M542.6,61.2
		l0.6-0.3l0.2,0.3l-0.6,0.3L542.6,61.2z M541.3,61.8l0.7-0.3l0.1,0.3l-0.7,0.3L541.3,61.8z M509.5,61.3l0.7,0.3l-0.1,0.3l-0.7-0.3
		L509.5,61.3z M508.2,60.7l0.6,0.3l-0.2,0.3l-0.6-0.3L508.2,60.7z M507.1,59.8l0.6,0.5l-0.2,0.3l-0.6-0.5L507.1,59.8z M505.8,57.6
		l0.1,0.7l-0.3,0.1l-0.1-0.7L505.8,57.6z M506.1,56.4l-0.2,0.7l-0.3-0.1l0.2-0.7L506.1,56.4z M508,54.6l-0.6,0.4l-0.2-0.3l0.6-0.4
		L508,54.6z M509.2,53.9l-0.6,0.3l-0.2-0.3l0.6-0.3L509.2,53.9z"/>
	<g>
		<defs>
			<path id="SVGID_6_" d="M494.8,77.4c0-11.8,13.9-23.2,31.1-23.2c17.2,0,31.1,11.4,31.1,23.2c0,11.8-13.9,13.2-31.1,13.2
				C508.7,90.7,494.8,89.2,494.8,77.4z"/>
		</defs>
		<linearGradient id="SVGID_7_" gradientUnits="userSpaceOnUse" x1="525.848" y1="55.3368" x2="525.848" y2="89.684">
			<stop  offset="0" style="stop-color:#FFFFFF"/>
			<stop  offset="1" style="stop-color:#6EC1EC"/>
		</linearGradient>
		<use xlink:href="#SVGID_6_"  overflow="visible" fill-rule="evenodd" clip-rule="evenodd" fill="url(#SVGID_7_)"/>
		<clipPath id="SVGID_8_">
			<use xlink:href="#SVGID_6_"  overflow="visible"/>
		</clipPath>
		<path display="none" clip-path="url(#SVGID_8_)" fill="#FFFFFF" d="M521.4,50.5c1.1-0.1,2.3,0.4,3.5,1.6l-0.2,0.3
			c-1.1-1.1-2.2-1.6-3.2-1.5L521.4,50.5z M530.5,50.8c-1-0.1-2.1,0.4-3.3,1.5l-0.2-0.3c1.2-1.2,2.4-1.7,3.6-1.6L530.5,50.8z
			 M512.9,117.7c8.4,0.8,17.1,0.7,25.4,0c0-8.7-0.6-17.6-1.7-26c-7.1,0.6-14.7,0.6-21.9,0C513.6,100.1,512.9,109,512.9,117.7z
			 M512.6,118c-5.5-0.5-10.8-1.3-15.7-2.5c-2.6-0.6-4.9-1.3-7.1-2c0,8.6,1.8,16.1,4.9,22c1.9,0.7,3.9,1.3,6.2,1.8
			c4.2,1,8.7,1.7,13.4,2.2C513.2,133.8,512.6,126.5,512.6,118z M483.8,80.8c1.8,2.4,5.4,4.6,10.7,6.5c3.1-8,7.6-15.3,12.9-21.2
			c-2.5-1-4.8-2.3-6.1-3.7C494,67.1,488,73.5,483.8,80.8z M494.8,87.4c1.8,0.6,3.9,1.2,6.1,1.8c4.2,1,8.8,1.7,13.5,2.2
			c1.1-8.4,2.7-16.2,4.7-22.7c-2.7-0.3-5.4-0.7-7.8-1.3c-1.1-0.3-2.4-0.6-3.5-1.1C502.4,72.1,497.9,79.4,494.8,87.4z M514.7,91.4
			c7.2,0.6,14.7,0.6,21.9,0c-1.1-8.4-2.6-16.2-4.4-22.7c-4.1,0.4-8.5,0.4-12.7,0C517.5,75.2,515.9,83,514.7,91.4z M536.9,91.4
			c7.1-0.6,13.7-1.9,19.2-3.6c-3-8-7.3-15.3-12.5-21.2c-3.2,1-7.1,1.8-11.2,2.1C534.3,75.2,535.9,83,536.9,91.4z M556.5,87.6
			c1.9-0.6,3.7-1.3,5.3-2.1c3-1.5,5.1-3,6.3-4.6c-4.2-7.3-10.2-13.7-17.3-18.4c-0.8,0.9-2,1.8-3.7,2.7c-0.9,0.4-1.9,0.8-2.9,1.2
			C549.1,72.3,553.4,79.6,556.5,87.6z M543.7,148.3c5.1-2.2,9.3-6.4,12.4-12.2c-5.5,1.8-12.1,3-19.1,3.6c-1,5.2-2.5,8.9-4.2,10.7
			C536.8,150.1,540.5,149.4,543.7,148.3z M532.2,150.5c1.8-1.6,3.3-5.3,4.4-10.7c-7.1,0.6-14.6,0.6-21.8,0c1.1,5.4,2.7,9.1,4.6,10.7
			C523.6,150.9,528,150.9,532.2,150.5z M518.8,150.4c-1.8-1.8-3.3-5.5-4.4-10.7c-4.7-0.4-9.3-1.2-13.6-2.2c-2.1-0.5-4.1-1.1-5.9-1.7
			c3.1,5.8,7.5,10,12.7,12.3c1.1,0.4,2.3,0.7,3.7,1.1C513.7,149.8,516.2,150.2,518.8,150.4z M558.4,131.7l0.1,0l0.1,0.3l-0.4,0.1
			c-0.5,1.2-1,2.4-1.5,3.5c1.8-0.6,3.5-1.3,5-2c3-1.5,5.1-3.1,6.4-4.7c0.8-1.2,1.5-2.4,2.1-3.7L570,125l0.5-0.6
			c2.7-5.5,4.2-11.7,4.3-18.4c-1.5,1.8-3.9,3.5-7.2,5.1c-1.9,0.9-3.9,1.7-6.2,2.5C561.3,120.4,560.3,126.5,558.4,131.7z
			 M537.6,135.7l0.1,0.3l-0.1,0c-0.2,1.2-0.3,2.3-0.5,3.3c7.1-0.6,13.7-1.9,19.2-3.7c0.6-1.2,1.1-2.4,1.6-3.7l0-0.1
			c2-5.2,3.1-11.3,3.2-18.1c-6.4,2.1-14.1,3.5-22.3,4.2C538.7,124.8,538.3,130.8,537.6,135.7z M536.9,135.8l0.3,0
			c0.7-4.9,1.1-10.9,1.1-17.7c-8.3,0.7-17,0.7-25.4,0c0,8.6,0.7,15.9,1.8,21.4c7.2,0.7,14.8,0.6,22,0c0.2-1,0.4-2.2,0.6-3.3l-0.2,0
			L536.9,135.8z M480.9,123.6l0.2,0.4l0.3,0.6l0.6,0.5l-0.2,0.2c0.6,1.2,1.3,2.4,2,3.5c1.8,2.4,5.3,4.6,10.5,6.5
			c-0.6-1.1-1.1-2.3-1.6-3.5l-0.7-0.2l0.1-0.3l0.4,0.1c-2-5.2-3.1-11.3-3.1-18c-5.9-2.1-10.1-4.6-12.4-7.4
			C477.1,112.3,478.5,118.3,480.9,123.6z M570.2,85.3c-0.6-1.4-1.2-2.8-2-4.1c-1.3,1.6-3.4,3.2-6.3,4.6c-1.6,0.8-3.4,1.5-5.3,2.1
			c3,8,4.7,16.7,4.8,25.4c2.2-0.7,4.2-1.5,6-2.4c3.5-1.7,5.9-3.5,7.4-5.4c0-7-1.6-13.8-4.4-20.1L570.2,85.3z M537.5,96.2l0.4,0
			l0,0.3l-0.4,0c0.7,6.9,1.1,14.1,1.1,21.1c8.2-0.7,15.9-2.2,22.3-4.2c0-8.6-1.7-17.4-4.7-25.4c-5.5,1.8-12.2,3-19.3,3.7
			C537.2,93.2,537.4,94.7,537.5,96.2z M513.1,96.2l0.6,0.1c0.2-1.5,0.4-3,0.6-4.5c-4.7-0.4-9.3-1.2-13.5-2.2
			c-2.2-0.5-4.3-1.1-6.2-1.8c-3.1,8-4.9,16.7-4.9,25.3c2.2,0.8,4.5,1.4,7.2,2.1c4.9,1.2,10.2,2,15.6,2.5c0-7,0.4-14.2,1.2-21.1
			l-0.6-0.1L513.1,96.2z M492.3,91.8l0.4,0.2c0.5-1.5,1-2.9,1.5-4.3c-5.2-1.8-8.8-4.1-10.7-6.5c-4.1,7.3-6.5,15.6-6.5,24.2
			c2.1,2.8,6.3,5.4,12.4,7.6c0-7,1.2-14,3.3-20.7l-0.5-0.2L492.3,91.8z M520.4,63.9c1.4-3.5,2.7-6.5,4.2-8.8l0.3,0.2
			c-1.4,2.2-2.7,5.2-4,8.7l0.2,0l0,0.3l-0.3,0c-0.4,1.3-0.9,2.6-1.3,4c4.1,0.4,8.5,0.4,12.5,0c-0.4-1.4-0.8-2.7-1.2-4l-0.5,0l0-0.3
			l0.4,0c-1.2-3.5-2.5-6.4-3.8-8.7l0.3-0.2c1.9,3.1,3.6,7.7,5.2,13.1c4-0.4,7.8-1.1,11-2.1c-5.1-5.8-11.1-10.2-17.5-12.5
			c-6.5,2.2-12.7,6.5-18,12.3c1.1,0.4,2.3,0.8,3.4,1c2.4,0.6,5.1,1,7.8,1.3c0.4-1.4,0.8-2.7,1.3-4L520.4,63.9z M513.8,52l0.7-0.2
			c3.6-0.3,7.5,0.2,11.5,1.6c4.2-1.4,8.1-1.8,11.9-1.3l0-0.1l0.7,0.2c1.8,0.3,3.5,0.8,5.1,1.4l-0.1,0.3c-0.4-0.2-0.8-0.3-1.3-0.5
			l0.3,0.1l-0.1,0.3l-0.7-0.3l0.1-0.3c-0.2-0.1-0.5-0.1-0.7-0.2l-0.1,0.2l-0.7-0.2l0.1-0.2l-0.7-0.2l-0.7-0.1
			c-3.9-0.7-8.2-0.4-12.6,1c4.8,1.8,9.4,4.8,13.6,8.7l0.6-0.2l0.1,0.3l-0.5,0.2c1.2,1.1,2.3,2.3,3.4,3.6c1.1-0.4,2.1-0.8,3-1.2
			c1.7-0.8,2.8-1.7,3.6-2.6c-1.5-1-3.2-2-4.8-2.8l-0.4,0.4l-0.3-0.2l0.3-0.4c-4.7-2.4-9.7-4.1-15-5l0.1-0.3
			c7.3,1.3,14.2,4.1,20.2,8.1c1-1.3,1-2.7,0-4.1c-1.5-0.7-3.1-1.4-4.7-1.9l-0.3,0.2l-0.3-0.4c-4.7-1.5-9.7-2.4-15-2.4v-0.4
			c5.3,0,10.4,0.8,15.1,2.4c1.6,0.5,3.1,1.1,4.5,1.8c-1.1-1.1-2.8-2.1-5.1-3l0.1-0.3c2.7,1,4.7,2.3,5.7,3.6
			c6.3,3,11.7,7.4,15.8,12.9l-0.3,0.2c-3.9-5.2-9.1-9.5-15.1-12.5c0.7,1.3,0.7,2.7-0.3,4c7.1,4.7,13.1,11.1,17.3,18.4
			c1.6-2.2,1.6-4.5,0.3-6.6l0.3-0.2c1.5,2.4,1.4,4.8-0.4,7.2c0.7,1.3,1.4,2.6,2,3.9l0.1-0.2l0.3,0.2l-0.2,0.3
			c2.8,6.2,4.4,12.9,4.5,19.8c0.9-1.3,1.3-2.6,1.3-3.9h0.4c0,1.5-0.6,3-1.7,4.5c0,8.5-2.3,16.3-6.3,22.8c-0.1,0.2-0.3,0.5-0.4,0.7
			c-0.7,1-1.4,2.1-2.1,3l-0.3-0.2c0.3-0.4,0.6-0.8,0.9-1.3c-1.3,1.1-2.9,2.2-5,3.2c-1.6,0.8-3.4,1.5-5.4,2.1
			c-2.7,5.2-6.3,9.2-10.7,11.6l0.1,0.2c-0.7,0.3-1.4,0.5-2.1,0.8c-0.6,0.3-1.2,0.5-1.8,0.7l0-0.1c-1.7,0.5-3.6,0.9-5.6,1.2l0.1,0.3
			l-0.7,0.1l-0.1-0.3c-1,0.1-2.1,0.3-3.2,0.4c-0.1,0.1-0.2,0.2-0.3,0.2l0,0.3l-0.5,0.1c-0.4,0.2-0.8,0.3-1.2,0.4l0-0.3l-0.4,0l0-0.3
			l0.7-0.1l0,0.2c0.2-0.1,0.5-0.1,0.7-0.2c0.2-0.1,0.3-0.1,0.3-0.2c-3.9,0.3-7.9,0.3-11.8,0c0.1,0.1,0.2,0.1,0.3,0.1l0.6,0.1l0,0.2
			c0.2,0.1,0.4,0.1,0.6,0.1l0,0.4c-0.4,0-0.8-0.2-1.2-0.4c-0.3-0.1-0.6-0.3-0.8-0.5c-1-0.1-2-0.2-3-0.3l0.3,0.1l-0.1,0.3l-0.7-0.1
			l0.1-0.3l-0.7-0.1l-0.1,0.3l-0.7-0.2l0.1-0.2c-1.1-0.2-2.2-0.4-3.2-0.7c-1-0.2-1.9-0.5-2.7-0.7c-0.4-0.1-0.7-0.2-1-0.3
			c-0.4-0.1-0.8-0.3-1.2-0.5c-4.9-2.6-9-6.7-11.9-12.3c-4.2-1.5-7.3-3.2-9.4-5.1l0.4,0.6l-0.3,0.2c-0.6-0.8-1.2-1.6-1.7-2.5
			c-0.1-0.2-0.3-0.4-0.4-0.5c-4-6.6-6.4-14.4-6.4-22.9c-1.1-1.4-1.6-2.9-1.6-4.4h0.4c0,1.3,0.4,2.5,1.2,3.8c0.1-8.6,2.5-16.8,6.7-24
			c-1.7-2.3-1.8-4.7-0.3-7.1l0.3,0.2c-1.4,2.1-1.3,4.4,0.2,6.5c4.2-7.3,10.3-13.6,17.4-18.4c-0.9-1.2-1.3-2.4-0.5-3.8
			c-5.6,2.8-10.5,6.8-14.3,11.7l-0.3-0.2c4-5.1,9.1-9.2,15-12.1c0.9-1.1,2.5-2.3,5.2-3.4l0.1,0.3c-2.1,0.9-3.5,1.8-4.4,2.7
			c1.5-0.7,3.1-1.3,4.7-1.9l0.3-0.3l0.2,0.2c4.6-1.5,9.5-2.2,14.7-2.2v0.4c-5.3,0-10.3,0.8-14.9,2.3l-0.1,0.2
			c-1.9,0.5-3.6,1.2-5.3,2.1c-1,1.4-0.8,2.7,0.1,3.9c1.5-1,3.1-1.9,4.8-2.8l0.2-0.3l0.1,0.2c4.7-2.4,9.8-4.1,15.1-5.1l0.1,0.3
			c-5.3,0.9-10.3,2.6-15,5l-0.2,0.3l-0.1-0.2c-1.6,0.8-3.2,1.8-4.8,2.8c1.3,1.4,3.6,2.7,6.1,3.6c1.1-1.2,2.3-2.4,3.5-3.5l-0.4-0.2
			l0.1-0.3l0.6,0.2c4.3-3.9,9-6.8,14-8.6c-4.3-1.4-8.4-1.8-12.2-1.1l-0.7,0.2c-0.3,0-0.5,0-0.7,0.1l0.1,0.1l-0.7,0.2l-0.1-0.2
			c-0.2,0.1-0.5,0.1-0.7,0.2l0.1,0.2l-0.7,0.3l-0.1-0.3l0.2-0.1l-0.1-0.3C511.1,52.5,512.4,52.1,513.8,52z M535.8,96.4l0.7-0.1
			l0,0.3l-0.7,0.1L535.8,96.4z M534.4,96.5l0.7-0.1l0,0.3l-0.7,0L534.4,96.5z M533,96.6l0.7,0l0,0.3l-0.7,0L533,96.6z M531.6,96.6
			l0.7,0l0,0.3l-0.7,0L531.6,96.6z M530.2,96.7l0.7,0l0,0.3l-0.7,0L530.2,96.7z M528.7,96.7l0.7,0l0,0.3l-0.7,0L528.7,96.7z
			 M527.3,96.8l0.7,0l0,0.3l-0.7,0L527.3,96.8z M525.9,96.8h0.7v0.3h-0.7V96.8z M524.5,96.8l0.7,0l0,0.3l-0.7,0L524.5,96.8z
			 M523.1,96.7l0.7,0l0,0.3l-0.7,0L523.1,96.7z M521.6,96.7l0.7,0l0,0.3l-0.7,0L521.6,96.7z M520.2,96.6l0.7,0l0,0.3l-0.7,0
			L520.2,96.6z M518.8,96.6l0.7,0l0,0.3l-0.7,0L518.8,96.6z M517.4,96.5l0.7,0l0,0.3l-0.7,0L517.4,96.5z M516,96.4l0.7,0l0,0.3
			l-0.7,0L516,96.4z M514.6,96.3l0.7,0.1l0,0.3l-0.7-0.1L514.6,96.3z M512.9,135.6l0.7,0.1l0,0.3l-0.7-0.1L512.9,135.6z
			 M511.4,135.5l0.7,0.1l0,0.3l-0.7-0.1L511.4,135.5z M510,135.3l0.7,0.1l0,0.3l-0.7-0.1L510,135.3z M508.6,135.1l0.7,0.1l0,0.3
			l-0.7-0.1L508.6,135.1z M507.2,134.9l0.7,0.1l-0.1,0.3l-0.7-0.1L507.2,134.9z M505.8,134.7l0.7,0.1l-0.1,0.3l-0.7-0.1L505.8,134.7
			z M504.4,134.5l0.7,0.1l-0.1,0.3l-0.7-0.1L504.4,134.5z M503,134.2l0.7,0.1l-0.1,0.3l-0.7-0.1L503,134.2z M501.6,133.9l0.7,0.1
			l-0.1,0.3l-0.7-0.1L501.6,133.9z M500.2,133.6l0.7,0.1l-0.1,0.3l-0.7-0.2L500.2,133.6z M498.9,133.3l0.7,0.2l-0.1,0.3l-0.7-0.2
			L498.9,133.3z M497.5,132.9l0.7,0.2l-0.1,0.3l-0.7-0.2L497.5,132.9z M496.1,132.5l0.7,0.2l-0.1,0.3l-0.7-0.2L496.1,132.5z
			 M494.8,132.1l0.7,0.2l-0.1,0.3l-0.7-0.2L494.8,132.1z M493.4,131.7l0.7,0.2l-0.1,0.3l-0.7-0.2L493.4,131.7z M569,126l0.5-0.5
			l0.2,0.2l-0.5,0.5L569,126z M567.9,127l0.6-0.4l0.2,0.3l-0.6,0.5L567.9,127z M566.8,127.8l0.6-0.4l0.2,0.3l-0.6,0.4L566.8,127.8z
			 M565.6,128.5l0.6-0.4l0.2,0.3l-0.6,0.4L565.6,128.5z M564.4,129.2l0.6-0.3l0.2,0.3l-0.6,0.3L564.4,129.2z M563.1,129.8l0.6-0.3
			l0.1,0.3l-0.6,0.3L563.1,129.8z M561.8,130.4l0.7-0.3l0.1,0.3l-0.7,0.3L561.8,130.4z M560.5,130.9l0.7-0.3l0.1,0.3l-0.7,0.3
			L560.5,130.9z M559.2,131.4l0.7-0.2l0.1,0.3l-0.7,0.2L559.2,131.4z M556.5,132.3l0.7-0.2l0.1,0.3l-0.7,0.2L556.5,132.3z
			 M555.1,132.7l0.7-0.2l0.1,0.3l-0.7,0.2L555.1,132.7z M553.7,133.1l0.7-0.2l0.1,0.3l-0.7,0.2L553.7,133.1z M552.4,133.4l0.7-0.2
			l0.1,0.3l-0.7,0.2L552.4,133.4z M551,133.7l0.7-0.2l0.1,0.3l-0.7,0.2L551,133.7z M549.6,134l0.7-0.1l0.1,0.3l-0.7,0.1L549.6,134z
			 M548.2,134.3l0.7-0.1l0.1,0.3l-0.7,0.1L548.2,134.3z M546.8,134.5l0.7-0.1l0.1,0.3l-0.7,0.1L546.8,134.5z M545.4,134.8l0.7-0.1
			l0.1,0.3l-0.7,0.1L545.4,134.8z M544,135l0.7-0.1l0,0.3l-0.7,0.1L544,135z M542.6,135.2l0.7-0.1l0,0.3l-0.7,0.1L542.6,135.2z
			 M541.2,135.4l0.7-0.1l0,0.3l-0.7,0.1L541.2,135.4z M539.8,135.5l0.7-0.1l0,0.3l-0.7,0.1L539.8,135.5z M538.4,135.7l0.7-0.1l0,0.3
			l-0.7,0.1L538.4,135.7z M535.5,135.9l0.7,0l0,0.3l-0.7,0L535.5,135.9z M534.1,136l0.7-0.1l0,0.3l-0.7,0L534.1,136z M532.7,136.1
			l0.7,0l0,0.3l-0.7,0L532.7,136.1z M531.3,136.2l0.7,0l0,0.3l-0.7,0L531.3,136.2z M529.9,136.2l0.7,0l0,0.3l-0.7,0L529.9,136.2z
			 M528.4,136.2l0.7,0l0,0.3l-0.7,0L528.4,136.2z M527,136.3l0.7,0l0,0.3l-0.7,0L527,136.3z M525.6,136.3h0.7v0.3h-0.7V136.3z
			 M524.2,136.3l0.7,0l0,0.3l-0.7,0L524.2,136.3z M522.8,136.2l0.7,0l0,0.3l-0.7,0L522.8,136.2z M521.3,136.2l0.7,0l0,0.3l-0.7,0
			L521.3,136.2z M519.9,136.1l0.7,0l0,0.3l-0.7,0L519.9,136.1z M518.5,136.1l0.7,0l0,0.3l-0.7,0L518.5,136.1z M517.1,136l0.7,0
			l0,0.3l-0.7,0L517.1,136z M515.7,135.9l0.7,0.1l0,0.3l-0.7-0.1L515.7,135.9z M514.3,135.8l0.7,0.1l0,0.3l-0.7-0.1L514.3,135.8z
			 M490.7,130.7l0.7,0.3l-0.1,0.3l-0.7-0.3L490.7,130.7z M489.4,130.1l0.7,0.3l-0.1,0.3l-0.7-0.3L489.4,130.1z M488.2,129.5l0.6,0.3
			l-0.1,0.3l-0.7-0.3L488.2,129.5z M486.9,128.9l0.6,0.3l-0.2,0.3l-0.6-0.3L486.9,128.9z M485.7,128.2l0.6,0.4l-0.2,0.3l-0.6-0.4
			L485.7,128.2z M484.5,127.4l0.6,0.4l-0.2,0.3l-0.6-0.4L484.5,127.4z M483.4,126.5l0.6,0.5l-0.2,0.3l-0.6-0.4L483.4,126.5z
			 M482.4,125.6l0.5,0.5l-0.2,0.2l-0.5-0.5L482.4,125.6z M569.2,86.3l0.5-0.5l0.2,0.2l-0.5,0.5L569.2,86.3z M568.2,87.3l0.6-0.5
			l0.2,0.3l-0.6,0.5L568.2,87.3z M567.1,88.1l0.6-0.4l0.2,0.3l-0.6,0.4L567.1,88.1z M565.9,88.9l0.6-0.4l0.2,0.3l-0.6,0.4
			L565.9,88.9z M564.6,89.6l0.6-0.3l0.2,0.3l-0.6,0.3L564.6,89.6z M563.4,90.2l0.6-0.3l0.1,0.3l-0.6,0.3L563.4,90.2z M562.1,90.8
			l0.7-0.3l0.1,0.3l-0.7,0.3L562.1,90.8z M560.8,91.3l0.7-0.3l0.1,0.3l-0.7,0.3L560.8,91.3z M559.4,91.8l0.7-0.2l0.1,0.3l-0.7,0.2
			L559.4,91.8z M558.1,92.3l0.7-0.2l0.1,0.3l-0.7,0.2L558.1,92.3z M556.8,92.7l0.7-0.2l0.1,0.3l-0.7,0.2L556.8,92.7z M555.4,93.1
			l0.7-0.2l0.1,0.3l-0.7,0.2L555.4,93.1z M554,93.5l0.7-0.2l0.1,0.3l-0.7,0.2L554,93.5z M552.6,93.8l0.7-0.2l0.1,0.3l-0.7,0.2
			L552.6,93.8z M551.3,94.2L552,94l0.1,0.3l-0.7,0.2L551.3,94.2z M549.9,94.5l0.7-0.2l0.1,0.3l-0.7,0.1L549.9,94.5z M548.5,94.7
			l0.7-0.1l0.1,0.3l-0.7,0.1L548.5,94.7z M547.1,95l0.7-0.1l0.1,0.3l-0.7,0.1L547.1,95z M545.7,95.2l0.7-0.1l0.1,0.3l-0.7,0.1
			L545.7,95.2z M544.3,95.4l0.7-0.1l0.1,0.3l-0.7,0.1L544.3,95.4z M542.9,95.6l0.7-0.1l0,0.3l-0.7,0.1L542.9,95.6z M541.5,95.8
			l0.7-0.1l0,0.3l-0.7,0.1L541.5,95.8z M540.1,96l0.7-0.1l0,0.3l-0.7,0.1L540.1,96z M538.6,96.1l0.7-0.1l0,0.3l-0.7,0.1L538.6,96.1z
			 M511.7,96l0.7,0.1l0,0.3l-0.7-0.1L511.7,96z M510.3,95.8l0.7,0.1l0,0.3l-0.7-0.1L510.3,95.8z M508.9,95.7l0.7,0.1l0,0.3l-0.7-0.1
			L508.9,95.7z M507.5,95.5l0.7,0.1l0,0.3l-0.7-0.1L507.5,95.5z M506.1,95.2l0.7,0.1l-0.1,0.3l-0.7-0.1L506.1,95.2z M504.7,95
			l0.7,0.1l-0.1,0.3l-0.7-0.1L504.7,95z M503.3,94.8l0.7,0.1l-0.1,0.3l-0.7-0.1L503.3,94.8z M501.9,94.5l0.7,0.2l-0.1,0.3l-0.7-0.1
			L501.9,94.5z M500.5,94.2l0.7,0.2l-0.1,0.3l-0.7-0.1L500.5,94.2z M499.2,93.8l0.7,0.2l-0.1,0.3l-0.7-0.2L499.2,93.8z M497.8,93.5
			l0.7,0.2l-0.1,0.3l-0.7-0.2L497.8,93.5z M496.4,93.1l0.7,0.2l-0.1,0.3l-0.7-0.2L496.4,93.1z M495,92.7l0.7,0.2l-0.1,0.3l-0.7-0.2
			L495,92.7z M493.7,92.3l0.7,0.2l-0.1,0.3l-0.7-0.2L493.7,92.3z M491,91.3l0.7,0.3l-0.1,0.3l-0.7-0.3L491,91.3z M489.7,90.8
			l0.7,0.3l-0.1,0.3l-0.7-0.3L489.7,90.8z M488.4,90.2l0.7,0.3l-0.1,0.3l-0.6-0.3L488.4,90.2z M487.2,89.5l0.6,0.3l-0.2,0.3
			l-0.6-0.3L487.2,89.5z M485.9,88.8l0.6,0.4l-0.2,0.3l-0.6-0.4L485.9,88.8z M484.8,88.1l0.6,0.4l-0.2,0.3l-0.6-0.4L484.8,88.1z
			 M483.6,87.2l0.6,0.4l-0.2,0.3l-0.6-0.4L483.6,87.2z M482.6,86.3l0.5,0.5l-0.2,0.2l-0.5-0.5L482.6,86.3z M481.7,85.2l0.5,0.6
			l-0.3,0.2l-0.5-0.6L481.7,85.2z M538.7,62.7l0.7-0.2l0.1,0.3l-0.7,0.2L538.7,62.7z M537.3,63l0.7-0.2l0.1,0.3l-0.7,0.2L537.3,63z
			 M535.9,63.3l0.7-0.1l0.1,0.3l-0.7,0.1L535.9,63.3z M534.5,63.5l0.7-0.1l0.1,0.3l-0.7,0.1L534.5,63.5z M533.1,63.7l0.7-0.1l0,0.3
			l-0.7,0.1L533.1,63.7z M531.7,63.9l0.7-0.1l0,0.3l-0.7,0.1L531.7,63.9z M528.9,64.1l0.7,0l0,0.3l-0.7,0L528.9,64.1z M527.5,64.2
			l0.7,0l0,0.3l-0.7,0L527.5,64.2z M526.1,64.2h0.7v0.3h-0.7V64.2z M524.7,64.2l0.7,0l0,0.3l-0.7,0L524.7,64.2z M523.3,64.1l0.7,0
			l0,0.3l-0.7,0L523.3,64.1z M521.8,64.1l0.7,0l0,0.3l-0.7,0L521.8,64.1z M519,63.8l0.7,0.1l0,0.3l-0.7-0.1L519,63.8z M517.6,63.6
			l0.7,0.1l0,0.3l-0.7-0.1L517.6,63.6z M516.2,63.4l0.7,0.1l-0.1,0.3l-0.7-0.1L516.2,63.4z M514.8,63.1l0.7,0.1l-0.1,0.3l-0.7-0.1
			L514.8,63.1z M513.5,62.7l0.7,0.2l-0.1,0.3l-0.7-0.2L513.5,62.7z M512.1,62.3l0.7,0.2l-0.1,0.3l-0.7-0.2L512.1,62.3z M534.2,150.7
			l0.7-0.1l0.1,0.3l-0.7,0.1L534.2,150.7z M532.8,150.9l0.7-0.1l0,0.3l-0.7,0.1L532.8,150.9z M528.5,151.3l0.7,0l0,0.3l-0.7,0
			L528.5,151.3z M527.1,151.3l0.7,0l0,0.3l-0.7,0L527.1,151.3z M525.7,151.3h0.7v0.3h-0.7V151.3z M524.3,151.3l0.7,0l0,0.3l-0.7,0
			L524.3,151.3z M522.9,151.3l0.7,0l0,0.3l-0.7,0L522.9,151.3z M521.4,151.2l0.7,0l0,0.3l-0.7-0.1L521.4,151.2z M518.6,150.9
			l0.7,0.1l0,0.3l-0.7-0.1L518.6,150.9z M517.2,150.7l0.7,0.1l-0.1,0.3l-0.7-0.1L517.2,150.7z M571.6,80.2l-0.2-0.7l0.3-0.1l0.2,0.7
			L571.6,80.2z M571.7,81.5l0-0.7l0.3,0l0,0.7L571.7,81.5z M571.5,82.9l0.1-0.7l0.3,0.1l-0.1,0.7L571.5,82.9z M571,84.1l0.3-0.6
			l0.3,0.2l-0.3,0.6L571,84.1z M480.9,84.1l0.4,0.6l-0.3,0.2l-0.4-0.6L480.9,84.1z M480.4,82.8l0.2,0.7l-0.3,0.1l-0.2-0.7
			L480.4,82.8z M480.1,81.5l0.1,0.7l-0.3,0l-0.1-0.7L480.1,81.5z M480.3,80.1l-0.1,0.7l-0.3-0.1l0.1-0.7L480.3,80.1z M480.8,78.8
			l-0.3,0.7l-0.3-0.1l0.3-0.7L480.8,78.8z M543.7,54.4l-0.6-0.3l0.2-0.3l0.6,0.3L543.7,54.4z M544.8,55.3l-0.6-0.5l0.2-0.3L545,55
			L544.8,55.3z M546.1,57.5l-0.1-0.7l0.3-0.1l0.1,0.7L546.1,57.5z M545.8,58.7L546,58l0.3,0.1l-0.2,0.7L545.8,58.7z M543.9,60.5
			l0.6-0.4l0.2,0.3l-0.6,0.4L543.9,60.5z M542.6,61.2l0.6-0.3l0.2,0.3l-0.6,0.3L542.6,61.2z M541.3,61.8l0.7-0.3l0.1,0.3l-0.7,0.3
			L541.3,61.8z M509.5,61.3l0.7,0.3l-0.1,0.3l-0.7-0.3L509.5,61.3z M508.2,60.7l0.6,0.3l-0.2,0.3l-0.6-0.3L508.2,60.7z M507.1,59.8
			l0.6,0.4l-0.2,0.3l-0.6-0.5L507.1,59.8z M505.8,57.6l0.1,0.7l-0.3,0.1l-0.1-0.7L505.8,57.6z M506.1,56.4l-0.2,0.7l-0.3-0.1
			l0.2-0.7L506.1,56.4z M508,54.6l-0.6,0.4l-0.2-0.3l0.6-0.4L508,54.6z M509.2,53.9l-0.6,0.3l-0.2-0.3l0.6-0.3L509.2,53.9z"/>
	</g>
	<g>
		<defs>
			<path id="SVGID_9_" d="M474.9,101.4c0-1,0-1.9,0.1-2.9c1.5,22.4,28.8,34.4,50.9,34.4c22.1,0,49.4-12,50.9-34.4
				c0.1,1,0.1,1.9,0.1,2.9c0,28.1-22.8,51-50.9,51C497.7,152.3,474.9,129.5,474.9,101.4z"/>
		</defs>
		<clipPath id="SVGID_10_">
			<use xlink:href="#SVGID_9_"  overflow="visible"/>
		</clipPath>
		<radialGradient id="SVGID_11_" cx="525.8461" cy="84.0836" r="75.4111" gradientUnits="userSpaceOnUse">
			<stop  offset="0" style="stop-color:#1B3B6B"/>
			<stop  offset="0.7227" style="stop-color:#1E3A6C"/>
			<stop  offset="0.9609" style="stop-color:#81BDE7"/>
			<stop  offset="1" style="stop-color:#81BDE7"/>
		</radialGradient>
		<path clip-path="url(#SVGID_10_)" fill-rule="evenodd" clip-rule="evenodd" fill="url(#SVGID_11_)" d="M474.9,101.4
			c0-28.1,22.8-50.9,50.9-50.9c28.1,0,50.9,22.8,50.9,50.9c0,28.1-22.8,51-50.9,51C497.7,152.4,474.9,129.5,474.9,101.4z"/>
		<radialGradient id="SVGID_12_" cx="525.9357" cy="83.8886" r="75.2724" gradientUnits="userSpaceOnUse">
			<stop  offset="0" style="stop-color:#114D8A"/>
			<stop  offset="0.7227" style="stop-color:#114D8A"/>
			<stop  offset="0.9609" style="stop-color:#81BDE7"/>
			<stop  offset="1" style="stop-color:#81BDE7"/>
		</radialGradient>
		<path display="none" clip-path="url(#SVGID_10_)" fill="url(#SVGID_12_)" d="M521.4,50.5c1.1-0.1,2.3,0.4,3.5,1.6l-0.2,0.3
			c-1.1-1.1-2.2-1.6-3.2-1.5L521.4,50.5z M530.5,50.8c-1-0.1-2.1,0.4-3.3,1.5l-0.2-0.3c1.2-1.2,2.4-1.7,3.6-1.6L530.5,50.8z
			 M512.9,117.7c8.4,0.8,17.1,0.7,25.4,0c0-8.7-0.6-17.6-1.7-26c-7.1,0.6-14.7,0.6-21.9,0C513.6,100.1,512.9,109,512.9,117.7z
			 M512.6,118c-5.5-0.5-10.8-1.3-15.7-2.5c-2.6-0.6-4.9-1.3-7.1-2c0,8.6,1.8,16.1,4.9,22c1.9,0.7,3.9,1.3,6.2,1.8
			c4.2,1,8.7,1.7,13.4,2.2C513.2,133.8,512.6,126.5,512.6,118z M483.8,80.8c1.8,2.4,5.4,4.6,10.7,6.5c3.1-8,7.6-15.3,12.9-21.2
			c-2.5-1-4.8-2.3-6.1-3.7C494,67.1,488,73.5,483.8,80.8z M494.8,87.4c1.8,0.6,3.9,1.2,6.1,1.8c4.2,1,8.8,1.7,13.5,2.2
			c1.1-8.4,2.7-16.2,4.7-22.7c-2.7-0.3-5.4-0.7-7.8-1.3c-1.1-0.3-2.4-0.6-3.5-1.1C502.4,72.1,497.9,79.4,494.8,87.4z M514.7,91.4
			c7.2,0.6,14.7,0.6,21.9,0c-1.1-8.4-2.6-16.2-4.4-22.7c-4.1,0.4-8.5,0.4-12.7,0C517.5,75.2,515.9,83,514.7,91.4z M536.9,91.4
			c7.1-0.6,13.7-1.9,19.2-3.6c-3-8-7.3-15.3-12.5-21.2c-3.2,1-7.1,1.8-11.2,2.1C534.3,75.2,535.9,83,536.9,91.4z M556.5,87.6
			c1.9-0.6,3.7-1.3,5.3-2.1c3-1.5,5.1-3,6.3-4.6c-4.2-7.3-10.2-13.7-17.3-18.4c-0.8,0.9-2,1.8-3.7,2.7c-0.9,0.4-1.9,0.8-2.9,1.2
			C549.1,72.3,553.4,79.6,556.5,87.6z M543.7,148.3c5.1-2.2,9.3-6.4,12.4-12.2c-5.5,1.8-12.1,3-19.1,3.6c-1,5.2-2.5,8.9-4.2,10.7
			C536.8,150.1,540.5,149.4,543.7,148.3z M532.2,150.5c1.8-1.6,3.3-5.3,4.4-10.7c-7.1,0.6-14.6,0.6-21.8,0c1.1,5.4,2.7,9.1,4.6,10.7
			C523.6,150.9,528,150.9,532.2,150.5z M518.8,150.4c-1.8-1.8-3.3-5.5-4.4-10.7c-4.7-0.4-9.3-1.2-13.6-2.2c-2.1-0.5-4.1-1.1-5.9-1.7
			c3.1,5.8,7.5,10,12.7,12.3c1.1,0.4,2.3,0.7,3.7,1.1C513.7,149.8,516.2,150.2,518.8,150.4z M558.4,131.7l0.1,0l0.1,0.3l-0.4,0.1
			c-0.5,1.2-1,2.4-1.5,3.5c1.8-0.6,3.5-1.3,5-2c3-1.5,5.1-3.1,6.4-4.7c0.8-1.2,1.5-2.4,2.1-3.7L570,125l0.5-0.6
			c2.7-5.5,4.2-11.7,4.3-18.4c-1.5,1.8-3.9,3.5-7.2,5.1c-1.9,0.9-3.9,1.7-6.2,2.5C561.3,120.4,560.3,126.5,558.4,131.7z
			 M537.6,135.7l0.1,0.3l-0.1,0c-0.2,1.2-0.3,2.3-0.5,3.3c7.1-0.6,13.7-1.9,19.2-3.7c0.6-1.2,1.1-2.4,1.6-3.7l0-0.1
			c2-5.2,3.1-11.3,3.2-18.1c-6.4,2.1-14.1,3.5-22.3,4.2C538.7,124.8,538.3,130.8,537.6,135.7z M536.9,135.8l0.3,0
			c0.7-4.9,1.1-10.9,1.1-17.7c-8.3,0.7-17,0.7-25.4,0c0,8.6,0.7,15.9,1.8,21.4c7.2,0.7,14.8,0.6,22,0c0.2-1,0.4-2.2,0.6-3.3l-0.2,0
			L536.9,135.8z M480.9,123.6l0.2,0.4l0.3,0.6l0.6,0.5l-0.2,0.2c0.6,1.2,1.3,2.4,2,3.5c1.8,2.4,5.3,4.6,10.5,6.5
			c-0.6-1.1-1.1-2.3-1.6-3.5l-0.7-0.2l0.1-0.3l0.4,0.1c-2-5.2-3.1-11.3-3.1-18c-5.9-2.1-10.1-4.6-12.4-7.4
			C477.1,112.3,478.5,118.3,480.9,123.6z M570.2,85.3c-0.6-1.4-1.2-2.8-2-4.1c-1.3,1.6-3.4,3.2-6.3,4.6c-1.6,0.8-3.4,1.5-5.3,2.1
			c3,8,4.7,16.7,4.8,25.4c2.2-0.7,4.2-1.5,6-2.4c3.5-1.7,5.9-3.5,7.4-5.4c0-7-1.6-13.8-4.4-20.1L570.2,85.3z M537.5,96.2l0.4,0
			l0,0.3l-0.4,0c0.7,6.9,1.1,14.1,1.1,21.1c8.2-0.7,15.9-2.2,22.3-4.2c0-8.6-1.7-17.4-4.7-25.4c-5.5,1.8-12.2,3-19.3,3.7
			C537.2,93.2,537.4,94.7,537.5,96.2z M513.1,96.2l0.6,0.1c0.2-1.5,0.4-3,0.6-4.5c-4.7-0.4-9.3-1.2-13.5-2.2
			c-2.2-0.5-4.3-1.1-6.2-1.8c-3.1,8-4.9,16.7-4.9,25.3c2.2,0.8,4.5,1.4,7.2,2.1c4.9,1.2,10.2,2,15.6,2.5c0-7,0.4-14.2,1.2-21.1
			l-0.6-0.1L513.1,96.2z M492.3,91.8l0.4,0.2c0.5-1.5,1-2.9,1.5-4.3c-5.2-1.8-8.8-4.1-10.7-6.5c-4.1,7.3-6.5,15.6-6.5,24.2
			c2.1,2.8,6.3,5.4,12.4,7.6c0-7,1.2-14,3.3-20.7l-0.5-0.2L492.3,91.8z M520.4,63.9c1.4-3.5,2.7-6.5,4.2-8.8l0.3,0.2
			c-1.4,2.2-2.7,5.2-4,8.7l0.2,0l0,0.3l-0.3,0c-0.4,1.3-0.9,2.6-1.3,4c4.1,0.4,8.5,0.4,12.5,0c-0.4-1.4-0.8-2.7-1.2-4l-0.5,0l0-0.3
			l0.4,0c-1.2-3.5-2.5-6.4-3.8-8.7l0.3-0.2c1.9,3.1,3.6,7.7,5.2,13.1c4-0.4,7.8-1.1,11-2.1c-5.1-5.8-11.1-10.2-17.5-12.5
			c-6.5,2.2-12.7,6.5-18,12.3c1.1,0.4,2.3,0.8,3.4,1c2.4,0.6,5.1,1,7.8,1.3c0.4-1.4,0.8-2.7,1.3-4L520.4,63.9z M513.8,52l0.7-0.2
			c3.6-0.3,7.5,0.2,11.5,1.6c4.2-1.4,8.1-1.8,11.9-1.3l0-0.1l0.7,0.2c1.8,0.3,3.5,0.8,5.1,1.4l-0.1,0.3c-0.4-0.2-0.8-0.3-1.3-0.5
			l0.3,0.1l-0.1,0.3l-0.7-0.3l0.1-0.3c-0.2-0.1-0.5-0.1-0.7-0.2l-0.1,0.2l-0.7-0.2l0.1-0.2l-0.7-0.2l-0.7-0.1
			c-3.9-0.7-8.2-0.4-12.6,1c4.8,1.8,9.4,4.8,13.6,8.7l0.6-0.2l0.1,0.3l-0.5,0.2c1.2,1.1,2.3,2.3,3.4,3.6c1.1-0.4,2.1-0.8,3-1.2
			c1.7-0.8,2.8-1.7,3.6-2.6c-1.5-1-3.2-2-4.8-2.8l-0.4,0.4l-0.3-0.2l0.3-0.4c-4.7-2.4-9.7-4.1-15-5l0.1-0.3
			c7.3,1.3,14.2,4.1,20.2,8.1c1-1.3,1-2.7,0-4.1c-1.5-0.7-3.1-1.4-4.7-1.9l-0.3,0.2l-0.3-0.4c-4.7-1.5-9.7-2.4-15-2.4v-0.4
			c5.3,0,10.4,0.8,15.1,2.4c1.6,0.5,3.1,1.1,4.5,1.8c-1.1-1.1-2.8-2.1-5.1-3l0.1-0.3c2.7,1,4.7,2.3,5.7,3.6
			c6.3,3,11.7,7.4,15.8,12.9l-0.3,0.2c-3.9-5.2-9.1-9.5-15.1-12.5c0.7,1.3,0.7,2.7-0.3,4c7.1,4.7,13.1,11.1,17.3,18.4
			c1.6-2.2,1.6-4.5,0.3-6.6l0.3-0.2c1.5,2.4,1.4,4.8-0.4,7.2c0.7,1.3,1.4,2.6,2,3.9l0.1-0.2l0.3,0.2l-0.2,0.3
			c2.8,6.2,4.4,12.9,4.5,19.8c0.9-1.3,1.3-2.6,1.3-3.9h0.4c0,1.5-0.6,3-1.7,4.5c0,8.5-2.3,16.3-6.3,22.8c-0.1,0.2-0.3,0.5-0.4,0.7
			c-0.7,1-1.4,2.1-2.1,3l-0.3-0.2c0.3-0.4,0.6-0.8,0.9-1.3c-1.3,1.1-2.9,2.2-5,3.2c-1.6,0.8-3.4,1.5-5.4,2.1
			c-2.7,5.2-6.3,9.2-10.7,11.6l0.1,0.2c-0.7,0.3-1.4,0.5-2.1,0.8c-0.6,0.3-1.2,0.5-1.8,0.7l0-0.1c-1.7,0.5-3.6,0.9-5.6,1.2l0.1,0.3
			l-0.7,0.1l-0.1-0.3c-1,0.1-2.1,0.3-3.2,0.4c-0.1,0.1-0.2,0.2-0.3,0.2l0,0.3l-0.5,0.1c-0.4,0.2-0.8,0.3-1.2,0.4l0-0.3l-0.4,0l0-0.3
			l0.7-0.1l0,0.2c0.2-0.1,0.5-0.1,0.7-0.2c0.2-0.1,0.3-0.1,0.3-0.2c-3.9,0.3-7.9,0.3-11.8,0c0.1,0.1,0.2,0.1,0.3,0.1l0.6,0.1l0,0.2
			c0.2,0.1,0.4,0.1,0.6,0.1l0,0.4c-0.4,0-0.8-0.2-1.2-0.4c-0.3-0.1-0.6-0.3-0.8-0.5c-1-0.1-2-0.2-3-0.3l0.3,0.1l-0.1,0.3l-0.7-0.1
			l0.1-0.3l-0.7-0.1l-0.1,0.3l-0.7-0.2l0.1-0.2c-1.1-0.2-2.2-0.4-3.2-0.7c-1-0.2-1.9-0.5-2.7-0.7c-0.4-0.1-0.7-0.2-1-0.3
			c-0.4-0.1-0.8-0.3-1.2-0.5c-4.9-2.6-9-6.7-11.9-12.3c-4.2-1.5-7.3-3.2-9.4-5.1l0.4,0.6l-0.3,0.2c-0.6-0.8-1.2-1.6-1.7-2.5
			c-0.1-0.2-0.3-0.4-0.4-0.5c-4-6.6-6.4-14.4-6.4-22.9c-1.1-1.4-1.6-2.9-1.6-4.4h0.4c0,1.3,0.4,2.5,1.2,3.8c0.1-8.6,2.5-16.8,6.7-24
			c-1.7-2.3-1.8-4.7-0.3-7.1l0.3,0.2c-1.4,2.1-1.3,4.4,0.2,6.5c4.2-7.3,10.3-13.6,17.4-18.4c-0.9-1.2-1.3-2.4-0.5-3.8
			c-5.6,2.8-10.5,6.8-14.3,11.7l-0.3-0.2c4-5.1,9.1-9.2,15-12.1c0.9-1.1,2.5-2.3,5.2-3.4l0.1,0.3c-2.1,0.9-3.5,1.8-4.4,2.7
			c1.5-0.7,3.1-1.3,4.7-1.9l0.3-0.3l0.2,0.2c4.6-1.5,9.5-2.2,14.7-2.2v0.4c-5.3,0-10.3,0.8-14.9,2.3l-0.1,0.2
			c-1.9,0.5-3.6,1.2-5.3,2.1c-1,1.4-0.8,2.7,0.1,3.9c1.5-1,3.1-1.9,4.8-2.8l0.2-0.3l0.1,0.2c4.7-2.4,9.8-4.1,15.1-5.1l0.1,0.3
			c-5.3,0.9-10.3,2.6-15,5l-0.2,0.3l-0.1-0.2c-1.6,0.8-3.2,1.8-4.8,2.8c1.3,1.4,3.6,2.7,6.1,3.6c1.1-1.2,2.3-2.4,3.5-3.5l-0.4-0.2
			l0.1-0.3l0.6,0.2c4.3-3.9,9-6.8,14-8.6c-4.3-1.4-8.4-1.8-12.2-1.1l-0.7,0.2c-0.3,0-0.5,0-0.7,0.1l0.1,0.1l-0.7,0.2l-0.1-0.2
			c-0.2,0.1-0.5,0.1-0.7,0.2l0.1,0.2l-0.7,0.3l-0.1-0.3l0.2-0.1l-0.1-0.3C511.1,52.5,512.4,52.1,513.8,52z M535.8,96.4l0.7-0.1
			l0,0.3l-0.7,0.1L535.8,96.4z M534.4,96.5l0.7-0.1l0,0.3l-0.7,0L534.4,96.5z M533,96.6l0.7,0l0,0.3l-0.7,0L533,96.6z M531.6,96.6
			l0.7,0l0,0.3l-0.7,0L531.6,96.6z M530.2,96.7l0.7,0l0,0.3l-0.7,0L530.2,96.7z M528.7,96.7l0.7,0l0,0.3l-0.7,0L528.7,96.7z
			 M527.3,96.8l0.7,0l0,0.3l-0.7,0L527.3,96.8z M525.9,96.8h0.7v0.3h-0.7V96.8z M524.5,96.8l0.7,0l0,0.3l-0.7,0L524.5,96.8z
			 M523.1,96.7l0.7,0l0,0.3l-0.7,0L523.1,96.7z M521.6,96.7l0.7,0l0,0.3l-0.7,0L521.6,96.7z M520.2,96.6l0.7,0l0,0.3l-0.7,0
			L520.2,96.6z M518.8,96.6l0.7,0l0,0.3l-0.7,0L518.8,96.6z M517.4,96.5l0.7,0l0,0.3l-0.7,0L517.4,96.5z M516,96.4l0.7,0l0,0.3
			l-0.7,0L516,96.4z M514.6,96.3l0.7,0.1l0,0.3l-0.7-0.1L514.6,96.3z M512.9,135.6l0.7,0.1l0,0.3l-0.7-0.1L512.9,135.6z
			 M511.4,135.5l0.7,0.1l0,0.3l-0.7-0.1L511.4,135.5z M510,135.3l0.7,0.1l0,0.3l-0.7-0.1L510,135.3z M508.6,135.1l0.7,0.1l0,0.3
			l-0.7-0.1L508.6,135.1z M507.2,134.9l0.7,0.1l-0.1,0.3l-0.7-0.1L507.2,134.9z M505.8,134.7l0.7,0.1l-0.1,0.3l-0.7-0.1L505.8,134.7
			z M504.4,134.5l0.7,0.1l-0.1,0.3l-0.7-0.1L504.4,134.5z M503,134.2l0.7,0.1l-0.1,0.3l-0.7-0.1L503,134.2z M501.6,133.9l0.7,0.1
			l-0.1,0.3l-0.7-0.1L501.6,133.9z M500.2,133.6l0.7,0.1l-0.1,0.3l-0.7-0.2L500.2,133.6z M498.9,133.3l0.7,0.2l-0.1,0.3l-0.7-0.2
			L498.9,133.3z M497.5,132.9l0.7,0.2l-0.1,0.3l-0.7-0.2L497.5,132.9z M496.1,132.5l0.7,0.2l-0.1,0.3l-0.7-0.2L496.1,132.5z
			 M494.8,132.1l0.7,0.2l-0.1,0.3l-0.7-0.2L494.8,132.1z M493.4,131.7l0.7,0.2l-0.1,0.3l-0.7-0.2L493.4,131.7z M569,126l0.5-0.5
			l0.2,0.2l-0.5,0.5L569,126z M567.9,127l0.6-0.4l0.2,0.3l-0.6,0.5L567.9,127z M566.8,127.8l0.6-0.4l0.2,0.3l-0.6,0.4L566.8,127.8z
			 M565.6,128.5l0.6-0.4l0.2,0.3l-0.6,0.4L565.6,128.5z M564.4,129.2l0.6-0.3l0.2,0.3l-0.6,0.3L564.4,129.2z M563.1,129.8l0.6-0.3
			l0.1,0.3l-0.6,0.3L563.1,129.8z M561.8,130.4l0.7-0.3l0.1,0.3l-0.7,0.3L561.8,130.4z M560.5,130.9l0.7-0.3l0.1,0.3l-0.7,0.3
			L560.5,130.9z M559.2,131.4l0.7-0.2l0.1,0.3l-0.7,0.2L559.2,131.4z M556.5,132.3l0.7-0.2l0.1,0.3l-0.7,0.2L556.5,132.3z
			 M555.1,132.7l0.7-0.2l0.1,0.3l-0.7,0.2L555.1,132.7z M553.7,133.1l0.7-0.2l0.1,0.3l-0.7,0.2L553.7,133.1z M552.4,133.4l0.7-0.2
			l0.1,0.3l-0.7,0.2L552.4,133.4z M551,133.7l0.7-0.2l0.1,0.3l-0.7,0.2L551,133.7z M549.6,134l0.7-0.1l0.1,0.3l-0.7,0.1L549.6,134z
			 M548.2,134.3l0.7-0.1l0.1,0.3l-0.7,0.1L548.2,134.3z M546.8,134.5l0.7-0.1l0.1,0.3l-0.7,0.1L546.8,134.5z M545.4,134.8l0.7-0.1
			l0.1,0.3l-0.7,0.1L545.4,134.8z M544,135l0.7-0.1l0,0.3l-0.7,0.1L544,135z M542.6,135.2l0.7-0.1l0,0.3l-0.7,0.1L542.6,135.2z
			 M541.2,135.4l0.7-0.1l0,0.3l-0.7,0.1L541.2,135.4z M539.8,135.5l0.7-0.1l0,0.3l-0.7,0.1L539.8,135.5z M538.4,135.7l0.7-0.1l0,0.3
			l-0.7,0.1L538.4,135.7z M535.5,135.9l0.7,0l0,0.3l-0.7,0L535.5,135.9z M534.1,136l0.7-0.1l0,0.3l-0.7,0L534.1,136z M532.7,136.1
			l0.7,0l0,0.3l-0.7,0L532.7,136.1z M531.3,136.2l0.7,0l0,0.3l-0.7,0L531.3,136.2z M529.9,136.2l0.7,0l0,0.3l-0.7,0L529.9,136.2z
			 M528.4,136.2l0.7,0l0,0.3l-0.7,0L528.4,136.2z M527,136.3l0.7,0l0,0.3l-0.7,0L527,136.3z M525.6,136.3h0.7v0.3h-0.7V136.3z
			 M524.2,136.3l0.7,0l0,0.3l-0.7,0L524.2,136.3z M522.8,136.2l0.7,0l0,0.3l-0.7,0L522.8,136.2z M521.3,136.2l0.7,0l0,0.3l-0.7,0
			L521.3,136.2z M519.9,136.1l0.7,0l0,0.3l-0.7,0L519.9,136.1z M518.5,136.1l0.7,0l0,0.3l-0.7,0L518.5,136.1z M517.1,136l0.7,0
			l0,0.3l-0.7,0L517.1,136z M515.7,135.9l0.7,0.1l0,0.3l-0.7-0.1L515.7,135.9z M514.3,135.8l0.7,0.1l0,0.3l-0.7-0.1L514.3,135.8z
			 M490.7,130.7l0.7,0.3l-0.1,0.3l-0.7-0.3L490.7,130.7z M489.4,130.1l0.7,0.3l-0.1,0.3l-0.7-0.3L489.4,130.1z M488.2,129.5l0.6,0.3
			l-0.1,0.3l-0.7-0.3L488.2,129.5z M486.9,128.9l0.6,0.3l-0.2,0.3l-0.6-0.3L486.9,128.9z M485.7,128.2l0.6,0.4l-0.2,0.3l-0.6-0.4
			L485.7,128.2z M484.5,127.4l0.6,0.4l-0.2,0.3l-0.6-0.4L484.5,127.4z M483.4,126.5l0.6,0.5l-0.2,0.3l-0.6-0.4L483.4,126.5z
			 M482.4,125.6l0.5,0.5l-0.2,0.2l-0.5-0.5L482.4,125.6z M569.2,86.3l0.5-0.5l0.2,0.2l-0.5,0.5L569.2,86.3z M568.2,87.3l0.6-0.5
			l0.2,0.3l-0.6,0.5L568.2,87.3z M567.1,88.1l0.6-0.4l0.2,0.3l-0.6,0.4L567.1,88.1z M565.9,88.9l0.6-0.4l0.2,0.3l-0.6,0.4
			L565.9,88.9z M564.6,89.6l0.6-0.3l0.2,0.3l-0.6,0.3L564.6,89.6z M563.4,90.2l0.6-0.3l0.1,0.3l-0.6,0.3L563.4,90.2z M562.1,90.8
			l0.7-0.3l0.1,0.3l-0.7,0.3L562.1,90.8z M560.8,91.3l0.7-0.3l0.1,0.3l-0.7,0.3L560.8,91.3z M559.4,91.8l0.7-0.2l0.1,0.3l-0.7,0.2
			L559.4,91.8z M558.1,92.3l0.7-0.2l0.1,0.3l-0.7,0.2L558.1,92.3z M556.8,92.7l0.7-0.2l0.1,0.3l-0.7,0.2L556.8,92.7z M555.4,93.1
			l0.7-0.2l0.1,0.3l-0.7,0.2L555.4,93.1z M554,93.5l0.7-0.2l0.1,0.3l-0.7,0.2L554,93.5z M552.6,93.8l0.7-0.2l0.1,0.3l-0.7,0.2
			L552.6,93.8z M551.3,94.2L552,94l0.1,0.3l-0.7,0.2L551.3,94.2z M549.9,94.5l0.7-0.2l0.1,0.3l-0.7,0.1L549.9,94.5z M548.5,94.7
			l0.7-0.1l0.1,0.3l-0.7,0.1L548.5,94.7z M547.1,95l0.7-0.1l0.1,0.3l-0.7,0.1L547.1,95z M545.7,95.2l0.7-0.1l0.1,0.3l-0.7,0.1
			L545.7,95.2z M544.3,95.4l0.7-0.1l0.1,0.3l-0.7,0.1L544.3,95.4z M542.9,95.6l0.7-0.1l0,0.3l-0.7,0.1L542.9,95.6z M541.5,95.8
			l0.7-0.1l0,0.3l-0.7,0.1L541.5,95.8z M540.1,96l0.7-0.1l0,0.3l-0.7,0.1L540.1,96z M538.6,96.1l0.7-0.1l0,0.3l-0.7,0.1L538.6,96.1z
			 M511.7,96l0.7,0.1l0,0.3l-0.7-0.1L511.7,96z M510.3,95.8l0.7,0.1l0,0.3l-0.7-0.1L510.3,95.8z M508.9,95.7l0.7,0.1l0,0.3l-0.7-0.1
			L508.9,95.7z M507.5,95.5l0.7,0.1l0,0.3l-0.7-0.1L507.5,95.5z M506.1,95.2l0.7,0.1l-0.1,0.3l-0.7-0.1L506.1,95.2z M504.7,95
			l0.7,0.1l-0.1,0.3l-0.7-0.1L504.7,95z M503.3,94.8l0.7,0.1l-0.1,0.3l-0.7-0.1L503.3,94.8z M501.9,94.5l0.7,0.2l-0.1,0.3l-0.7-0.1
			L501.9,94.5z M500.5,94.2l0.7,0.2l-0.1,0.3l-0.7-0.1L500.5,94.2z M499.2,93.8l0.7,0.2l-0.1,0.3l-0.7-0.2L499.2,93.8z M497.8,93.5
			l0.7,0.2l-0.1,0.3l-0.7-0.2L497.8,93.5z M496.4,93.1l0.7,0.2l-0.1,0.3l-0.7-0.2L496.4,93.1z M495,92.7l0.7,0.2l-0.1,0.3l-0.7-0.2
			L495,92.7z M493.7,92.3l0.7,0.2l-0.1,0.3l-0.7-0.2L493.7,92.3z M491,91.3l0.7,0.3l-0.1,0.3l-0.7-0.3L491,91.3z M489.7,90.8
			l0.7,0.3l-0.1,0.3l-0.7-0.3L489.7,90.8z M488.4,90.2l0.7,0.3l-0.1,0.3l-0.6-0.3L488.4,90.2z M487.2,89.5l0.6,0.3l-0.2,0.3
			l-0.6-0.3L487.2,89.5z M485.9,88.8l0.6,0.4l-0.2,0.3l-0.6-0.4L485.9,88.8z M484.8,88.1l0.6,0.4l-0.2,0.3l-0.6-0.4L484.8,88.1z
			 M483.6,87.2l0.6,0.4l-0.2,0.3l-0.6-0.4L483.6,87.2z M482.6,86.3l0.5,0.5l-0.2,0.2l-0.5-0.5L482.6,86.3z M481.7,85.2l0.5,0.6
			l-0.3,0.2l-0.5-0.6L481.7,85.2z M538.7,62.7l0.7-0.2l0.1,0.3l-0.7,0.2L538.7,62.7z M537.3,63l0.7-0.2l0.1,0.3l-0.7,0.2L537.3,63z
			 M535.9,63.3l0.7-0.1l0.1,0.3l-0.7,0.1L535.9,63.3z M534.5,63.5l0.7-0.1l0.1,0.3l-0.7,0.1L534.5,63.5z M533.1,63.7l0.7-0.1l0,0.3
			l-0.7,0.1L533.1,63.7z M531.7,63.9l0.7-0.1l0,0.3l-0.7,0.1L531.7,63.9z M528.9,64.1l0.7,0l0,0.3l-0.7,0L528.9,64.1z M527.5,64.2
			l0.7,0l0,0.3l-0.7,0L527.5,64.2z M526.1,64.2h0.7v0.3h-0.7V64.2z M524.7,64.2l0.7,0l0,0.3l-0.7,0L524.7,64.2z M523.3,64.1l0.7,0
			l0,0.3l-0.7,0L523.3,64.1z M521.8,64.1l0.7,0l0,0.3l-0.7,0L521.8,64.1z M519,63.8l0.7,0.1l0,0.3l-0.7-0.1L519,63.8z M517.6,63.6
			l0.7,0.1l0,0.3l-0.7-0.1L517.6,63.6z M516.2,63.4l0.7,0.1l-0.1,0.3l-0.7-0.1L516.2,63.4z M514.8,63.1l0.7,0.1l-0.1,0.3l-0.7-0.1
			L514.8,63.1z M513.5,62.7l0.7,0.2l-0.1,0.3l-0.7-0.2L513.5,62.7z M512.1,62.3l0.7,0.2l-0.1,0.3l-0.7-0.2L512.1,62.3z M534.2,150.7
			l0.7-0.1l0.1,0.3l-0.7,0.1L534.2,150.7z M532.8,150.9l0.7-0.1l0,0.3l-0.7,0.1L532.8,150.9z M528.5,151.3l0.7,0l0,0.3l-0.7,0
			L528.5,151.3z M527.1,151.3l0.7,0l0,0.3l-0.7,0L527.1,151.3z M525.7,151.3h0.7v0.3h-0.7V151.3z M524.3,151.3l0.7,0l0,0.3l-0.7,0
			L524.3,151.3z M522.9,151.3l0.7,0l0,0.3l-0.7,0L522.9,151.3z M521.4,151.2l0.7,0l0,0.3l-0.7-0.1L521.4,151.2z M518.6,150.9
			l0.7,0.1l0,0.3l-0.7-0.1L518.6,150.9z M517.2,150.7l0.7,0.1l-0.1,0.3l-0.7-0.1L517.2,150.7z M571.6,80.2l-0.2-0.7l0.3-0.1l0.2,0.7
			L571.6,80.2z M571.7,81.5l0-0.7l0.3,0l0,0.7L571.7,81.5z M571.5,82.9l0.1-0.7l0.3,0.1l-0.1,0.7L571.5,82.9z M571,84.1l0.3-0.6
			l0.3,0.2l-0.3,0.6L571,84.1z M480.9,84.1l0.4,0.6l-0.3,0.2l-0.4-0.6L480.9,84.1z M480.4,82.8l0.2,0.7l-0.3,0.1l-0.2-0.7
			L480.4,82.8z M480.1,81.5l0.1,0.7l-0.3,0l-0.1-0.7L480.1,81.5z M480.3,80.1l-0.1,0.7l-0.3-0.1l0.1-0.7L480.3,80.1z M480.8,78.8
			l-0.3,0.7l-0.3-0.1l0.3-0.7L480.8,78.8z M543.7,54.4l-0.6-0.3l0.2-0.3l0.6,0.3L543.7,54.4z M544.8,55.3l-0.6-0.5l0.2-0.3L545,55
			L544.8,55.3z M546.1,57.5l-0.1-0.7l0.3-0.1l0.1,0.7L546.1,57.5z M545.8,58.7L546,58l0.3,0.1l-0.2,0.7L545.8,58.7z M543.9,60.5
			l0.6-0.4l0.2,0.3l-0.6,0.4L543.9,60.5z M542.6,61.2l0.6-0.3l0.2,0.3l-0.6,0.3L542.6,61.2z M541.3,61.8l0.7-0.3l0.1,0.3l-0.7,0.3
			L541.3,61.8z M509.5,61.3l0.7,0.3l-0.1,0.3l-0.7-0.3L509.5,61.3z M508.2,60.7l0.6,0.3l-0.2,0.3l-0.6-0.3L508.2,60.7z M507.1,59.8
			l0.6,0.4l-0.2,0.3l-0.6-0.5L507.1,59.8z M505.8,57.6l0.1,0.7l-0.3,0.1l-0.1-0.7L505.8,57.6z M506.1,56.4l-0.2,0.7l-0.3-0.1
			l0.2-0.7L506.1,56.4z M508,54.6l-0.6,0.4l-0.2-0.3l0.6-0.4L508,54.6z M509.2,53.9l-0.6,0.3l-0.2-0.3l0.6-0.3L509.2,53.9z"/>
	</g>
	<radialGradient id="SVGID_13_" cx="529.2208" cy="65.7056" r="66.2038" gradientUnits="userSpaceOnUse">
		<stop  offset="0" style="stop-color:#2E7ABD"/>
		<stop  offset="0.6445" style="stop-color:#03589F"/>
		<stop  offset="0.7812" style="stop-color:#1E3A6C"/>
		<stop  offset="0.875" style="stop-color:#1E3A6C"/>
		<stop  offset="1" style="stop-color:#22356A"/>
	</radialGradient>
	<path fill-rule="evenodd" clip-rule="evenodd" fill="url(#SVGID_13_)" d="M574.5,85.7c-0.6-1.7-1.2-3.5-2-5.1c-0.3-0.5-0.6-1-1-1.5
		c-0.5-0.6-2.1-2.6-2.1-3.2c-0.1-0.1-0.2-0.3-0.4-0.4c0,0.1-0.1,0.3-0.1,0.4c-1.4,0.2-1,2.1-2.9,1.6c-0.5-0.1,0.7,5.3,0.7,5.5
		c0,1.4-2.2,7.2-0.7,8.2c0-0.3,1.1,5.4,1.2,5.5c0.4,0.4,1.2,2.3,1.7,3.1c0.7,0.9,1.2,1.9,1.8,2.8c1.4,1.9,0.7,0.1,2.3,0.2
		c1.3,0,0.8-1.1,1.9-1.4c0.7-0.2,0.4,1.7,0.7,1.4c0.5-0.6,0.3,2.8,0.3,3.2c-0.2,2.1-0.1,4.3-0.5,6.4c-1.1,6.3-4.1,13-7.6,18.3
		C576.8,117.9,579.1,100.6,574.5,85.7z M565.9,77.1c0.9-1.6-0.1-1.7-0.4-3.6c-0.1-0.6-0.9-2.6-0.8-2.8c0.2,0.1,0.4,0.2,0.5,0.2
		c0,0-0.4-1.2-0.3-1.2c1.6,1,3.4,3.2,4.3,4.9c-0.6-1.2-3.5-5.9-4.6-6.1c0.1,0,0.5,0.5,0.6,0.6c-0.1-0.1-0.1-0.2-0.2-0.3
		c0.4,0,1.2,1.3,1.4,1.6c-2.4-3.2-5.3-6.1-8.3-8.6c0.3,0.3,0.4,0.5,0.6,0.7c-0.2-0.2-0.6-0.5-0.8-0.6c0,0,0.3,0.5,0.2,0.4
		c-0.9-0.9-2.4-1.5-3.3-2.5c1,1,2.2,1.7,3.2,2.7c0,0-0.1,0-0.1,0c0.7,0.6-0.6-0.4,0.3,0.5c-0.7-0.1,0.4,0.9,0.7,1.3
		c0.2,0.2,0.7,2,0.8,2c-0.2-0.1-0.3-0.2-0.5-0.3c0,0,0.7,0.8,0.7,0.9c-0.2,0.1-0.9-0.2-0.6,0.4c1.1,0.4,2.2,1.2,3.1,2.1
		c0.2,0.4,1.1,1.3,1,1.7c-0.1,0.2-2,0-2.2,0c-0.4,0.1,2.3,4.1,2.3,4.3C563.9,76,565.5,77.7,565.9,77.1z M569.1,74.9
		c-0.5-0.2,0.5,0.8,0.7,1c-0.2-0.3-0.5-1-0.7-1.2C569.1,74.7,569.2,74.9,569.1,74.9z M567.9,74c-0.1-0.4-1-1.2-1-1.4
		c0,0.7,1,1.2,1.1,1.7C567.9,74.2,567.9,74.1,567.9,74z M566.7,72.2c0-0.1-0.7-1.1-0.9-1.2C566,71.3,566.7,72,566.7,72.2z
		 M566.5,73.6C566.6,73.7,566.7,73.7,566.5,73.6C566.5,73.5,566.4,73.5,566.5,73.6z M566.6,73.9c-0.4-0.6-0.4-0.1-0.2,0.1
		C566.6,74.3,566.8,74.3,566.6,73.9z M504.4,78.1c0-0.4,0.1-1.1-0.2-1.3c-0.1,0.1-0.1,0.1-0.2,0.2c-0.5-1-1.1-1.3-0.1-2.4
		C504.9,75.2,504.4,78.1,504.4,78.1z M499.3,68.4c-0.5,0.2-3.3,3.1-3.9,2.2c0.3,0.4,1.1-1.8,1.2-1.8
		C497.5,68.7,499.2,68.4,499.3,68.4z M495,67.3c0.1,0,0.7-0.9,1-0.9c0.4-0.7-1.1,0.2-1.1,0.1c0-0.4,2-1.3,2.3-1.3
		c0.1,0.2-0.1,0.4-0.4,0.5c0.1,0,0.9-0.2,0.8-0.2c0.2,0.3-2.3,1.8-2.2,1.9c0.2-0.2,0.4-0.4,0.5-0.6C495.7,66.6,495.3,67.2,495,67.3z
		 M508.3,80.1c1.8-1.5,1.9-2,3.7-1.5c1,0.3,1,1.2,2.1,1.2c0.4,0,3.1-0.3,2.6,1c-0.2,0.6-1.5-0.6-1.5-0.1c0,0.3,0.3,2.9-0.2,2.8
		c1.1,0.1,3.4-3.7,4.4-2.7c0.1,0.1-2.8,2.4-3,2.5c-2.2,1.4-1.3-0.6-2.4-1.2c-0.5-0.2,1.2-1.8-0.7-1.5c-1,0.2-1.3,1.7-1.2,2.4
		c0.5,4-2.3-0.9-1.1-1.3c0.6-1.2,0.8-0.9,1.9-1.5c0.1-0.3-2.2-0.2-2.5-0.2c0-0.1,0.1-0.2,0.1-0.3C510.7,79.7,507,81.2,508.3,80.1z
		 M557.6,114.7c-1.4-0.5-3.9-2-5.3-0.8c0,0,0-0.1,0-0.1c-0.2,0.1-0.2,0.4-0.4,0.6c-0.3-1.5-3.1-1.8-2.9-0.6
		c-0.2-1.2-0.3-0.9-1.6-0.6c0.1,0.2,0,0.4-0.2,0.6c-0.5-0.3,0.2-1.2,0.3-1.5c0.2-0.4-0.5-1.6-0.7-2.1c-0.6-1.6-5-1.4-6.1-1.1
		c-0.2-0.9-1.8-1.8-2.4-1c0.8-1.1-1.3-1.2-1.3-1.2c0.2-0.1,0.3-0.2,0.4-0.3c0.1,0.2-3.8,0.8-3.9,0.8c-0.9,0.4-2.5-0.8-2.9-0.6
		c-0.8,0.5-0.3,2.6-0.4,2.7c-1.3,0.6-0.5-2.2-0.6-2.4c-0.3-1.1-4.6,3.9-3.8,4.1c-1.8-0.6-2.1,0.4-3.8,0.3c-1.6-0.1-1.7-1.3-2.5-1.9
		c-1-0.7,0.9-2.6-0.9-3c-0.9-0.2-3.2,1-3.9,0.6c-0.2-0.2,0.2-3.8,0.4-4.2c0.3-0.6-2.5-0.4-2.7,1.7c-1.3,3.6-6.1,0.5-6.3-2.7
		c-0.2-2.3-0.3-3.5,1.7-5.1c0.5-0.4,4.1-1,4.2-0.6c-0.1-0.5-0.7-0.9-1.1-0.8c0.5-1.2,3.6-0.2,4.3-0.6c1.9-1,2,1.5,3.2,2.4
		c3,2.2-0.5-3.6-0.5-4.3c0-1.3,2.5-3.7,3-4.2c0.1,0.1,0-3.7-0.5-3.6c0.3,0,0.6,1.5,0.5,1.5c0.4,0,0.6-3.1,0.7-3.3
		c0.3-0.1,1,0,1.2-0.4c-0.3,0.1-0.5,0.1-0.7-0.1c0.1-0.2,2.5-1.2,2.2-1.3c-2.4-0.9,1.7-2.8,1.5-3.4c0.1-0.1,1.6-1.1,1.7-1.1
		c-0.2,0,0.7,0.8,0.7,0.4c0,0.4-1.2,0.5-1.4,1.1c-0.3,1,0.8,0.5,1,0c0-0.1,3.1-2.3,2.9-2.4c-0.2-0.1-0.8-0.6-0.8-0.6
		c-0.3,0.2-2.2,2.8-3,0.9c0-0.1,0-0.1,0-0.2c0,0.1-0.2-0.7-0.2-0.7c0-0.1-0.7,0.2-0.9,0c0.4,0.3,0.9-1.1,1-1.1c-1.3-1-4,1.7-4.1,2.6
		c0.1-0.3,0.2-0.5,0.3-0.8c-0.3-0.4,1.2-2,2-2.5c0.8-0.6,2.1-0.8,3.1-0.9c1.5-0.1,0.9-0.6,1.8-1.4c0.5-0.4,2.1-1.8,0.4-2.3
		c-1-0.3-1.3,0.5-2.3,0.6c-0.3-0.4,0.8-0.9,1-1c0.4-0.3-1.3-0.2-1.3-0.2c-0.1-0.6-0.5,0.1-0.6,0c0,0-1.3-1.6-1.3-1.6
		c-0.1,0-0.1-0.1-0.2-0.1c-0.1,0-0.2,0-0.2-0.1c0-0.1,0-0.1,0-0.2c-0.3-0.2-0.6-0.4-0.9-0.5c0.2-0.2-1.4-1.3-1.6-1.4
		c-0.1,0-0.3,1.4-0.5,1.6c-0.8,0.6-0.9,0.3-1.8,0.3c-0.2-0.4-0.1-0.8-0.6-0.8c0-0.2,0.4-0.8,0.1-1c-0.3-0.2-1.7-0.2-2.1-0.4
		c0-0.3-2.8,0.2-3,0.5c0.1-0.2,0.7,3.5,0.3,3.2c0.7,0.6,1.6,0.5,1.4,1.7c-0.2,0.8-2.1,1.7-1.2,2.3c0.4,0.3,0.6,2.5,0.6,2.5
		c0,0-2.3-0.1-1.9-0.6c-0.5-0.7-0.6-2.5-1.5-2.2c-2.1,0.5-3.6-1-5.6-0.3c-0.2-1.8-1.2-1.1-1.2-2.4c-0.5-0.9,2.5-3,2.3-3.3
		c-0.2-0.1-0.3-0.2-0.4-0.3c0.9,0,2-1,2.3-1.7c0.1-0.2-1.2,0.1-1.3-0.3c0,0.4,1.6-0.3,1.6-0.9c0-0.3,0.8,0,1-0.1
		c0,0.2,0.6-0.6-0.1-0.5c2.1-0.3,0.7-1,1.4-1.9c0.3-0.4-0.9-0.4-1.2-0.4c-0.5,0.1-0.3,1.6-0.8,1.7c0-0.2,0-0.3-0.1-0.3
		c0.1-0.1-0.4,1.3-0.5,1c-0.1-0.4-0.5-0.5,0-0.9c-0.3-0.9-0.4-0.4-1,0.1c-0.2,0.2-0.1-0.7,0-0.8c-0.1,0-0.7,0-0.9,0.1
		c0-0.1,0.6-0.5,0.5-0.6c-0.1-0.2-0.4-0.9-0.6-1c0.1,0,0.4-0.6,0.4-0.7c0.2-0.2,1.4-0.5,1.4-1c-0.1-1.3-2.7,2.3-2.4,2.1
		c0,0.1-0.6,0.6-0.5,0.7c-0.2-0.2,0.8,1.4,0.8,0.8c0-0.2-0.5,1-0.2,0.4c0,0-1,1.6-1,1.6c-0.2,0.1-0.2-1.4-1-0.6
		c-0.4,0.4,0.7,0.1,0.4,0.4c-0.2,0.1-0.4,0-0.6-0.1c-0.4,0.8-1.8,0.4-2.4,0.3c-0.3,0-1.4,0.4-1.2,0.4c0-0.2,0.8-0.4,0.8-0.5
		c0,0.1-1.8,1.5-1.5,1.8c-0.3-0.2,0.3-0.7-0.1-0.9c-0.2-0.1-2.2,0.5-2.2,0.3c0-0.1,0.7-1.6,0.2-0.8c-0.8,0.2-1.3-1.1-2.1,0
		c0,0,0.4-0.6,0.4-0.5c-0.1,0-0.8,0.7-0.8,0.7c0-0.1,0.4-1,0.4-1c-0.1,0-1.1,0.9-1.1,0.9c0,0-1.1,0.5-1.2,0.7c0.2-0.3,1.2-1,1.5-1.1
		c-0.6,0.1-1.1,0.8-1.7,1c0.6-0.6-0.6,0.2-0.7,0.4c0,0-0.1,0.2-0.1,0.2c-0.3-0.1-0.4-0.3-0.2-0.5c0-0.1-0.2,0-0.2,0
		c0.1,0-0.6-0.3-0.6-0.3c0-0.1,0.1-0.1,0.1-0.2c0-0.1-0.2,0.1-0.3,0.1c-0.1,0.1,0.3-0.4,0.3-0.4c-0.4,0.5-0.1-0.3,0-0.1
		c0,0.1-0.1,0.2-0.1,0.2c0,0,0-0.1,0.3-0.4c-0.2,0.2-0.6,0.6-0.9,0.7c-0.7,0.2-4.5,3.8-4.2,4.2c0,0-0.2,0.3-0.2,0.2
		c0-0.1,0-0.1,0.1-0.2c-0.7,0.4-1.4,1.5-1.9,2.1c0,0,0.1,0.1,0,0.1c0-0.1,0.1-0.1,0.1-0.2c-0.1,0.1-0.1,0.2-0.1,0.2
		c0,0,0.3-0.4,0.4-0.4c-0.7,0.1-3.2,3.8-3.3,4.4c0,0,0.1-0.2,0.1-0.2c-0.1,0.3-0.5,0.7-0.7,1.1c0.1-0.3,0.5-0.6,0.6-0.8
		c-0.5,0.6-0.9,1.4-1.2,2.1c0,0.1,0.3-0.3,0.3-0.3c0,0,0,0.1,0,0.1c0,0-0.2,0.5-0.1,0.3c0.3-0.4,0.1-0.3,0.4-0.4
		c-0.9,1.6-2,3.2-3,4.7c0.3-0.4,0.5-0.8,0.7-1.1c0.1-0.1,0,0,0,0.1c1.5-1.8,3-5.6,5.1-6.7c-0.1,0.2-0.2,0.4-0.3,0.5
		c-0.1-0.1-0.1,0-0.2,0c-0.3,0.2-0.9,1-0.9,1.4c-0.2,0.1-0.3,0.2-0.3,0.4c0.1,0.3,1.8-2,1.8-2c0.2,0,0,0.6,0.2,0.8
		c0,0,1.1,0.1,1.1-0.1c0,0.1-0.4,1.6,0,1.4c0.1-0.2,0.2-0.4,0.4-0.5c0,0.1,0,0.3,0,0.4c0.2-0.2,0.3-0.4,0.3-0.6
		c-0.1,0-0.1,4.9-0.1,5.2c-0.2-0.7,0.6,0.5,0.4,0.7c-0.1,1.2,2,2.3,1.5,3.2c0.1-0.2-1.5-2-2-1.8c-0.3,0.1-0.1,0.7,0.1,0.8
		c0.1,0,0.4,0,0.3,0.3c0,0.1-0.1,0.1-0.1,0.1c-0.1,0.4,0.6,0.4,0.7,0.5c-0.4,0.7-0.2,3.8-0.4,4.7c0,0,0-0.1,0-0.1
		c-0.3,2.3-0.7,4,0.8,5.4c-0.2,0.5,0,2.8,1,3c1.4,0.3,4,5.3,4.4,5.2c-0.2,0-0.4,0-0.5,0.1c0.5-0.7,3.7,3.7,4.1,3.3
		c0.3-0.2-5.3-6.6-4.4-6.9c1.5-0.5,2.1,3.6,3.1,2.8c0.7,0.5,1,1.7,1.8,1.9c1.1,0.3,2.4,1.8,2.9,2.8c0.5,1.2-0.1,1.6,1.7,1.9
		c1.7,0.3,4.2,1.7,5.9,1.3c1.1-0.3,1.4-1.1,2.7-0.3c1.3,0.8,2.9,0.9,4.4,0.7c1.3-0.2,2.7,2.4,3,2.4c1-0.2,1.5,0.5,2.5,0.5
		c0.4,0,1.7,0.7,2.1,0.5c0.5-0.2-0.4-0.7,0.2-1.1c1.1-1,1.7,0.2,2.2,1.2c1.3,2.7-0.8,3.5-1.1,6c-0.2,1.2,1,0.9,1,1.5
		c0.1,0.9-0.7,1.4-0.3,2.4c0,0.1,2.3,1.5,2.6,1.8c0.9,0.9,1.8,2.6,2.7,3.3c1.6,1.4,4.5,0.7,4.9,3.2c0.3,1.7,0.5,3.9,0.3,5.7
		c-0.3,1.7,0.7,3.3-0.2,5.1c-0.2,0.4,0.8,2.8,0.6,3.1c0.1-0.1,0-1.1,0.3-0.9c0.9,0.5-0.5,2.3-0.6,2.5c-0.1,0.2,0.4-0.1,0.5,0.1
		c0,0,1,4.8,2.6,2.5c0.2-0.3-1.5-0.5-0.6-0.7c0.1-0.6,0.9-3.3,1.1-3.3c0,0.1,0.6-1.1,0.3-1.1c-0.1-0.5,0.8,0.2,0.5-0.4
		c0.1,0.2-1.3-0.3-0.5-0.7c0.6-0.2,1.5-0.1,1.1-1.2c0.5-0.7,1.9-0.5,2.4-1.4c0.3-0.4,0-2.2-0.3-1.9c0.6-0.6,1.8,0.3,2.6-0.9
		c0.1-0.2,1.3-2.7,1.6-2.5c0.3-0.7-0.7,1-0.4,0.9c0.7-0.4,1.7-2.4,1.8-3.2c0.2-1.6,1.5-2.8,2.9-3.5c3.4-1.6,2.8-5,4-8.1
		C556.4,121.2,559.2,115.4,557.6,114.7z M507,61.2c0-0.8-0.6-0.2-0.7-0.1c0,0,0,0-0.1,0c0-0.1-0.5,0.5-0.5,0.5
		c0.4,0.3,1.8,0.1,1.4-0.2C507.1,61.3,507.2,61,507,61.2z M514.3,73.6c0.2,0.1,0.5,0.1,0.7,0C515,72.9,514,73.5,514.3,73.6z
		 M526.7,73.6c0.2,0.5,1.8,0.4,2.1,0.2C528.4,73.2,527.1,73.5,526.7,73.6z M534.8,73.5c-0.4,0.7,0-0.5,0-0.5c0-0.4-3-0.7-3-0.6
		c0-0.1,0.1-1.4,0.1-1.4c0,0,0.1-0.2,0.1-0.2c-0.5,0-1.4,1.7-0.8,2c-0.8,2.5,0.5,1.1,2.3,1.2c0.3,0-0.4,0.6-0.1,0.7
		c0.5,0.1,0.5-0.7,1-0.6c0.2,0.1,0.5,0.3,1,0.4C536.1,74.7,535.1,73.1,534.8,73.5z M532.8,100.9c0,0-1.4,0.3-0.8,0.5
		C532.7,101.8,533.7,100.8,532.8,100.9z M522.9,103.2c-0.1,0.5,1.7,0.3,1.5,0C524.3,102.9,523,102.8,522.9,103.2z M527.3,102.1
		c-0.4-0.1-0.9,0-1.3,0.1c0.4-0.3,3.6-0.2,4.7-0.8c-0.1,0-3.3-1.6-4-0.4C526.6,101.3,528.3,101.9,527.3,102.1z M525.2,100.8
		c-1.1,0-2.7-0.7-3.8-0.9c-1.2-0.2-1.7-0.1-2.9,0.3c0,0-2,1.3-1.2,1.2c0.7-0.1,1.2-1.3,2-0.9c0,0.1-0.1,0.1-0.1,0.2
		c0.9,0.4,3.6-0.4,4.2,0.6c-0.9,1,2.3,0,2.4,0C525.9,100.8,525.5,100.8,525.2,100.8z M538.3,106.2c-0.3-0.2-0.5,0.4-0.4,0.5
		C537.9,107.1,538.7,106.5,538.3,106.2z M486.8,79c-0.1,0.1-0.2,0.3-0.3,0.3c0,0,0.2-0.3,0.2-0.3c-0.1-0.4-0.3,1.4-0.2,1.6
		C486.5,80.8,486.5,79.2,486.8,79z M487.2,76.6c0,0-0.7,1.3-0.2,1.6C487,78.2,487.3,76.9,487.2,76.6z M487.4,75
		c-0.1,0.1-0.4,0.9-0.4,0.9c0.2-0.3,0.3-0.6,0.1-0.8c-0.2-0.1-0.6,1.7-0.5,1.8C486.7,76.7,487.8,75.2,487.4,75z M483,75.9
		c-0.6,0.8-0.5,0.9-1,1.6c0.1-0.1,0.6-1.1,0.7-1.1c0.1-0.2,0.4-0.4,0.4-0.5C483.2,75.7,483.2,75.7,483,75.9z M514.6,65.5
		c0.2-0.4-0.3-0.7-0.4-0.3C514.1,65.6,514.4,65.9,514.6,65.5z M512.9,64.9c-0.1,0.1-1,0.3-0.7,0.7C512.6,66.3,513.3,64.6,512.9,64.9
		z M513.9,63.9c-0.1-0.2-2.5-1.1-2.7-1c-0.2,0-0.7,1.8-0.7,2c0,0.2,0.8-0.4,0.8,0.2C511.5,65.1,513.7,63.5,513.9,63.9z M510.6,53.9
		C511.7,54.1,510.2,53.4,510.6,53.9C510.7,53.8,510.6,53.8,510.6,53.9z M506.8,57.1c0.3-0.1,0.3-0.5,0-0.2
		C506.5,57.2,506.6,57.2,506.8,57.1z M508.1,57.6c-0.2,0,0.1-0.1,0-0.2c0,0-0.4,0.2-0.5,0.2c-0.1,0.1-0.2,0-0.3,0.1
		c0,0.1-0.5,0.3-0.5,0.4c0-0.1-0.1,0.5-0.1,0.4c-0.1,0.3-0.4,0-0.4,0c-0.2,0,0,1.7,0.7,0.8c0.3,0.8,1.5-2.1,0.8-1
		c-0.1-0.2-0.2-0.2-0.4,0C507.4,58.3,508.2,57.5,508.1,57.6z M507.9,56.3C507.9,56.3,508,56.3,507.9,56.3c0,0,0,0.2,0,0.2
		c-0.1,0-0.1-0.6,0-0.5c0-0.6-0.3,0.4-0.3,0.2c-0.2,0.1-0.2,0.2,0,0.2c-0.1,0-0.1,0.1-0.1,0.1c0,0,0.1-0.1,0.2-0.1
		c-0.3,0.3,0.6-0.1,0.7-0.1c0,0-0.5,0.3-0.3,0.3c-0.1,0.2-0.1,0.2,0.1,0.1c0.1,0,0.3,0,0.4-0.1c0-0.1,0.1-0.1,0.2-0.1
		c0.1-0.3,0.6-0.5,0.5-0.9c0,0-0.1-0.1-0.1,0c-0.2,0.1-0.4,0.3-0.6,0.4c0,0,0.1,0,0.1,0.1C508.2,56.1,508.3,56,507.9,56.3z
		 M509.6,56.1c-0.4,0.1-0.8,0.3-0.7,0.7C509.3,57.4,509.9,56,509.6,56.1z M510.5,54.9c0,0,0.1-0.1,0.1-0.1c-0.2,0-0.4,0.1-0.6,0.2
		C510,55.1,510.6,54.8,510.5,54.9z M510.1,54.8c0.2,0,0.3-0.1,0.3-0.2C510.7,54.4,510.3,54.3,510.1,54.8c-0.1,0-0.1-0.1-0.2,0
		C509.8,54.9,510,54.8,510.1,54.8z M511.3,54.7c-0.1-0.2,0.1,0.1,0.1,0.1S511.4,54.8,511.3,54.7z M510.7,55.3c-0.1,0-1.3,0-1.1,0.3
		c0.6,0.9,0.8,0.9,2.2,0.7c0.3,0,2.6-0.8,1.7-1.1c0,0-0.1,0-0.1,0c-0.8,0.2-1.5,0.4-2.2,0.6c0,0,0-0.1,0-0.1c-0.2,0-0.3,0.1-0.5-0.1
		C510.7,55.6,511.4,55.2,510.7,55.3z M507.9,55.7c0.1,0.1-0.1-0.2-0.1-0.2C507.8,55.5,507.8,55.5,507.9,55.7z M508.8,54.9
		c0,0,0.4-0.2,0.5,0c0.1,0.3,0.5-0.4,0.5-0.4c0,0,0,0,0,0s0-0.5-0.1-0.1c0,0-0.3-0.2-0.1-0.2c-0.2,0-0.4,0.1-0.5,0.2c0,0,0.1,0,0,0
		c-0.1,0.1-0.1,0.1-0.1,0.1s0.3-0.2,0.1,0C509.2,54.6,508.6,55,508.8,54.9z M507.4,55.2c0.2-0.1,0.7,0,0.8-0.4
		C508.2,54.8,507.1,55.3,507.4,55.2z M507,55.7c0.2,0,0.3-0.1,0.3-0.2C508.5,54.7,505.7,56.3,507,55.7z M506.2,56.6
		c0,0.2-0.5,0.4-0.7,0.5c-0.1,0-0.1-0.2-0.1-0.2s0,0,0,0c0.1-0.2,0-0.4-0.1-0.4c-0.2,0-0.3,0.1-0.4,0.2c0,0-0.7,0.3-0.4,0.3
		c-0.4,0.3-0.3,0.4-0.9,0.6c0.2-0.1,0.2-0.1,0.1,0.1c-0.1-0.1,1-0.3,1-0.3c0.2-0.1-0.8,0.4-0.9,0.6c0,0.1,1.8-0.8,1.9-0.7
		c0.2,0.2,1.3-0.8,1.1-0.9c-0.1-0.1-0.5,0.4-0.6,0.3c0.2-0.1,0.2-0.2,0-0.1c0,0,0.5-0.5,0.4-0.5C506.6,56.1,506.1,56.5,506.2,56.6z
		 M504.3,57.1c-0.2,0.1-0.5,0.3-0.7,0.4C503.7,57.5,504.2,57.1,504.3,57.1z M503.5,57.3c0.1,0,0.1,0,0.1,0c0,0,0.8-0.5,1.4-0.8
		c-0.1,0.1-0.4,0.3-0.4,0.4c0.1,0.1,1.5-1.1,1.5-1.1C505.9,55.6,503.2,57.4,503.5,57.3z M501.8,59.7c-0.5,0.3-1,1.1-1,1.1l-0.2,0.2
		c0,0,0.8-0.2,0.3,0c-0.3,0.1-0.6,0.3-0.8,0.5c-0.1,0.2,1.7-0.5,1.5,0c-0.1,0.1-2.5,0.8-1.9,1.1c0.1,0.1,0.7-0.1,0.8,0
		c-0.1,0.2-0.1,0.4-0.1,0.6c1,0.4,3.6-2,4.4-1.6c-0.2,0-0.3,0-0.5,0.1c-0.1,0,1.2-0.7,1.1-0.8c-0.1-0.2-1.4-2.7,0.2-2.7
		c-0.3,0-2.1,1.6-1.9,1.8c-0.2-0.3,0.8-1.1,0-0.9c-0.2,0.3-0.2,0.5-0.7,0.5c0.3-0.1,0.4-0.3,0.2-0.4c-0.4,0-0.6,0.5-1,0.5
		c0,0,0.7-0.7,0.5-0.6C502.5,59.3,502.1,59.5,501.8,59.7z M499.2,61c-0.1,0.2-0.1,0.4-0.2,0.6c-0.1-0.5,4.1-1.9,3.8-2.9
		c0,0.1-1.2,0.1-1.4,0.2c-0.4,0-2.2,1.9-2.5,2.2C499,61,499.2,60.9,499.2,61z M515.8,59.9c-0.8-0.2-1,1-0.3,0.8
		C515.9,60.6,516.3,60,515.8,59.9z M513.6,56.9c0.1,0.2,1.4-0.2,1.2-0.3c-0.6-0.6-1.6,0.2-1.4,0.2C513.5,56.8,513.5,56.8,513.6,56.9
		z M522.3,60.5c1.6,0.1-0.8-1.1-0.9-1.2c-1-0.4-1.9,0-2.6-0.9c-0.4,0.2,1.1-0.2,0.4-0.2c-0.3,0-1.9-1.3-2.6-1
		c-0.4,0.1-0.5,0.3-1,0.1c0.3-0.2,0.2-0.3-0.2-0.2c0-0.5-1.1-0.3-1.3,0c0,0.1-0.8,0.2-0.8,0.3c0-0.2,0-0.4,0-0.6
		c-1.4-1.5-2,1.7-1.5,1.5c-0.8,0.3-0.5-1.7,0-1.7c-0.7,0-2,1.1-1.9,1.9c0,0.2,0.6,0,0.7,0.1c0.2,0.2-1,0.2-0.6,0.6
		c0.4,0.4,2.4,0.1,2.8-0.1c-0.1-0.6,2-0.4,2.2,0.2c0.1,0.4,3.5-0.3,1.8,1.4c0,0-1.2,2.4-1.7,1.6c-0.6,0.4,3.3,0.7,3.2,0.7
		c0.5,0.5,3.6,0.8,3.6,0.4c0-0.3-1.9-1.1-1.9-1.1c0.6,0.1,2,0.9,2.6,0.5c-0.1-0.1-0.3-0.2-0.5-0.2c0.2-0.1,0.1-0.3,0-0.4
		c0.6-0.1-2.5-1.7-2.5-1.7c0.9-0.2-0.1-0.4,0.2-0.5c0.4,0.1,0.8,0.1,1.1,0.1c0.1,0.7,1.2,0.5,1.2,0.5
		C522.1,60.6,521.9,60.5,522.3,60.5z M512.6,52.9C512.6,52.9,512.6,52.9,512.6,52.9c-0.1,0.1,0.6,0,0.7,0c0.1-0.1,0.6-0.1,0.7-0.2
		c-0.1,0.2-0.5,0.2-0.6,0.3c0,0-0.7,0.3-0.6,0.3c0,0,0.2,0.3,0.2,0.3c-0.1,0.1-1.4,0.7-0.5,0.5c0,0.2,0,0.2-0.2,0.3
		c-0.1-0.2-0.9,0.5-1,0.7c-0.2,0.4,3.6-0.6,2.6-0.7c0-0.1,0-0.2,0-0.2c0.2-0.1,0.3-0.2,0.2-0.4c0.4,0,0.8-0.2,0.5-0.6
		c0.1,0,0.3-0.1,0.1-0.1c0.2,0,0.3-0.1,0.1-0.2c0,0,0.5-0.3,0.5-0.3c0,0,0.1,0,0.1,0c0.1-0.1,0.2-0.3,0.3-0.4c-0.1,0-0.2,0-0.3,0
		c0,0,0,0,0,0c0.1,0,0.2,0,0.3-0.2c0-0.2-0.6,0-0.7,0c0,0,0,0,0,0c0,0-0.4,0-0.3,0.1c-0.1,0-0.1,0-0.2,0c-0.1,0-0.3,0.1-0.4,0.1
		c0,0-0.1,0-0.1,0c0,0,0,0,0,0c-0.1,0.1-0.3,0-0.3,0.2c-0.1,0.1,0,0-0.1,0c-0.1,0-0.3,0-0.4,0.1c0,0,0,0,0,0c-0.1,0-0.9,0.3-0.6,0.3
		C512.7,52.8,512.7,52.8,512.6,52.9c0-0.1,0.1-0.1,0.1-0.1C512.7,52.8,512.6,52.9,512.6,52.9z M511.4,53.9c-0.2,0-0.3,0.1-0.4,0.3
		c0,0.2,0.6,0.2,0.6,0c0.2-0.2,1.2-0.5,0.9-0.7c0,0-0.1-0.5-0.1-0.6c-0.2,0.3-1.1,0.5-1.3,0.9C510.7,54,511.8,53.6,511.4,53.9z
		 M558.6,64.8c0.2-0.3-1.9-1.5-2.2-1.6c0,0,0.1,0,0.1,0c-0.8-0.7-1.9-1.1-2.8-1.5c-0.1-0.1,0-0.1,0-0.2c-0.4-0.2-1.5-0.8-1.7-1
		c0,0,0,0,0,0c-0.1,0-0.2-0.1-0.2-0.1c0-0.1-0.4-0.8-0.5-0.5c-0.1,0-0.2,0.1-0.2,0.2c0.4,0.4,0.4,0.6,0.4,0.7c0,0,2.2,1.6,2.1,1.5
		c-0.1-0.1-0.3-0.3-0.4-0.4c-0.1-0.1,1.4,1,1.3,0.7c0-0.1,1.5,0.8,1.3,1.1c-0.1,0.1-0.1,0.2,0.1,0.4c0.8,0.4,0.6,0.8,1.6,0.9
		c0.3,0.4-0.2,0.7,0.4,1.3c-0.1,0,0.7-0.8,0.9-1C559,65.1,558.6,64.8,558.6,64.8z M550.9,60.3c0,0,0.4,0.3,0.5,0.3
		c-0.1-0.1-0.2-0.3-0.4-0.5C550.8,60.1,550.9,60.3,550.9,60.3z M554.7,63.2c-0.1-0.5-1-0.8-1.4-0.8c-0.2,0,0.1,0.5,0.2,0.6
		c0,0,0.1,0,0.2,0c0.1,0.1,0.1,0.2,0,0.3c-0.2,0.7,1.4,0.7,1.2,1.6c0,0-0.1,0.1,0,0.1c0.4,0.3,1.5,0.1,1.2-0.4
		C555.7,64.4,554.8,63.5,554.7,63.2z M538.4,56.2c0.6,0.1,0,0,0.2,0.4c0.2,0.5,0.5,0,1,0.1c0,0.1,0,0.1,0,0.1c0.1,0,0.2,0,0.3,0.1
		c-0.2,0-0.3,0.2-0.4,0.3c0.4,0.4,3.2,0.9,3.3,0c0.1-1.1-1.8-1.7-2.8-1.7c0.1,0.1,0.2,0.2,0.4,0.2c0,0-0.2,0.1-0.3,0.1
		c0,0,0.4,0.3,0.3,0.3c-0.5-0.2-0.7,0.2-0.9-0.1c-0.2-0.3,0.6,0.5,0.3,0.4C539.4,56.4,538.9,56.2,538.4,56.2
		C538.4,56.1,538.1,56.1,538.4,56.2z M523.8,56.7c0.1,0.2,0.2,0.3,0.5,0.2c0.3,0.2,0.6,0.1,0.8-0.2
		C525.2,56.5,523.5,56.1,523.8,56.7z M515.8,52.5c0.1,0,0.2,0,0.3,0c0.6,0.5-0.9,0.5-1,1c0.2,0.2,0.4,0.2,0.6,0.1c0,0,0,0.1,0,0.1
		c-0.4,0,1.1-0.3,1-0.1c0,0.1-1.3,0.3-1,0.5c0.1,0,0.8,0,0.8,0c-0.1,0.2-0.4,0.2,0.3,0.2c1.3,0,2.1-0.4,3.6,0c1,0.3,1.6,1.4,2.2,1.6
		c0.7,0.2,1.2-0.6,2.1,0.2c-0.1,0.2-1-0.2-1.3,0c0.2-0.1,2.2,0.6,2.4,1c-0.1-0.2-1.1,1.8,0.3,1.4c2.5,1.1,5,5,8.6,4.1
		c0.4-0.1-2.8-4.4-1.7-5c1.1-0.6,1.4-0.4,0-1.9c0.7,0.8,2-0.7,1.6-1.5c0.1,0.2-2.3-0.5-2.3-0.5c0.1,0,1.7,0.3,1.7,0.2
		c-0.2-0.4-3.9-1.2-3.9-1.2c0.1-0.1,0.9,0,0.8-0.2c-0.2-0.1-0.5-0.2-0.8-0.2c0.1-0.3-3.5-0.7-3.2-0.9c0,0-1.1-0.1-1.2-0.1
		c0,0-0.5-0.2-0.6,0c-0.2,0.2-2.3-0.6-2.4-0.3c0.1-0.2-0.5,0-0.5,0c0.1,0,0.2,0.1,0.2,0c-0.2,0-0.3,0-0.5,0c0.1,0,0.2-0.1,0.2-0.1
		c-0.2,0.1-0.6,0-0.9,0c-0.1,0-0.1,0-0.1,0c0,0,0.2,0,0.1-0.1c-0.4-0.2-1.5,0-1.8,0.1c0.2-0.1,0.9,0.1,0.4,0c0.1,0,0.7,0.1,0.9,0
		c-0.6,0-1.2-0.1-1.8,0c0.1,0,1,0,0.5,0c-0.3,0-0.5,0-0.8,0c0,0,0,0,0,0c0,0,0.1,0-0.1,0c-0.1,0-0.2,0-0.3,0c0-0.1-1.9,0.2-2,0.2
		c0.2,0,0,0,0.1,0c-0.1,0-0.1,0-0.1,0c0,0,0,0,0,0c0,0-0.1,0,0,0c0.1-0.1,0.2-0.1,0.3,0c-0.1,0,1.3-0.1,0.9,0c-0.3,0-0.7,0.1-1,0.1
		c0.2,0,0.3,0,0.4,0c0.1,0,0,0-0.1,0c0.1,0,0.1,0,0.2,0c-0.1,0-0.5,0.1-0.6,0c0,0,0.7,0,0.4,0.1c-0.2,0-0.4-0.1-0.6,0
		c0,0,0.1,0,0.1,0c-0.1,0-0.2,0-0.3,0.1c0.1,0,0.2,0,0.4,0c-0.2,0-0.3,0-0.4,0c0,0,0,0,0,0c0,0,0.1,0,0.2,0c0,0,0,0,0,0
		c0.1,0,0.1,0,0.1,0c-0.1,0-0.2,0-0.3,0.1c0.1,0,0.1,0.1,0.2,0.1c-0.2,0-0.5,0-0.5,0.3C515.7,52.5,515.8,52.5,515.8,52.5z"/>
	<g>
		<defs>
			<path id="SVGID_14_" d="M574.5,85.3c-0.6-1.7-1.2-3.5-2-5.1c-0.3-0.5-0.6-1-1-1.5c-0.5-0.6-2.1-2.6-2.1-3.2
				c-0.1-0.1-0.2-0.3-0.4-0.4c0,0.1-0.1,0.3-0.1,0.4c-1.4,0.2-1,2.1-2.9,1.6c-0.5-0.1,0.7,5.3,0.7,5.5c0,1.4-2.2,7.2-0.7,8.2
				c0-0.3,1.1,5.4,1.2,5.5c0.4,0.4,1.2,2.3,1.7,3.1c0.7,0.9,1.2,1.9,1.8,2.8c1.4,1.9,0.7,0.1,2.3,0.2c1.3,0,0.8-1.1,1.9-1.4
				c0.7-0.2,0.4,1.7,0.7,1.4c0.5-0.6,0.3,2.8,0.3,3.2c-0.2,2.1-0.1,4.3-0.5,6.4c-1.1,6.3-4.1,13-7.6,18.3
				C576.8,117.5,579.1,100.2,574.5,85.3z M565.9,76.7c0.9-1.6-0.1-1.7-0.4-3.6c-0.1-0.6-0.9-2.6-0.8-2.8c0.2,0.1,0.4,0.2,0.5,0.2
				c0,0-0.4-1.2-0.3-1.2c1.6,1,3.4,3.2,4.3,4.9c-0.6-1.2-3.5-5.9-4.6-6.1c0.1,0,0.5,0.6,0.6,0.6c-0.1-0.1-0.1-0.2-0.2-0.3
				c0.4,0,1.2,1.3,1.4,1.5c-2.4-3.2-5.3-6.1-8.3-8.6c0.3,0.3,0.4,0.5,0.6,0.7c-0.2-0.2-0.6-0.5-0.8-0.6c0,0,0.3,0.5,0.2,0.4
				c-0.9-0.9-2.4-1.5-3.3-2.5c1,1,2.2,1.7,3.2,2.7c0,0-0.1,0-0.1,0c0.7,0.6-0.6-0.4,0.3,0.5c-0.7-0.1,0.4,0.9,0.7,1.3
				c0.2,0.2,0.7,2,0.8,2c-0.2-0.1-0.3-0.2-0.5-0.3c0,0,0.7,0.8,0.7,0.9c-0.2,0.1-0.9-0.2-0.6,0.4c1.1,0.4,2.2,1.2,3.1,2.1
				c0.2,0.4,1.1,1.3,1,1.7c-0.1,0.2-2,0-2.2,0c-0.4,0.1,2.3,4.1,2.3,4.3C563.9,75.6,565.5,77.3,565.9,76.7z M569.1,74.5
				c-0.5-0.2,0.5,0.8,0.7,1c-0.2-0.3-0.5-1-0.7-1.2C569.1,74.3,569.2,74.5,569.1,74.5z M567.9,73.5c-0.1-0.4-1-1.2-1-1.4
				c0,0.7,1,1.2,1.1,1.7C567.9,73.7,567.9,73.6,567.9,73.5z M566.7,71.8c0-0.1-0.7-1.1-0.9-1.2C566,70.9,566.7,71.5,566.7,71.8z
				 M566.5,73.2C566.6,73.3,566.7,73.3,566.5,73.2C566.5,73.1,566.4,73,566.5,73.2z M566.6,73.5c-0.4-0.6-0.4-0.1-0.2,0.1
				C566.6,73.9,566.8,73.8,566.6,73.5z M504.4,77.6c0-0.4,0.1-1.1-0.2-1.3c-0.1,0.1-0.1,0.1-0.2,0.2c-0.5-1-1.1-1.3-0.1-2.4
				C504.9,74.7,504.4,77.6,504.4,77.6z M499.3,67.9c-0.5,0.2-3.3,3.1-3.9,2.2c0.3,0.4,1.1-1.8,1.2-1.8
				C497.5,68.3,499.2,68,499.3,67.9z M495,66.8c0.1,0,0.7-0.9,1-0.9c0.4-0.7-1.1,0.2-1.1,0.1c0-0.4,2-1.3,2.3-1.3
				c0.1,0.2-0.1,0.4-0.4,0.5c0.1,0,0.9-0.2,0.8-0.2c0.2,0.3-2.3,1.8-2.2,1.9c0.2-0.2,0.4-0.4,0.5-0.6
				C495.7,66.2,495.3,66.8,495,66.8z M508.3,79.7c1.8-1.5,1.9-2,3.7-1.5c1,0.3,1,1.2,2.1,1.2c0.4,0,3.1-0.3,2.6,1
				c-0.2,0.6-1.5-0.6-1.5-0.1c0,0.3,0.3,2.9-0.2,2.8c1.1,0.1,3.4-3.7,4.4-2.7c0.1,0.1-2.8,2.4-3,2.5c-2.2,1.4-1.3-0.6-2.4-1.2
				c-0.5-0.2,1.2-1.8-0.7-1.5c-1,0.2-1.3,1.7-1.2,2.4c0.5,4-2.3-0.9-1.1-1.3c0.6-1.2,0.8-0.9,1.9-1.5c0.1-0.3-2.2-0.2-2.5-0.2
				c0-0.1,0.1-0.2,0.1-0.3C510.7,79.3,507,80.8,508.3,79.7z M557.6,114.3c-1.4-0.5-3.9-2-5.3-0.8c0,0,0-0.1,0-0.1
				c-0.2,0.1-0.2,0.4-0.4,0.6c-0.3-1.5-3.1-1.8-2.9-0.6c-0.2-1.2-0.3-0.9-1.6-0.6c0.1,0.2,0,0.4-0.2,0.6c-0.5-0.3,0.2-1.2,0.3-1.5
				c0.2-0.4-0.5-1.6-0.7-2.1c-0.6-1.6-5-1.4-6.1-1.1c-0.2-0.9-1.8-1.8-2.4-1c0.8-1.1-1.3-1.2-1.3-1.2c0.2-0.1,0.3-0.2,0.4-0.3
				c0.1,0.2-3.8,0.8-3.9,0.8c-0.9,0.4-2.5-0.8-2.9-0.6c-0.8,0.5-0.3,2.6-0.4,2.7c-1.3,0.6-0.5-2.2-0.6-2.4c-0.3-1.1-4.6,3.9-3.8,4.1
				c-1.8-0.6-2.1,0.4-3.8,0.3c-1.6-0.1-1.7-1.3-2.5-1.9c-1-0.7,0.9-2.6-0.9-3c-0.9-0.2-3.2,1.1-3.9,0.6c-0.2-0.2,0.2-3.8,0.4-4.2
				c0.3-0.6-2.5-0.4-2.7,1.7c-1.3,3.5-6.1,0.5-6.3-2.7c-0.2-2.3-0.3-3.5,1.7-5.1c0.5-0.4,4.1-1,4.2-0.6c-0.1-0.5-0.7-0.9-1.1-0.8
				c0.5-1.2,3.6-0.2,4.3-0.6c1.9-1,2,1.5,3.2,2.4c3,2.2-0.5-3.7-0.5-4.3c0-1.3,2.5-3.7,3-4.2c0.1,0.1,0-3.7-0.5-3.6
				c0.3,0,0.6,1.5,0.5,1.5c0.4,0,0.6-3.1,0.7-3.3c0.3-0.1,1,0,1.2-0.4c-0.3,0.1-0.5,0.1-0.7-0.1c0.1-0.2,2.5-1.2,2.2-1.3
				c-2.4-0.9,1.7-2.8,1.5-3.4c0.1-0.1,1.6-1.1,1.7-1.1c-0.2,0,0.7,0.8,0.7,0.4c0,0.4-1.2,0.5-1.4,1.1c-0.3,1,0.8,0.5,1,0
				c0-0.1,3.1-2.3,2.9-2.4c-0.2-0.1-0.8-0.6-0.8-0.6c-0.3,0.2-2.2,2.8-3,0.9c0-0.1,0-0.1,0-0.2c0,0.1-0.2-0.7-0.2-0.7
				c0-0.1-0.7,0.2-0.9,0c0.4,0.3,0.9-1.1,1-1.1c-1.3-1-4,1.7-4.1,2.6c0.1-0.3,0.2-0.5,0.3-0.8c-0.3-0.4,1.2-2,2-2.5
				c0.8-0.6,2.1-0.8,3.1-0.9c1.5-0.1,0.9-0.6,1.8-1.4c0.5-0.4,2.1-1.8,0.4-2.3c-1-0.3-1.3,0.5-2.3,0.6c-0.3-0.4,0.8-0.9,1-1
				c0.4-0.3-1.3-0.2-1.3-0.2c-0.1-0.6-0.5,0.1-0.6,0c0,0-1.3-1.6-1.3-1.6c-0.1,0-0.1-0.1-0.2-0.1c-0.1,0-0.2,0-0.2-0.1
				c0-0.1,0-0.1,0-0.2c-0.3-0.2-0.6-0.4-0.9-0.5c0.2-0.3-1.4-1.3-1.6-1.4c-0.1,0-0.3,1.4-0.5,1.6c-0.8,0.6-0.9,0.3-1.8,0.3
				c-0.2-0.4-0.1-0.8-0.6-0.8c0-0.2,0.4-0.8,0.1-1c-0.3-0.2-1.7-0.2-2.1-0.4c0-0.3-2.8,0.2-3,0.5c0.1-0.2,0.7,3.5,0.3,3.2
				c0.7,0.6,1.6,0.5,1.4,1.7c-0.2,0.8-2.1,1.7-1.2,2.3c0.4,0.3,0.6,2.5,0.6,2.5c0,0-2.3-0.1-1.9-0.6c-0.5-0.7-0.6-2.4-1.5-2.2
				c-2.1,0.5-3.6-1-5.6-0.3c-0.2-1.8-1.2-1.1-1.2-2.4c-0.5-0.9,2.5-3,2.3-3.3c-0.2-0.1-0.3-0.2-0.4-0.3c0.9,0,2-1,2.3-1.7
				c0.1-0.2-1.2,0.2-1.3-0.3c0,0.4,1.6-0.3,1.6-0.9c0-0.3,0.8,0,1-0.1c0,0.2,0.6-0.6-0.1-0.5c2.1-0.3,0.7-1,1.4-1.9
				c0.3-0.4-0.9-0.4-1.2-0.4c-0.5,0.1-0.3,1.6-0.8,1.7c0-0.2,0-0.3-0.1-0.3c0.1-0.1-0.4,1.3-0.5,1c-0.1-0.4-0.5-0.5,0-0.9
				c-0.3-0.9-0.4-0.4-1,0.1c-0.2,0.2-0.1-0.7,0-0.8c-0.1,0-0.7,0-0.9,0.1c0-0.1,0.6-0.5,0.5-0.6c-0.1-0.2-0.4-0.9-0.6-1
				c0.1,0,0.4-0.6,0.4-0.7c0.2-0.2,1.4-0.5,1.4-1c-0.1-1.3-2.7,2.3-2.4,2.1c0,0.1-0.6,0.6-0.5,0.7c-0.2-0.2,0.8,1.4,0.8,0.8
				c0-0.2-0.5,1-0.2,0.4c0,0-1,1.6-1,1.6c-0.2,0.1-0.2-1.4-1-0.6c-0.4,0.4,0.7,0.1,0.4,0.4c-0.2,0.1-0.4,0-0.6-0.1
				c-0.4,0.8-1.8,0.4-2.4,0.3c-0.3,0-1.4,0.4-1.2,0.4c0-0.2,0.8-0.4,0.8-0.5c0,0.1-1.8,1.5-1.5,1.8c-0.3-0.2,0.3-0.7-0.1-0.9
				c-0.2-0.1-2.2,0.5-2.2,0.3c0-0.1,0.7-1.6,0.2-0.8c-0.8,0.3-1.3-1-2.1,0c0,0,0.4-0.6,0.4-0.5c-0.1,0-0.8,0.7-0.8,0.7
				c0-0.1,0.4-1,0.4-1c-0.1,0-1.1,0.9-1.1,0.9c0,0-1.1,0.5-1.2,0.7c0.2-0.3,1.2-1,1.5-1.1c-0.6,0.1-1.1,0.8-1.7,1
				c0.6-0.6-0.6,0.2-0.7,0.4c0,0-0.1,0.2-0.1,0.2c-0.3-0.1-0.4-0.3-0.2-0.5c0-0.1-0.2,0-0.2,0c0.1,0-0.6-0.3-0.6-0.3
				c0-0.1,0.1-0.1,0.1-0.2c0-0.1-0.2,0.1-0.3,0.1c-0.1,0.1,0.3-0.4,0.3-0.4c-0.4,0.5-0.1-0.3,0-0.1c0,0.1-0.1,0.2-0.1,0.2
				c0,0,0-0.1,0.3-0.4c-0.2,0.2-0.6,0.6-0.9,0.7c-0.7,0.2-4.5,3.8-4.2,4.2c0,0-0.2,0.3-0.2,0.2c0-0.1,0-0.1,0.1-0.2
				c-0.7,0.4-1.4,1.5-1.9,2.1c0,0,0.1,0.1,0,0.1c0-0.1,0.1-0.1,0.1-0.2c-0.1,0.1-0.1,0.2-0.1,0.2c0,0,0.3-0.4,0.4-0.4
				c-0.7,0.1-3.2,3.8-3.3,4.4c0,0,0.1-0.2,0.1-0.2c-0.1,0.3-0.5,0.7-0.7,1.1c0.1-0.2,0.5-0.6,0.6-0.8c-0.5,0.6-0.9,1.4-1.2,2.1
				c0,0.1,0.3-0.3,0.3-0.3c0,0,0,0.1,0,0.1c0,0-0.2,0.5-0.1,0.3c0.3-0.4,0.1-0.3,0.4-0.4c-0.9,1.6-2,3.2-3,4.7
				c0.3-0.4,0.5-0.8,0.7-1.1c0.1-0.1,0,0,0,0.1c1.5-1.8,3-5.6,5.1-6.7c-0.1,0.2-0.2,0.4-0.3,0.5c-0.1-0.1-0.1,0-0.2,0
				c-0.3,0.2-0.9,1-0.9,1.4c-0.2,0.1-0.3,0.2-0.3,0.4c0.1,0.3,1.8-2,1.8-2c0.2,0,0,0.6,0.2,0.8c0,0,1.1,0.1,1.1-0.1
				c0,0.1-0.4,1.6,0,1.4c0.1-0.2,0.2-0.4,0.4-0.5c0,0.1,0,0.3,0,0.4c0.2-0.2,0.3-0.4,0.3-0.6c-0.1,0-0.1,4.9-0.1,5.2
				c-0.2-0.7,0.6,0.5,0.4,0.7c-0.1,1.2,2,2.3,1.5,3.2c0.1-0.2-1.5-2-2-1.8c-0.3,0.1-0.1,0.7,0.1,0.8c0.1,0,0.4,0,0.3,0.3
				c0,0.1-0.1,0.1-0.1,0.1c-0.1,0.4,0.6,0.4,0.7,0.5c-0.4,0.7-0.2,3.8-0.4,4.7c0,0,0-0.1,0-0.1c-0.3,2.3-0.7,4,0.8,5.4
				c-0.2,0.5,0,2.8,1,3c1.4,0.3,4,5.3,4.4,5.2c-0.2,0-0.4,0-0.5,0.1c0.5-0.7,3.7,3.7,4.1,3.3c0.3-0.2-5.3-6.6-4.4-6.9
				c1.5-0.5,2.1,3.6,3.1,2.8c0.7,0.5,1,1.7,1.8,1.9c1.1,0.3,2.4,1.8,2.9,2.8c0.5,1.2-0.1,1.6,1.7,1.9c1.7,0.3,4.2,1.7,5.9,1.3
				c1.1-0.3,1.4-1.1,2.7-0.3c1.3,0.8,2.9,0.9,4.4,0.7c1.3-0.2,2.7,2.4,3,2.4c1-0.2,1.5,0.5,2.5,0.5c0.4,0,1.7,0.7,2.1,0.5
				c0.5-0.2-0.4-0.7,0.2-1.1c1.1-1,1.7,0.2,2.2,1.2c1.3,2.7-0.8,3.5-1.1,6c-0.2,1.2,1,0.9,1,1.5c0.1,0.9-0.7,1.4-0.3,2.4
				c0,0.1,2.3,1.5,2.6,1.8c0.9,0.9,1.8,2.6,2.7,3.3c1.6,1.4,4.5,0.7,4.9,3.2c0.3,1.7,0.5,3.9,0.3,5.7c-0.3,1.7,0.7,3.3-0.2,5.1
				c-0.2,0.4,0.8,2.8,0.6,3.1c0.1-0.1,0-1.1,0.3-0.9c0.9,0.5-0.5,2.3-0.6,2.5c-0.1,0.3,0.4-0.1,0.5,0.1c0,0,1,4.8,2.6,2.5
				c0.2-0.3-1.5-0.5-0.6-0.7c0.1-0.6,0.9-3.3,1.1-3.3c0,0.1,0.6-1.1,0.3-1.1c-0.1-0.5,0.8,0.2,0.5-0.4c0.1,0.2-1.3-0.3-0.5-0.7
				c0.6-0.2,1.5-0.1,1.1-1.2c0.5-0.7,1.9-0.5,2.4-1.4c0.3-0.4,0-2.2-0.3-1.9c0.6-0.6,1.8,0.3,2.6-0.9c0.1-0.2,1.3-2.7,1.6-2.5
				c0.3-0.7-0.7,1-0.4,0.9c0.7-0.4,1.7-2.4,1.8-3.2c0.2-1.6,1.5-2.8,2.9-3.5c3.4-1.6,2.8-5,4-8.1
				C556.4,120.8,559.2,114.9,557.6,114.3z M507,60.7c0-0.8-0.6-0.2-0.7-0.1c0,0,0,0-0.1,0c0-0.1-0.5,0.5-0.5,0.5
				c0.4,0.3,1.8,0.1,1.4-0.2C507.1,60.9,507.2,60.5,507,60.7z M514.3,73.1c0.2,0.1,0.5,0.1,0.7,0C515,72.5,514,73,514.3,73.1z
				 M526.7,73.1c0.2,0.5,1.8,0.4,2.1,0.2C528.4,72.8,527.1,73,526.7,73.1z M534.8,73.1c-0.4,0.7,0-0.5,0-0.5c0-0.4-3-0.7-3-0.6
				c0-0.1,0.1-1.4,0.1-1.4c0,0,0.1-0.2,0.1-0.2c-0.5,0-1.4,1.7-0.8,2c-0.8,2.5,0.5,1.1,2.3,1.2c0.3,0-0.4,0.6-0.1,0.7
				c0.5,0.1,0.5-0.7,1-0.6c0.2,0,0.5,0.3,1,0.4C536.1,74.3,535.1,72.6,534.8,73.1z M532.8,100.4c0,0-1.4,0.3-0.8,0.5
				C532.7,101.3,533.7,100.4,532.8,100.4z M522.9,102.8c-0.1,0.5,1.7,0.3,1.5,0C524.3,102.5,523,102.4,522.9,102.8z M527.3,101.7
				c-0.4-0.1-0.9,0-1.3,0.1c0.4-0.3,3.6-0.2,4.7-0.8c-0.1,0-3.3-1.6-4-0.4C526.6,100.8,528.3,101.4,527.3,101.7z M525.2,100.4
				c-1.1,0-2.7-0.7-3.8-0.9c-1.2-0.2-1.7-0.1-2.9,0.3c0,0-2,1.3-1.2,1.2c0.7-0.1,1.2-1.3,2-0.9c0,0.1-0.1,0.1-0.1,0.2
				c0.9,0.4,3.6-0.4,4.2,0.6c-0.9,1,2.3,0,2.4,0C525.9,100.4,525.5,100.4,525.2,100.4z M538.3,105.8c-0.3-0.2-0.5,0.4-0.4,0.5
				C537.9,106.7,538.7,106.1,538.3,105.8z M486.8,78.5c-0.1,0.1-0.2,0.3-0.3,0.3c0,0,0.2-0.3,0.2-0.3c-0.1-0.4-0.3,1.4-0.2,1.6
				C486.5,80.3,486.5,78.8,486.8,78.5z M487.2,76.1c0,0-0.7,1.3-0.2,1.6C487,77.8,487.3,76.4,487.2,76.1z M487.4,74.6
				c-0.1,0.1-0.4,0.9-0.4,0.9c0.2-0.3,0.3-0.6,0.1-0.8c-0.2-0.1-0.6,1.7-0.5,1.8C486.7,76.3,487.8,74.8,487.4,74.6z M483,75.4
				c-0.6,0.8-0.5,0.9-1,1.6c0.1-0.1,0.6-1.1,0.7-1.1c0.1-0.2,0.4-0.4,0.4-0.5C483.2,75.3,483.2,75.3,483,75.4z M514.6,65.1
				c0.2-0.4-0.3-0.7-0.4-0.3C514.1,65.1,514.4,65.4,514.6,65.1z M512.9,64.4c-0.1,0.1-1,0.3-0.7,0.7
				C512.6,65.8,513.3,64.2,512.9,64.4z M513.9,63.5c-0.1-0.2-2.5-1.1-2.7-1c-0.2,0-0.7,1.8-0.7,2c0,0.2,0.8-0.4,0.8,0.2
				C511.5,64.7,513.7,63.1,513.9,63.5z M510.6,53.4C511.7,53.6,510.2,52.9,510.6,53.4C510.7,53.4,510.6,53.4,510.6,53.4z
				 M506.8,56.7c0.3-0.1,0.3-0.5,0-0.2C506.5,56.8,506.6,56.8,506.8,56.7z M508.1,57.1c-0.2,0,0.1-0.1,0-0.2c0,0-0.4,0.2-0.5,0.2
				c-0.1,0.1-0.2,0-0.3,0.1c0,0.1-0.5,0.3-0.5,0.4c0-0.1-0.1,0.5-0.1,0.4c-0.1,0.3-0.4,0-0.4,0c-0.2,0,0,1.7,0.7,0.8
				c0.3,0.8,1.5-2.1,0.8-1c-0.1-0.2-0.2-0.2-0.4,0C507.4,57.9,508.2,57.1,508.1,57.1z M507.9,55.8C507.9,55.8,508,55.8,507.9,55.8
				c0,0,0,0.2,0,0.2c-0.1,0-0.1-0.6,0-0.5c0-0.6-0.3,0.4-0.3,0.2c-0.2,0.1-0.2,0.2,0,0.2c-0.1,0-0.1,0.1-0.1,0.1
				c0,0,0.1-0.1,0.2-0.1c-0.3,0.3,0.6-0.1,0.7-0.1c0,0-0.5,0.3-0.3,0.3c-0.1,0.2-0.1,0.2,0.1,0.1c0.1,0,0.3,0,0.4-0.1
				c0-0.1,0.1-0.1,0.2-0.1c0.1-0.3,0.6-0.5,0.5-0.9c0,0-0.1-0.1-0.1,0c-0.2,0.1-0.4,0.3-0.6,0.4c0,0,0.1,0,0.1,0.1
				C508.2,55.6,508.3,55.6,507.9,55.8z M509.6,55.7c-0.4,0.1-0.8,0.4-0.7,0.7C509.3,57,509.9,55.6,509.6,55.7z M510.5,54.4
				c0,0,0.1-0.1,0.1-0.1c-0.2,0-0.4,0.1-0.6,0.2C510,54.6,510.6,54.4,510.5,54.4z M510.1,54.3c0.2,0,0.3-0.1,0.3-0.2
				C510.7,53.9,510.3,53.8,510.1,54.3c-0.1,0-0.1-0.1-0.2,0C509.8,54.5,510,54.4,510.1,54.3z M511.3,54.3c-0.1-0.2,0.1,0.1,0.1,0.1
				S511.4,54.3,511.3,54.3z M510.7,54.8c-0.1,0-1.3,0-1.1,0.3c0.6,0.9,0.8,1,2.2,0.7c0.3,0,2.6-0.8,1.7-1.1c0,0-0.1,0-0.1,0
				c-0.8,0.2-1.5,0.4-2.2,0.6c0,0,0-0.1,0-0.1c-0.2,0-0.3,0.1-0.5-0.1C510.7,55.2,511.4,54.7,510.7,54.8z M507.9,55.2
				c0.1,0.2-0.1-0.2-0.1-0.2C507.8,55.1,507.8,55.1,507.9,55.2z M508.8,54.5c0,0,0.4-0.2,0.5,0c0.1,0.3,0.5-0.4,0.5-0.4c0,0,0,0,0,0
				s0-0.5-0.1-0.1c0,0-0.3-0.2-0.1-0.2c-0.2,0-0.4,0.1-0.5,0.2c0,0,0.1,0,0,0c-0.1,0.1-0.1,0.1-0.1,0.1s0.3-0.2,0.1,0
				C509.2,54.2,508.6,54.5,508.8,54.5z M507.4,54.8c0.2-0.1,0.7,0,0.8-0.3C508.2,54.4,507.1,54.8,507.4,54.8z M507,55.3
				c0.2,0,0.3-0.1,0.3-0.2C508.5,54.2,505.7,55.8,507,55.3z M506.2,56.2c0,0.2-0.5,0.4-0.7,0.5c-0.1,0-0.1-0.2-0.1-0.2s0,0,0,0
				c0.1-0.2,0-0.4-0.1-0.4c-0.2,0-0.3,0.1-0.4,0.3c0,0-0.7,0.3-0.4,0.3c-0.4,0.3-0.3,0.4-0.9,0.6c0.2-0.1,0.2-0.1,0.1,0.1
				c-0.1-0.1,1-0.3,1-0.3c0.2-0.1-0.8,0.4-0.9,0.6c0,0.1,1.8-0.8,1.9-0.7c0.2,0.2,1.3-0.8,1.1-0.9c-0.1-0.1-0.5,0.4-0.6,0.3
				c0.2-0.1,0.2-0.2,0-0.1c0,0,0.5-0.5,0.4-0.5C506.6,55.6,506.1,56.1,506.2,56.2z M504.3,56.7c-0.2,0.1-0.5,0.3-0.7,0.4
				C503.7,57.1,504.2,56.7,504.3,56.7z M503.5,56.9c0.1,0,0.1,0,0.1,0c0,0,0.8-0.5,1.4-0.8c-0.1,0.1-0.4,0.3-0.4,0.4
				c0.1,0.1,1.5-1.1,1.5-1.1C505.9,55.2,503.2,57,503.5,56.9z M501.8,59.3c-0.5,0.3-1,1.1-1,1.1l-0.2,0.2c0,0,0.8-0.2,0.3,0
				c-0.3,0.1-0.6,0.3-0.8,0.5c-0.1,0.2,1.7-0.5,1.5,0c-0.1,0.1-2.5,0.8-1.9,1.1c0.1,0.1,0.7-0.1,0.8,0c-0.1,0.2-0.1,0.4-0.1,0.6
				c1,0.4,3.6-2,4.4-1.6c-0.2,0-0.3,0-0.5,0.1c-0.1,0,1.2-0.7,1.1-0.8c-0.1-0.2-1.4-2.7,0.2-2.7c-0.3,0-2.1,1.6-1.9,1.8
				c-0.2-0.3,0.8-1.1,0-0.9c-0.2,0.3-0.2,0.5-0.7,0.5c0.3-0.1,0.4-0.3,0.2-0.4c-0.4,0-0.6,0.5-1,0.5c0,0,0.7-0.7,0.5-0.6
				C502.5,58.9,502.1,59.1,501.8,59.3z M499.2,60.5c-0.1,0.2-0.1,0.4-0.2,0.6c-0.1-0.5,4.1-1.9,3.8-2.9c0,0.1-1.2,0.1-1.4,0.2
				c-0.4,0-2.2,1.9-2.5,2.2C499,60.6,499.2,60.5,499.2,60.5z M515.8,59.4c-0.8-0.2-1,1-0.3,0.8C515.9,60.2,516.3,59.5,515.8,59.4z
				 M513.6,56.5c0.1,0.2,1.4-0.2,1.2-0.3c-0.6-0.6-1.6,0.2-1.4,0.2C513.5,56.3,513.5,56.4,513.6,56.5z M522.3,60.1
				c1.6,0.1-0.8-1.1-0.9-1.2c-1-0.4-1.9,0-2.6-0.9c-0.4,0.2,1.1-0.2,0.4-0.2c-0.3,0-1.9-1.3-2.6-1c-0.4,0.1-0.5,0.3-1,0.1
				c0.3-0.2,0.2-0.3-0.2-0.2c0-0.5-1.1-0.3-1.3,0c0,0.1-0.8,0.2-0.8,0.3c0-0.2,0-0.4,0-0.6c-1.4-1.5-2,1.7-1.5,1.5
				c-0.8,0.3-0.5-1.7,0-1.7c-0.7,0-2,1.1-1.9,1.9c0,0.2,0.6,0,0.7,0.1c0.2,0.2-1,0.2-0.6,0.6c0.4,0.4,2.4,0.1,2.8-0.1
				c-0.1-0.6,2-0.4,2.2,0.2c0.1,0.4,3.5-0.3,1.8,1.4c0,0-1.2,2.4-1.7,1.6c-0.6,0.4,3.3,0.7,3.2,0.7c0.5,0.5,3.6,0.8,3.6,0.4
				c0-0.3-1.9-1.1-1.9-1.1c0.6,0.1,2,0.9,2.6,0.5c-0.1-0.1-0.3-0.2-0.5-0.2c0.2-0.1,0.1-0.3,0-0.4c0.6-0.1-2.5-1.7-2.5-1.7
				c0.9-0.2-0.1-0.4,0.2-0.5c0.4,0.1,0.8,0.1,1.1,0.1c0.1,0.7,1.2,0.5,1.2,0.5C522.1,60.1,521.9,60,522.3,60.1z M512.6,52.5
				C512.6,52.5,512.6,52.5,512.6,52.5c-0.1,0.1,0.6,0,0.7,0c0.1-0.1,0.6-0.1,0.7-0.2c-0.1,0.2-0.5,0.2-0.6,0.3c0,0-0.7,0.3-0.6,0.3
				c0,0,0.2,0.3,0.2,0.3c-0.1,0.1-1.4,0.7-0.5,0.5c0,0.2,0,0.3-0.2,0.3c-0.1-0.2-0.9,0.5-1,0.7c-0.2,0.4,3.6-0.6,2.6-0.7
				c0-0.1,0-0.2,0-0.2c0.2-0.1,0.3-0.2,0.2-0.4c0.4,0,0.8-0.2,0.5-0.6c0.1,0,0.3-0.1,0.1-0.1c0.2,0,0.3-0.1,0.1-0.2
				c0,0,0.5-0.3,0.5-0.3c0,0,0.1,0,0.1,0c0.1-0.1,0.2-0.3,0.3-0.4c-0.1,0-0.2,0-0.3,0c0,0,0,0,0,0c0.1,0,0.2,0,0.3-0.2
				c0-0.2-0.6,0-0.7,0c0,0,0,0,0,0c0,0-0.4,0-0.3,0.1c-0.1,0-0.1,0-0.2,0c-0.1,0-0.3,0.1-0.4,0.1c0,0-0.1,0-0.1,0c0,0,0,0,0,0
				c-0.1,0.1-0.3,0-0.3,0.2c-0.1,0.1,0,0-0.1,0c-0.1,0-0.3,0-0.4,0.1c0,0,0,0,0,0c-0.1,0-0.9,0.3-0.6,0.2
				C512.7,52.3,512.7,52.4,512.6,52.5c0-0.1,0.1-0.1,0.1-0.1C512.7,52.4,512.6,52.4,512.6,52.5z M511.4,53.4c-0.2,0-0.3,0.1-0.4,0.3
				c0,0.2,0.6,0.3,0.6,0c0.2-0.2,1.2-0.5,0.9-0.7c0,0-0.1-0.5-0.1-0.6c-0.2,0.3-1.1,0.5-1.3,0.9C510.7,53.5,511.8,53.2,511.4,53.4z
				 M558.6,64.4c0.2-0.3-1.9-1.5-2.2-1.6c0,0,0.1,0,0.1,0c-0.8-0.7-1.9-1.1-2.8-1.5c-0.1-0.1,0-0.1,0-0.2c-0.4-0.2-1.5-0.8-1.7-1
				c0,0,0,0,0,0c-0.1,0-0.2-0.1-0.2-0.1c0-0.1-0.4-0.8-0.5-0.5c-0.1,0-0.2,0.1-0.2,0.2c0.4,0.4,0.4,0.6,0.4,0.7
				c0-0.1,2.2,1.6,2.1,1.5c-0.1-0.1-0.3-0.3-0.4-0.4c-0.1-0.1,1.4,1,1.3,0.7c0-0.1,1.5,0.8,1.3,1.1c-0.1,0.1-0.1,0.2,0.1,0.4
				c0.8,0.4,0.6,0.8,1.6,0.9c0.3,0.4-0.2,0.7,0.4,1.3c-0.1,0,0.7-0.8,0.9-1C559,64.7,558.6,64.4,558.6,64.4z M550.9,59.9
				c0,0,0.4,0.3,0.5,0.3c-0.1-0.1-0.2-0.3-0.4-0.5C550.8,59.7,550.9,59.8,550.9,59.9z M554.7,62.8c-0.1-0.5-1-0.8-1.4-0.8
				c-0.2,0,0.1,0.5,0.2,0.6c0,0,0.1,0,0.2,0c0.1,0.1,0.1,0.2,0,0.3c-0.2,0.7,1.4,0.7,1.2,1.6c0,0-0.1,0.1,0,0.1
				c0.4,0.3,1.5,0.1,1.2-0.4C555.7,64,554.8,63,554.7,62.8z M538.4,55.7c0.6,0.1,0,0,0.2,0.4c0.2,0.5,0.5,0,1,0.1c0,0.1,0,0.1,0,0.1
				c0.1,0,0.2,0,0.3,0.1c-0.2,0-0.3,0.2-0.4,0.3c0.4,0.4,3.2,0.9,3.3,0c0.1-1.1-1.8-1.7-2.8-1.7c0.1,0.1,0.2,0.2,0.4,0.2
				c0,0-0.2,0.1-0.3,0.1c0,0,0.4,0.3,0.3,0.3c-0.5-0.2-0.7,0.2-0.9-0.1c-0.2-0.3,0.6,0.5,0.3,0.4C539.4,56,538.9,55.7,538.4,55.7
				C538.4,55.6,538.1,55.6,538.4,55.7z M523.8,56.3c0.1,0.2,0.2,0.3,0.5,0.2c0.3,0.2,0.6,0.1,0.8-0.2
				C525.2,56.1,523.5,55.7,523.8,56.3z M515.8,52c0.1,0,0.2,0,0.3,0c0.6,0.5-0.9,0.5-1,1c0.2,0.2,0.4,0.2,0.6,0.1c0,0,0,0.1,0,0.1
				c-0.4,0,1.1-0.3,1-0.1c0,0.1-1.3,0.3-1,0.5c0.1,0,0.8,0,0.8,0c-0.1,0.2-0.4,0.2,0.3,0.2c1.3,0,2.1-0.4,3.6,0
				c1,0.3,1.6,1.4,2.2,1.6c0.7,0.2,1.2-0.6,2.1,0.2c-0.1,0.2-1-0.2-1.3,0c0.2-0.1,2.2,0.6,2.4,1c-0.1-0.2-1.1,1.8,0.3,1.4
				c2.5,1.1,5,5,8.6,4.1c0.4-0.1-2.8-4.4-1.7-5c1.1-0.6,1.4-0.4,0-1.9c0.7,0.8,2-0.7,1.6-1.5c0.1,0.2-2.3-0.5-2.3-0.5
				c0.1,0,1.7,0.3,1.7,0.2c-0.2-0.4-3.9-1.2-3.9-1.2c0.1-0.1,0.9,0,0.8-0.2c-0.2-0.1-0.5-0.2-0.8-0.2c0.1-0.3-3.5-0.7-3.2-0.9
				c0,0-1.1-0.1-1.2-0.1c0,0-0.5-0.2-0.6,0c-0.2,0.2-2.3-0.6-2.4-0.3c0.1-0.2-0.5,0-0.5,0c0.1,0,0.2,0.1,0.2,0.1c-0.2,0-0.3,0-0.5,0
				c0.1,0,0.2-0.1,0.2-0.1c-0.2,0.1-0.6,0-0.9,0c-0.1,0-0.1,0-0.1,0c0,0,0.2,0,0.1-0.1c-0.4-0.2-1.5,0-1.8,0.1
				c0.2-0.1,0.9,0.1,0.4,0c0.1,0,0.7,0.1,0.9,0c-0.6,0-1.2-0.1-1.8,0c0.1,0,1,0,0.5,0c-0.3,0-0.5,0-0.8,0c0,0,0,0,0,0
				c0,0,0.1,0-0.1,0c-0.1,0-0.2,0-0.3,0c0-0.1-1.9,0.2-2,0.2c0.2,0,0,0,0.1,0c-0.1,0-0.1,0-0.1,0c0,0,0,0,0,0c0,0-0.1,0,0,0
				c0.1-0.1,0.2-0.1,0.3,0c-0.1,0,1.3-0.1,0.9,0c-0.3,0-0.7,0.1-1,0.1c0.2,0,0.3,0,0.4,0c0.1,0,0,0-0.1,0c0.1,0,0.1,0,0.2,0
				c-0.1,0-0.5,0.1-0.6,0c0,0,0.7,0,0.4,0.1c-0.2,0-0.4-0.1-0.6,0c0,0,0.1,0,0.1,0c-0.1,0-0.2,0-0.3,0.1c0.1,0,0.2,0,0.4,0
				c-0.2,0-0.3,0-0.4,0c0,0,0,0,0,0c0,0,0.1,0,0.2,0c0,0,0,0,0,0c0.1,0,0.1,0,0.1,0c-0.1,0-0.2,0-0.3,0.1c0.1,0,0.1,0.1,0.2,0.1
				c-0.2,0-0.5,0-0.5,0.3C515.7,52.1,515.8,52.1,515.8,52z"/>
		</defs>
		<clipPath id="SVGID_15_">
			<use xlink:href="#SVGID_14_"  overflow="visible"/>
		</clipPath>
		<radialGradient id="SVGID_16_" cx="527.002" cy="64.4158" r="78.7149" gradientUnits="userSpaceOnUse">
			<stop  offset="0" style="stop-color:#FFFFFF"/>
			<stop  offset="0.5938" style="stop-color:#BFBCC1"/>
			<stop  offset="0.8633" style="stop-color:#6F7787"/>
			<stop  offset="1" style="stop-color:#9799A6"/>
		</radialGradient>
		<path clip-path="url(#SVGID_15_)" fill-rule="evenodd" clip-rule="evenodd" fill="url(#SVGID_16_)" d="M473.5,101.1
			c0-29,23.5-52.5,52.5-52.5c29,0,52.5,23.5,52.5,52.5c0,29-23.5,52.5-52.5,52.5C497,153.6,473.5,130.1,473.5,101.1z"/>
	</g>
</g>
<polyline fill-rule="evenodd" clip-rule="evenodd" fill="#1A325E" points="10.5,170.4 10.9,45.2 48.4,45.3 76.9,125 103.2,45.3 
	142.2,45.2 142.1,170.3 117,170.2 117,67.1 79.6,170.4 67.5,170.4 32.5,66.2 32.7,170.3 "/>
<path fill="#1A325E" d="M142.1,341.8l-30.6-0.4L44.9,237.5c-1-1.6-2.5-4.2-4.7-7.8c-1-1.6-2.4-4.1-4.4-7.5v119.6H12.1V178.5h32.5
	l61.7,95c0.5,0.8,3.9,5.3,10.3,16.2L116.2,178l25.5,0.4L142.1,341.8z"/>
<g>
	<polygon fill="#1A325E" points="345.3,170.2 345.3,170.1 345.3,170.1 	"/>
	<path fill="#1A325E" d="M345,45.3h-24.7l-26.7,43l-23.5-43l-110.5,0.1l0.2,125h110.4l23.4-45.5l26.3,45.2h25.3l-33.4-62.6L345,45.3
		z M244.7,163v-10.8l-61.2-0.2v-34.7h48.7V98.3H184l-0.2-33.2h60.5l0.2-11.1l32.2,53.1L244.7,163z"/>
	<polygon fill="#1A325E" points="370.1,45.2 345.2,45.2 345.3,170.1 370.1,170.1 	"/>
	<polygon fill="#1A325E" points="228.7,19.2 222.8,7.6 186.5,28.7 190.4,35.9 	"/>
</g>
<g>
	<path fill="#EB6726" d="M230,263.8c5.3,0.3,9.1,1.5,11.3,3.4c2.2,1.9,3.2,4.1,3.1,6.6c-0.2,2.5-1.3,5-3.5,7.6
		c-2.2,2.6-4.9,4.7-8.2,6.4c-2,1-6.2,1.8-12.5,2.4c-6.4,0.6-14.1,1.1-23.1,1.4c-9.1,0.3-19.1,0.5-30,0.6c-11,0.1-21.9,0-32.9-0.2
		c-1.7,4.6-3.9,11.1-6.8,19.3c-2.9,8.2-6.1,17.5-9.8,27.9c-3.7,10.3-7.6,21.4-11.7,33.2c-4.1,11.8-8.3,23.5-12.4,35.2
		c-4.1,11.7-8,23-11.8,33.9c-3.8,10.9-7.1,20.7-10,29.3c-2.9,8.6-5.3,15.8-7.1,21.4c-1.8,5.6-2.8,9.1-3.1,10.3
		c-0.4,2.5-1.3,4.8-2.6,6.6c-1.3,1.9-2.5,2.9-3.6,3c-1.1,0.1-1.9-0.9-2.3-3.2c-0.4-2.2,0-6.1,1.3-11.6c0.6-2.4,1.9-6.8,3.9-13.1
		c2-6.3,4.6-13.8,7.6-22.6c3-8.7,6.3-18.4,10-29c3.7-10.6,7.5-21.5,11.5-32.7c3.9-11.2,7.9-22.3,11.9-33.4c4-11.1,7.7-21.4,11.2-31
		c3.5-9.6,6.6-18.3,9.3-25.9c2.7-7.6,4.8-13.6,6.4-17.8c-7.2-0.1-14.2-0.3-20.9-0.6c-6.7-0.3-13.1-0.6-18.9-1
		c-5.9-0.4-11.1-0.8-15.8-1.2c-4.7-0.4-8.5-0.9-11.5-1.4c-7.9-1.3-14.2-3.3-18.9-6c-4.8-2.7-8.4-5.3-11-8c-3-3.1-5.1-6.4-6.5-10
		c6.6,1.6,14.4,2.7,23.3,3.5c8.9,0.8,18.4,1.3,28.5,1.5c10.1,0.2,20.6,0.2,31.5,0c10.9-0.2,21.7-0.5,32.3-0.9
		c10.6-0.4,20.9-0.9,30.8-1.4c9.9-0.6,18.9-1.1,27-1.5c8.1-0.4,15.2-0.8,21.2-1C223,263.8,227.3,263.7,230,263.8z"/>
	<path fill="#EB6726" d="M263.4,389.4c1.4,0,2,0.8,1.7,2.3c0,0.1-0.8,0.9-2.3,2.3c-1.6,1.4-3.6,3.2-6.2,5.4c-2.6,2.2-5.6,4.5-9,7
		c-3.4,2.5-7,4.8-10.8,6.9c-3.8,2.1-7.7,3.9-11.7,5.3c-4,1.4-7.9,2.2-11.6,2.2c-5.9,0-10.2-1.4-13-4.2c-2.8-2.8-4.6-6.4-5.4-10.8
		c-0.8-4.4-0.8-9.2-0.2-14.4c0.7-5.3,1.5-10.3,2.5-15c1-4.8,1.9-9,2.7-12.6c0.8-3.7,1-6.1,0.4-7.3c-0.3-0.9-1.1-1.6-2.2-2.1
		c-1.2-0.5-2.4-0.9-3.8-1.2c-1.4-0.3-2.8-0.5-4.3-0.7c-1.5-0.2-2.7-0.5-3.7-0.8c-0.4,0-1-0.2-1.7-0.5c-1.4,2.7-3.7,6-6.7,10
		c-3,4-6.4,8.2-10,12.4c-3.7,4.3-7.4,8.4-11.2,12.4c-3.8,4-7.3,7.3-10.4,10c-0.9,0.8-1.7,1.3-2.5,1.5c-0.8,0.2-1.3,0.2-1.7-0.2
		c-0.3-0.3-0.4-0.9-0.1-1.7c0.3-0.8,1-1.7,2.1-2.8c7-6.6,12.7-12.4,17.2-17.3c4.5-4.9,8.1-9.1,10.9-12.6c2.8-3.5,4.8-6.2,6.1-8.3
		c1.3-2,2.2-3.5,2.7-4.4c-1.6-0.6-3-1-4.3-1.5c-1.3-0.4-2.2-0.9-2.5-1.5c-1.1-0.9-1.8-2-2.2-3.4c-0.3-1.4-0.2-3,0.5-4.9
		c1-2.7,2.7-4.9,5.1-6.8c2.4-1.9,5-2.8,7.6-2.8c2.4,0,4.3,0.8,5.6,2.3c1.3,1.6,1.7,3.4,1.2,5.6c-0.1,0.6-0.2,1.1-0.3,1.5
		c-0.2,1-0.6,2.2-1,3.5c2.1,0.7,5,1.1,8.8,1.4c3.8,0.3,7.6,0.6,11.4,0.8c3.8,0.3,7.2,0.7,10.3,1.2c3,0.6,4.8,1.5,5.4,2.8
		c0.6,1.4,0.6,3.9,0.1,7.4c-0.5,3.5-1.1,7.4-1.8,11.7c-0.7,4.3-1.4,8.8-2.1,13.4c-0.7,4.6-0.9,8.8-0.8,12.6c0.1,3.8,0.8,7,2,9.5
		c1.2,2.5,3.3,3.7,6.3,3.7c2.2,0,4.6-0.5,7.3-1.4c2.7-0.9,5.1-2,7.5-3.2c2.8-1.3,5.5-2.9,8.1-4.6l7.3-6.5
		C261.3,389.9,262.2,389.4,263.4,389.4z"/>
	<path fill="#EB6726" d="M377.6,389.4c1.4,0,2,0.8,1.7,2.3c-0.1,0.1-0.9,0.9-2.2,2.3c-1.4,1.4-3.3,3.2-5.7,5.4
		c-2.4,2.2-5.3,4.5-8.5,7c-3.2,2.5-6.7,4.8-10.4,6.9c-3.7,2.1-7.5,3.9-11.4,5.3c-3.9,1.4-7.7,2.2-11.5,2.2c-4,0-7.1-1.3-9.4-3.9
		c-2.3-2.6-4-5.5-5.1-8.7c-1.1-3.2-1.8-6.2-2.1-8.9c-0.3-2.7-0.4-4.2-0.4-4.6c-0.3,0.3-1.8,1.9-4.4,4.6c-2.6,2.7-5.8,5.7-9.7,8.9
		c-3.9,3.2-8.2,6.1-12.9,8.7c-4.7,2.6-9.3,3.9-13.9,3.9c-4.9,0-8.7-1-11.6-2.9c-2.9-1.9-4.8-4.6-5.8-7.9c-1-3.3-1.1-7.2-0.2-11.5
		c0.8-4.4,2.5-9,5-13.8c2.5-4.8,5.8-9.7,10-14.6c4.1-4.9,9.1-9.7,14.9-14.2c6.1-4.9,12-8.5,17.7-11c5.7-2.4,11-4.1,16-5
		c4.4-0.8,8.5-1,12.1-0.7c3.7,0.3,6.6,0.8,9,1.6c2.3,0.8,4,1.7,4.9,2.7c0.9,1.1,1,2,0.2,2.7c-1,0.9-1.8,1.3-2.4,1.2
		c-0.6-0.1-1.4-0.4-2.4-0.9c-1-0.5-2.4-1-4.1-1.6c-1.8-0.6-4.3-0.8-7.6-0.8c-3.1,0-6.5,0.7-10.1,2.1c-3.7,1.4-7.3,3.3-10.9,5.6
		c-3.6,2.4-7,5.2-10.3,8.4c-3.3,3.2-6.1,6.6-8.4,10.1c-3.5,5.3-5.8,10-6.7,14c-0.9,4-1.1,7.5-0.5,10.3c0.6,2.8,1.8,5,3.6,6.4
		c1.8,1.4,3.7,2.2,5.6,2.2c3.7,0,7.1-1.1,10.3-3.3c3.2-2.2,6.2-5,9-8.2c2.8-3.3,5.3-6.8,7.6-10.6c2.3-3.8,4.5-7.4,6.5-10.6
		c2-3.3,3.8-6,5.5-8.1c1.7-2.2,3.2-3.2,4.6-3.2c1.4,0,2.4,1.2,2.8,3.6c0.4,2.4,0.7,5.3,0.9,8.8c0.2,3.5,0.3,7.3,0.4,11.5
		c0.1,4.1,0.5,8,1.2,11.5c0.7,3.5,1.8,6.4,3.3,8.8c1.5,2.4,3.8,3.6,6.8,3.6c2.2,0,4.4-0.5,6.6-1.4c2.2-0.9,4.3-2,6.1-3.2
		c2-1.3,4-2.9,6-4.6l7.5-6.5C375.5,389.9,376.5,389.4,377.6,389.4z"/>
	<path fill="#EB6726" d="M456.7,342.5c-1.8,2.7-3.8,5.7-6.2,9.1c-2.4,3.4-4.7,6.6-6.9,9.6l-8,10.6c-6.7,9.2-13.2,17.4-19.4,24.6
		c-2.7,3.1-5.4,6.1-8.2,9c-2.8,2.9-5.6,5.5-8.4,7.8c-2.8,2.3-5.4,4.1-7.8,5.5c-2.4,1.4-4.6,2.1-6.5,2.1c-3.1,0-5.6-0.7-7.6-2.2
		c-2-1.4-3.5-3.4-4.6-5.8c-1.1-2.4-1.9-5.2-2.2-8.2c-0.4-3-0.6-6.2-0.6-9.4c0.1-7.5,1.2-16.1,3.3-25.7c1.5-6.1,3.8-11.6,6.8-16.4
		c1.3-2.1,2.8-4.1,4.6-6.1c1.7-2,3.7-3.8,6-5.3c2.3-1.5,4.8-2.8,7.7-3.7c2.9-0.9,6.1-1.4,9.6-1.4c4.2,0,6.7,1.1,7.5,3.2
		c0.8,2.2,0.4,5-1.2,8.5c-1.6,3.5-4,7.4-7.2,11.6c-3.2,4.3-6.7,8.5-10.5,12.9c0.3,3.3,0.9,6.5,1.6,9.5c0.7,3,1.5,5.7,2.3,8
		c0.8,2.3,1.7,4.2,2.7,5.6c0.9,1.4,1.9,2.2,2.7,2.2c0.9,0,2.3-1,4.4-3.2c2-2.1,4.5-4.8,7.2-8.2c2.8-3.4,5.8-7.2,9-11.5
		c3.2-4.3,6.4-8.5,9.5-12.7c3.1-4.2,6.1-8.2,8.9-11.9c2.8-3.8,5.2-6.9,7.2-9.3c1.4-1.4,2.8-2,4.1-1.8
		C457.7,339.7,457.9,340.7,456.7,342.5z M406.3,340.3c-2.3,0-4.2,0.8-5.6,2.4c-1.4,1.6-2.5,3.7-3.2,6.3c-0.7,2.6-1.2,5.6-1.3,8.9
		c-0.2,3.3-0.1,6.7,0.2,10.3c3-3.4,5.7-6.8,8-10.2c2.4-3.4,4.1-6.4,5.3-9c1.2-2.6,1.5-4.7,1.2-6.3
		C410.5,341.1,409,340.3,406.3,340.3z"/>
	<path fill="#EB6726" d="M514.2,361.2c-1.7,2.8-4.1,5.8-7.2,9c-3.2,3.3-6.6,6.5-10.5,9.7c-3.8,3.2-7.7,6.3-11.6,9.3
		c-3.9,3-7.5,5.6-10.7,7.8c1.1,3.5,2.8,6.4,5.2,8.6c2.4,2.2,5.8,3.3,10.2,3.3c3.2,0,7-0.7,11.3-2c3.7-1.2,8.1-3.1,13.4-5.7
		c5.3-2.6,11.2-6.6,17.8-11.9c1.1-1,2-1.5,2.7-1.7c0.7-0.1,1.1,0.1,1.4,0.5c0.3,0.4,0.3,1,0.2,1.7c-0.2,0.7-0.5,1.2-0.9,1.7
		c-0.3,0.3-1.6,1.3-3.7,2.9c-2.2,1.6-5,3.5-8.4,5.6c-3.4,2.2-7.3,4.5-11.6,6.9c-4.3,2.4-8.9,4.7-13.6,6.7c-4.8,2-9.5,3.7-14.3,5.1
		c-4.8,1.3-9.3,2-13.6,2c-6.5,0-11.7-1.3-15.4-4c-3.8-2.7-6.5-6-8.1-10c-1.7-4-2.4-8.4-2.2-13.1c0.2-4.8,1-9.2,2.6-13.4
		c1.4-4.3,3.9-9,7.3-13.9c3.4-5,7.5-9.6,12.3-13.9c4.8-4.3,10.1-7.8,15.9-10.6c5.9-2.8,11.9-4.2,18.3-4.2c5.1,0,8.9,0.7,11.5,2.2
		c2.6,1.5,4.3,3.4,5,5.7c0.7,2.3,0.7,4.9,0,7.6C516.5,356,515.5,358.7,514.2,361.2z M500.9,342.5c-3.8,0-7.4,1.7-11,5.1
		c-3.5,3.4-6.6,7.6-9.3,12.5c-2.7,5-4.7,10.4-6.1,16.2c-1.4,5.8-1.9,11.2-1.3,16.2c3.1-2,6.5-4.3,10.1-6.9c3.7-2.6,7.2-5.3,10.6-8.1
		c3.4-2.8,6.5-5.6,9.3-8.5c2.8-2.8,4.8-5.4,6-7.9c1.8-3.4,2.7-6.3,2.9-8.7c0.2-2.4-0.2-4.3-1.1-5.7c-0.9-1.4-2.2-2.5-4.1-3.2
		C505.2,342.8,503.1,342.5,500.9,342.5z"/>
	<path fill="#EB6726" d="M540,339.2c6.9-15.5,14.5-29.4,23.1-41.7c3.7-5.2,7.6-10.3,11.9-15.3c4.3-5,8.8-9.4,13.6-13.4
		c4.8-3.9,9.9-7.1,15.3-9.5c5.4-2.4,10.9-3.6,16.5-3.6c5.6,0,8.7,1.9,9.3,5.8c0.6,3.9-0.7,9-3.7,15.3c-3,6.3-7.5,13.5-13.3,21.5
		c-5.8,8-12.1,16.2-19,24.6c-16.2,19.8-36.5,42.2-60.9,67.2l-4.1-1.3c22.2-23.5,41-44.4,56.3-62.9c6.5-7.9,12.6-15.6,18.2-23.1
		c5.6-7.6,10-14.3,13.4-20.2c3.3-5.9,5.1-10.7,5.5-14.3c0.3-3.6-1.6-5.4-5.6-5.4c-4.1,0-8.4,2-12.9,6.1c-4.5,4.1-9,9.5-13.4,16.3
		c-4.4,6.7-8.7,14.4-12.8,23.1c-4.1,8.6-7.7,17.4-11,26.4c-3.2,9-5.9,17.8-8,26.4c-2.1,8.6-3.4,16.3-3.9,23.1
		c-0.5,6.7-0.1,12.2,1.3,16.3c1.4,4.1,4,6.1,7.7,6.1c1.8,0.2,4-0.2,6.8-1.3c2.3-0.9,5.2-2.5,8.6-4.7c3.4-2.3,7.6-5.7,12.4-10.4
		c0.7-0.6,1.3-0.9,1.8-0.9c0.6-0.1,1,0.1,1.4,0.3c0.4,0.3,0.6,0.7,0.7,1.2c0.1,0.6-0.1,1.1-0.5,1.7c-0.3,0.4-1.3,1.4-2.8,2.9
		c-1.6,1.5-3.6,3.3-6.1,5.4c-2.5,2.1-5.3,4.3-8.5,6.6c-3.2,2.3-6.6,4.5-10.2,6.5c-3.7,2-7.4,3.6-11.3,4.9c-3.9,1.3-7.7,1.9-11.5,1.9
		c-4.5,0-8-1.3-10.5-3.8c-2.5-2.5-4.2-6-5.1-10.3c-0.9-4.3-1.2-9.3-0.8-14.9c0.4-5.6,1.2-11.4,2.3-17.5c1.2-6.1,2.6-12.2,4.4-18.3
		C536.2,350,538.1,344.4,540,339.2z"/>
</g>
</svg>
